0
SECTION
2
HEADER
9
$INSUNITS
70
4
0
ENDSEC
0
SECTION
2
TABLES
0
TABLE
2
LTYPE
0
LTYPE
72
65
70
64
2
CONTINUOUS
3
______
73
0
40
0
0
ENDTAB
0
TABLE
2
LAYER
0
ENDTAB
0
ENDSEC
0
SECTION
2
ENTITIES
0
LINE
8
0
10
19.8796834
20
-5.0265192
11
31.8340198
21
-6.0723881
0
LINE
8
0
10
18.659503
20
-18.9732449
11
30.6138394
21
-20.0191138
0
LINE
8
0
10
18.796333
20
-5.9355581
11
17.7504641
21
-17.8898945
0
LINE
8
0
10
32.7430587
20
-7.1557385
11
31.6971898
21
-19.1100749
0
ARC
8
0
10
19.7925277
20
-6.0227139
40
1
50
85
51
175
0
ARC
8
0
10
31.746864
20
-7.0685828
40
1
50
355
51
85
0
ARC
8
0
10
18.7466588
20
-17.9770502
40
1
50
175
51
265
0
ARC
8
0
10
30.7009951
20
-19.0229191
40
1
50
265
51
355
0
LINE
8
0
10
38.8073826
20
-6.5953226
11
50.761719
21
-7.6411915
0
LINE
8
0
10
37.5872022
20
-20.5420483
11
49.5415386
21
-21.5879172
0
LINE
8
0
10
37.7240322
20
-7.5043615
11
36.6781633
21
-19.4586979
0
LINE
8
0
10
51.6707579
20
-8.7245419
11
50.624889
21
-20.6788783
0
ARC
8
0
10
38.7202269
20
-7.5915173
40
1
50
85
51
175
0
ARC
8
0
10
50.6745632
20
-8.6373862
40
1
50
355
51
85
0
ARC
8
0
10
37.674358
20
-19.5458536
40
1
50
175
51
265
0
ARC
8
0
10
49.6286943
20
-20.5917225
40
1
50
265
51
355
0
LINE
8
0
10
62.4670067
20
-8.5563268
11
74.4213431
21
-9.6021957
0
LINE
8
0
10
61.2468263
20
-22.5030525
11
73.2011627
21
-23.5489214
0
LINE
8
0
10
61.3836563
20
-9.4653657
11
60.3377874
21
-21.4197021
0
LINE
8
0
10
75.330382
20
-10.6855461
11
74.2845131
21
-22.6398825
0
ARC
8
0
10
62.379851
20
-9.5525215
40
1
50
85
51
175
0
ARC
8
0
10
74.3341873
20
-10.5983904
40
1
50
355
51
85
0
ARC
8
0
10
61.3339821
20
-21.5068578
40
1
50
175
51
265
0
ARC
8
0
10
73.2883184
20
-22.5527267
40
1
50
265
51
355
0
LINE
8
0
10
81.394706
20
-10.1251302
11
93.3490424
21
-11.1709991
0
LINE
8
0
10
80.1745256
20
-24.0718559
11
92.128862
21
-25.1177248
0
LINE
8
0
10
80.3113556
20
-11.0341691
11
79.2654867
21
-22.9885055
0
LINE
8
0
10
94.2580813
20
-12.2543495
11
93.2122124
21
-24.2086859
0
ARC
8
0
10
81.3075503
20
-11.1213249
40
1
50
85
51
175
0
ARC
8
0
10
93.2618866
20
-12.1671938
40
1
50
355
51
85
0
ARC
8
0
10
80.2616814
20
-23.0756612
40
1
50
175
51
265
0
ARC
8
0
10
92.2160177
20
-24.1215301
40
1
50
265
51
355
0
LINE
8
0
10
100.3224052
20
-11.6939336
11
112.2767416
21
-12.7398025
0
LINE
8
0
10
99.1022248
20
-25.6406593
11
111.0565612
21
-26.6865282
0
LINE
8
0
10
99.2390548
20
-12.6029725
11
98.1931859
21
-24.5573089
0
LINE
8
0
10
113.1857805
20
-13.8231529
11
112.1399116
21
-25.7774893
0
ARC
8
0
10
100.2352495
20
-12.6901283
40
1
50
85
51
175
0
ARC
8
0
10
112.1895858
20
-13.7359972
40
1
50
355
51
85
0
ARC
8
0
10
99.1893806
20
-24.6444646
40
1
50
175
51
265
0
ARC
8
0
10
111.1437169
20
-25.6903335
40
1
50
265
51
355
0
LINE
8
0
10
119.2501045
20
-13.2627369
11
131.2044409
21
-14.3086058
0
LINE
8
0
10
118.0299241
20
-27.2094626
11
129.9842605
21
-28.2553315
0
LINE
8
0
10
118.1667541
20
-14.1717758
11
117.1208852
21
-26.1261122
0
LINE
8
0
10
132.1134798
20
-15.3919562
11
131.0676109
21
-27.3462926
0
ARC
8
0
10
119.1629488
20
-14.2589316
40
1
50
85
51
175
0
ARC
8
0
10
131.1172851
20
-15.3048005
40
1
50
355
51
85
0
ARC
8
0
10
118.1170799
20
-26.2132679
40
1
50
175
51
265
0
ARC
8
0
10
130.0714162
20
-27.2591368
40
1
50
265
51
355
0
LINE
8
0
10
138.1778038
20
-14.8315403
11
150.1321402
21
-15.8774092
0
LINE
8
0
10
136.9576234
20
-28.778266
11
148.9119598
21
-29.8241349
0
LINE
8
0
10
137.0944534
20
-15.7405792
11
136.0485845
21
-27.6949156
0
LINE
8
0
10
151.0411791
20
-16.9607596
11
149.9953102
21
-28.915096
0
ARC
8
0
10
138.0906481
20
-15.827735
40
1
50
85
51
175
0
ARC
8
0
10
150.0449844
20
-16.8736039
40
1
50
355
51
85
0
ARC
8
0
10
137.0447792
20
-27.7820713
40
1
50
175
51
265
0
ARC
8
0
10
148.9991155
20
-28.8279402
40
1
50
265
51
355
0
LINE
8
0
10
157.105503
20
-16.4003437
11
169.0598394
21
-17.4462126
0
LINE
8
0
10
155.8853226
20
-30.3470694
11
167.839659
21
-31.3929383
0
LINE
8
0
10
156.0221526
20
-17.3093826
11
154.9762837
21
-29.263719
0
LINE
8
0
10
169.9688783
20
-18.529563
11
168.9230094
21
-30.4838994
0
ARC
8
0
10
157.0183473
20
-17.3965384
40
1
50
85
51
175
0
ARC
8
0
10
168.9726836
20
-18.4424073
40
1
50
355
51
85
0
ARC
8
0
10
155.9724784
20
-29.3508747
40
1
50
175
51
265
0
ARC
8
0
10
167.9268147
20
-30.3967436
40
1
50
265
51
355
0
LINE
8
0
10
176.0332023
20
-17.969147
11
187.9875387
21
-19.0150159
0
LINE
8
0
10
174.8130219
20
-31.9158727
11
186.7673583
21
-32.9617416
0
LINE
8
0
10
174.9498519
20
-18.8781859
11
173.903983
21
-30.8325223
0
LINE
8
0
10
188.8965776
20
-20.0983663
11
187.8507087
21
-32.0527027
0
ARC
8
0
10
175.9460466
20
-18.9653417
40
1
50
85
51
175
0
ARC
8
0
10
187.9003829
20
-20.0112106
40
1
50
355
51
85
0
ARC
8
0
10
174.9001777
20
-30.919678
40
1
50
175
51
265
0
ARC
8
0
10
186.854514
20
-31.9655469
40
1
50
265
51
355
0
LINE
8
0
10
18.2237243
20
-22.9580238
11
30.1780607
21
-24.0038927
0
LINE
8
0
10
17.0035439
20
-36.9047495
11
28.9578803
21
-37.9506184
0
LINE
8
0
10
17.1403739
20
-23.8670627
11
16.094505
21
-35.8213991
0
LINE
8
0
10
31.0870996
20
-25.0872431
11
30.0412307
21
-37.0415795
0
ARC
8
0
10
18.1365686
20
-23.9542185
40
1
50
85
51
175
0
ARC
8
0
10
30.0909049
20
-25.0000874
40
1
50
355
51
85
0
ARC
8
0
10
17.0906997
20
-35.9085548
40
1
50
175
51
265
0
ARC
8
0
10
29.045036
20
-36.9544237
40
1
50
265
51
355
0
LINE
8
0
10
37.1514235
20
-24.5268272
11
49.1057599
21
-25.5726961
0
LINE
8
0
10
35.9312431
20
-38.4735529
11
47.8855795
21
-39.5194218
0
LINE
8
0
10
36.0680731
20
-25.4358661
11
35.0222042
21
-37.3902025
0
LINE
8
0
10
50.0147988
20
-26.6560465
11
48.9689299
21
-38.6103829
0
ARC
8
0
10
37.0642678
20
-25.5230219
40
1
50
85
51
175
0
ARC
8
0
10
49.0186041
20
-26.5688908
40
1
50
355
51
85
0
ARC
8
0
10
36.0183989
20
-37.4773582
40
1
50
175
51
265
0
ARC
8
0
10
47.9727352
20
-38.5232271
40
1
50
265
51
355
0
LINE
8
0
10
65.5429724
20
-26.8800322
11
77.4973088
21
-27.9259011
0
LINE
8
0
10
64.322792
20
-40.8267579
11
76.2771284
21
-41.8726268
0
LINE
8
0
10
64.459622
20
-27.7890711
11
63.4137531
21
-39.7434075
0
LINE
8
0
10
78.4063477
20
-29.0092515
11
77.3604788
21
-40.9635879
0
ARC
8
0
10
65.4558167
20
-27.8762269
40
1
50
85
51
175
0
ARC
8
0
10
77.410153
20
-28.9220958
40
1
50
355
51
85
0
ARC
8
0
10
64.4099478
20
-39.8305632
40
1
50
175
51
265
0
ARC
8
0
10
76.3642841
20
-40.8764321
40
1
50
265
51
355
0
LINE
8
0
10
89.2025965
20
-28.8410365
11
101.1569329
21
-29.8869054
0
LINE
8
0
10
87.9824161
20
-42.7877622
11
99.9367525
21
-43.8336311
0
LINE
8
0
10
88.1192461
20
-29.7500754
11
87.0733772
21
-41.7044118
0
LINE
8
0
10
102.0659718
20
-30.9702558
11
101.0201029
21
-42.9245922
0
ARC
8
0
10
89.1154408
20
-29.8372312
40
1
50
85
51
175
0
ARC
8
0
10
101.0697771
20
-30.8831001
40
1
50
355
51
85
0
ARC
8
0
10
88.0695719
20
-41.7915675
40
1
50
175
51
265
0
ARC
8
0
10
100.0239082
20
-42.8374364
40
1
50
265
51
355
0
LINE
8
0
10
108.1302958
20
-30.4098398
11
120.0846322
21
-31.4557087
0
LINE
8
0
10
106.9101154
20
-44.3565655
11
118.8644518
21
-45.4024344
0
LINE
8
0
10
107.0469454
20
-31.3188787
11
106.0010765
21
-43.2732151
0
LINE
8
0
10
120.9936711
20
-32.5390591
11
119.9478022
21
-44.4933955
0
ARC
8
0
10
108.0431401
20
-31.4060345
40
1
50
85
51
175
0
ARC
8
0
10
119.9974764
20
-32.4519034
40
1
50
355
51
85
0
ARC
8
0
10
106.9972712
20
-43.3603708
40
1
50
175
51
265
0
ARC
8
0
10
118.9516075
20
-44.4062397
40
1
50
265
51
355
0
LINE
8
0
10
127.057995
20
-31.9786432
11
139.0123314
21
-33.0245121
0
LINE
8
0
10
125.8378146
20
-45.9253689
11
137.792151
21
-46.9712378
0
LINE
8
0
10
125.9746446
20
-32.8876821
11
124.9287757
21
-44.8420185
0
LINE
8
0
10
139.9213703
20
-34.1078625
11
138.8755014
21
-46.0621989
0
ARC
8
0
10
126.9708393
20
-32.9748379
40
1
50
85
51
175
0
ARC
8
0
10
138.9251756
20
-34.0207068
40
1
50
355
51
85
0
ARC
8
0
10
125.9249704
20
-44.9291742
40
1
50
175
51
265
0
ARC
8
0
10
137.8793067
20
-45.9750431
40
1
50
265
51
355
0
LINE
8
0
10
145.9856943
20
-33.5474466
11
157.9400307
21
-34.5933155
0
LINE
8
0
10
144.7655139
20
-47.4941723
11
156.7198503
21
-48.5400412
0
LINE
8
0
10
144.9023439
20
-34.4564855
11
143.856475
21
-46.4108219
0
LINE
8
0
10
158.8490696
20
-35.6766659
11
157.8032007
21
-47.6310023
0
ARC
8
0
10
145.8985386
20
-34.5436413
40
1
50
85
51
175
0
ARC
8
0
10
157.8528749
20
-35.5895102
40
1
50
355
51
85
0
ARC
8
0
10
144.8526697
20
-46.4979776
40
1
50
175
51
265
0
ARC
8
0
10
156.807006
20
-47.5438465
40
1
50
265
51
355
0
LINE
8
0
10
164.9133935
20
-35.1162499
11
176.8677299
21
-36.1621188
0
LINE
8
0
10
163.6932131
20
-49.0629756
11
175.6475495
21
-50.1088445
0
LINE
8
0
10
163.8300431
20
-36.0252888
11
162.7841742
21
-47.9796252
0
LINE
8
0
10
177.7767688
20
-37.2454692
11
176.7308999
21
-49.1998056
0
ARC
8
0
10
164.8262378
20
-36.1124446
40
1
50
85
51
175
0
ARC
8
0
10
176.7805741
20
-37.1583135
40
1
50
355
51
85
0
ARC
8
0
10
163.7803689
20
-48.0667809
40
1
50
175
51
265
0
ARC
8
0
10
175.7347052
20
-49.1126498
40
1
50
265
51
355
0
LINE
8
0
10
16.5677651
20
-40.8895284
11
28.5221015
21
-41.9353973
0
LINE
8
0
10
15.3475847
20
-54.8362541
11
27.3019211
21
-55.882123
0
LINE
8
0
10
15.4844147
20
-41.7985673
11
14.4385458
21
-53.7529037
0
LINE
8
0
10
29.4311404
20
-43.0187477
11
28.3852715
21
-54.9730841
0
ARC
8
0
10
16.4806094
20
-41.8857231
40
1
50
85
51
175
0
ARC
8
0
10
28.4349457
20
-42.931592
40
1
50
355
51
85
0
ARC
8
0
10
15.4347405
20
-53.8400594
40
1
50
175
51
265
0
ARC
8
0
10
27.3890768
20
-54.8859283
40
1
50
265
51
355
0
LINE
8
0
10
35.4954644
20
-42.4583318
11
47.4498008
21
-43.5042007
0
LINE
8
0
10
34.275284
20
-56.4050575
11
46.2296204
21
-57.4509264
0
LINE
8
0
10
34.412114
20
-43.3673707
11
33.3662451
21
-55.3217071
0
LINE
8
0
10
48.3588397
20
-44.5875511
11
47.3129708
21
-56.5418875
0
ARC
8
0
10
35.4083087
20
-43.4545265
40
1
50
85
51
175
0
ARC
8
0
10
47.362645
20
-44.5003954
40
1
50
355
51
85
0
ARC
8
0
10
34.3624398
20
-55.4088628
40
1
50
175
51
265
0
ARC
8
0
10
46.3167761
20
-56.4547317
40
1
50
265
51
355
0
LINE
8
0
10
66.2529757
20
-45.0076372
11
78.2073121
21
-46.0535061
0
LINE
8
0
10
65.0327953
20
-58.9543629
11
76.9871317
21
-60.0002318
0
LINE
8
0
10
65.1696253
20
-45.9166761
11
64.1237564
21
-57.8710125
0
LINE
8
0
10
79.116351
20
-47.1368565
11
78.0704821
21
-59.0911929
0
ARC
8
0
10
66.16582
20
-46.0038319
40
1
50
85
51
175
0
ARC
8
0
10
78.1201563
20
-47.0497008
40
1
50
355
51
85
0
ARC
8
0
10
65.1199511
20
-57.9581682
40
1
50
175
51
265
0
ARC
8
0
10
77.0742874
20
-59.0040371
40
1
50
265
51
355
0
LINE
8
0
10
92.2785622
20
-47.1647419
11
104.2328986
21
-48.2106108
0
LINE
8
0
10
91.0583818
20
-61.1114676
11
103.0127182
21
-62.1573365
0
LINE
8
0
10
91.1952118
20
-48.0737808
11
90.1493429
21
-60.0281172
0
LINE
8
0
10
105.1419375
20
-49.2939612
11
104.0960686
21
-61.2482976
0
ARC
8
0
10
92.1914065
20
-48.1609366
40
1
50
85
51
175
0
ARC
8
0
10
104.1457428
20
-49.2068055
40
1
50
355
51
85
0
ARC
8
0
10
91.1455376
20
-60.1152729
40
1
50
175
51
265
0
ARC
8
0
10
103.0998739
20
-61.1611418
40
1
50
265
51
355
0
LINE
8
0
10
111.2062615
20
-48.7335452
11
123.1605979
21
-49.7794141
0
LINE
8
0
10
109.9860811
20
-62.6802709
11
121.9404175
21
-63.7261398
0
LINE
8
0
10
110.1229111
20
-49.6425841
11
109.0770422
21
-61.5969205
0
LINE
8
0
10
124.0696368
20
-50.8627645
11
123.0237679
21
-62.8171009
0
ARC
8
0
10
111.1191058
20
-49.7297399
40
1
50
85
51
175
0
ARC
8
0
10
123.0734421
20
-50.7756088
40
1
50
355
51
85
0
ARC
8
0
10
110.0732369
20
-61.6840762
40
1
50
175
51
265
0
ARC
8
0
10
122.0275732
20
-62.7299451
40
1
50
265
51
355
0
LINE
8
0
10
130.1339607
20
-50.3023486
11
142.0882971
21
-51.3482175
0
LINE
8
0
10
128.9137803
20
-64.2490743
11
140.8681167
21
-65.2949432
0
LINE
8
0
10
129.0506103
20
-51.2113875
11
128.0047414
21
-63.1657239
0
LINE
8
0
10
142.997336
20
-52.4315679
11
141.9514671
21
-64.3859043
0
ARC
8
0
10
130.046805
20
-51.2985433
40
1
50
85
51
175
0
ARC
8
0
10
142.0011413
20
-52.3444122
40
1
50
355
51
85
0
ARC
8
0
10
129.0009361
20
-63.2528796
40
1
50
175
51
265
0
ARC
8
0
10
140.9552724
20
-64.2987485
40
1
50
265
51
355
0
LINE
8
0
10
149.06166
20
-51.871152
11
161.0159964
21
-52.9170209
0
LINE
8
0
10
147.8414796
20
-65.8178777
11
159.795816
21
-66.8637466
0
LINE
8
0
10
147.9783096
20
-52.7801909
11
146.9324407
21
-64.7345273
0
LINE
8
0
10
161.9250353
20
-54.0003713
11
160.8791664
21
-65.9547077
0
ARC
8
0
10
148.9745043
20
-52.8673467
40
1
50
85
51
175
0
ARC
8
0
10
160.9288406
20
-53.9132156
40
1
50
355
51
85
0
ARC
8
0
10
147.9286354
20
-64.821683
40
1
50
175
51
265
0
ARC
8
0
10
159.8829717
20
-65.8675519
40
1
50
265
51
355
0
LINE
8
0
10
167.9893593
20
-53.4399553
11
179.9436957
21
-54.4858242
0
LINE
8
0
10
166.7691789
20
-67.386681
11
178.7235153
21
-68.4325499
0
LINE
8
0
10
166.9060089
20
-54.3489942
11
165.86014
21
-66.3033306
0
LINE
8
0
10
180.8527346
20
-55.5691746
11
179.8068657
21
-67.523511
0
ARC
8
0
10
167.9022036
20
-54.43615
40
1
50
85
51
175
0
ARC
8
0
10
179.8565399
20
-55.4820189
40
1
50
355
51
85
0
ARC
8
0
10
166.8563347
20
-66.3904863
40
1
50
175
51
265
0
ARC
8
0
10
178.810671
20
-67.4363552
40
1
50
265
51
355
0
LINE
8
0
10
14.911806
20
-58.8210329
11
26.8661424
21
-59.8669018
0
LINE
8
0
10
13.6916256
20
-72.7677586
11
25.645962
21
-73.8136275
0
LINE
8
0
10
13.8284556
20
-59.7300718
11
12.7825867
21
-71.6844082
0
LINE
8
0
10
27.7751813
20
-60.9502522
11
26.7293124
21
-72.9045886
0
ARC
8
0
10
14.8246503
20
-59.8172276
40
1
50
85
51
175
0
ARC
8
0
10
26.7789866
20
-60.8630965
40
1
50
355
51
85
0
ARC
8
0
10
13.7787814
20
-71.7715639
40
1
50
175
51
265
0
ARC
8
0
10
25.7331177
20
-72.8174328
40
1
50
265
51
355
0
LINE
8
0
10
33.8395053
20
-60.3898363
11
45.7938417
21
-61.4357052
0
LINE
8
0
10
32.6193249
20
-74.336562
11
44.5736613
21
-75.3824309
0
LINE
8
0
10
32.7561549
20
-61.2988752
11
31.710286
21
-73.2532116
0
LINE
8
0
10
46.7028806
20
-62.5190556
11
45.6570117
21
-74.473392
0
ARC
8
0
10
33.7523496
20
-61.386031
40
1
50
85
51
175
0
ARC
8
0
10
45.7066859
20
-62.4318999
40
1
50
355
51
85
0
ARC
8
0
10
32.7064807
20
-73.3403673
40
1
50
175
51
265
0
ARC
8
0
10
44.660817
20
-74.3862362
40
1
50
265
51
355
0
LINE
8
0
10
69.3289414
20
-63.3313426
11
81.2832778
21
-64.3772115
0
LINE
8
0
10
68.108761
20
-77.2780683
11
80.0630974
21
-78.3239372
0
LINE
8
0
10
68.245591
20
-64.2403815
11
67.1997221
21
-76.1947179
0
LINE
8
0
10
82.1923167
20
-65.4605619
11
81.1464478
21
-77.4148983
0
ARC
8
0
10
69.2417857
20
-64.3275373
40
1
50
85
51
175
0
ARC
8
0
10
81.196122
20
-65.3734062
40
1
50
355
51
85
0
ARC
8
0
10
68.1959168
20
-76.2818736
40
1
50
175
51
265
0
ARC
8
0
10
80.1502531
20
-77.3277425
40
1
50
265
51
355
0
LINE
8
0
10
100.0864527
20
-65.8806481
11
112.0407891
21
-66.926517
0
LINE
8
0
10
98.8662723
20
-79.8273738
11
110.8206087
21
-80.8732427
0
LINE
8
0
10
99.0031023
20
-66.789687
11
97.9572334
21
-78.7440234
0
LINE
8
0
10
112.949828
20
-68.0098674
11
111.9039591
21
-79.9642038
0
ARC
8
0
10
99.999297
20
-66.8768428
40
1
50
85
51
175
0
ARC
8
0
10
111.9536333
20
-67.9227117
40
1
50
355
51
85
0
ARC
8
0
10
98.9534281
20
-78.8311791
40
1
50
175
51
265
0
ARC
8
0
10
110.9077644
20
-79.877048
40
1
50
265
51
355
0
LINE
8
0
10
119.014152
20
-67.4494515
11
130.9684884
21
-68.4953204
0
LINE
8
0
10
117.7939716
20
-81.3961772
11
129.748308
21
-82.4420461
0
LINE
8
0
10
117.9308016
20
-68.3584904
11
116.8849327
21
-80.3128268
0
LINE
8
0
10
131.8775273
20
-69.5786708
11
130.8316584
21
-81.5330072
0
ARC
8
0
10
118.9269963
20
-68.4456462
40
1
50
85
51
175
0
ARC
8
0
10
130.8813326
20
-69.4915151
40
1
50
355
51
85
0
ARC
8
0
10
117.8811274
20
-80.3999825
40
1
50
175
51
265
0
ARC
8
0
10
129.8354637
20
-81.4458514
40
1
50
265
51
355
0
LINE
8
0
10
137.9418512
20
-69.0182548
11
149.8961876
21
-70.0641237
0
LINE
8
0
10
136.7216708
20
-82.9649805
11
148.6760072
21
-84.0108494
0
LINE
8
0
10
136.8585008
20
-69.9272937
11
135.8126319
21
-81.8816301
0
LINE
8
0
10
150.8052265
20
-71.1474741
11
149.7593576
21
-83.1018105
0
ARC
8
0
10
137.8546955
20
-70.0144495
40
1
50
85
51
175
0
ARC
8
0
10
149.8090318
20
-71.0603184
40
1
50
355
51
85
0
ARC
8
0
10
136.8088266
20
-81.9687858
40
1
50
175
51
265
0
ARC
8
0
10
148.7631629
20
-83.0146547
40
1
50
265
51
355
0
LINE
8
0
10
156.8695505
20
-70.5870582
11
168.8238869
21
-71.6329271
0
LINE
8
0
10
155.6493701
20
-84.5337839
11
167.6037065
21
-85.5796528
0
LINE
8
0
10
155.7862001
20
-71.4960971
11
154.7403312
21
-83.4504335
0
LINE
8
0
10
169.7329258
20
-72.7162775
11
168.6870569
21
-84.6706139
0
ARC
8
0
10
156.7823948
20
-71.5832529
40
1
50
85
51
175
0
ARC
8
0
10
168.7367311
20
-72.6291218
40
1
50
355
51
85
0
ARC
8
0
10
155.7365259
20
-83.5375892
40
1
50
175
51
265
0
ARC
8
0
10
167.6908622
20
-84.5834581
40
1
50
265
51
355
0
LINE
8
0
10
175.7972498
20
-72.1558616
11
187.7515862
21
-73.2017305
0
LINE
8
0
10
174.5770694
20
-86.1025873
11
186.5314058
21
-87.1484562
0
LINE
8
0
10
174.7138994
20
-73.0649005
11
173.6680305
21
-85.0192369
0
LINE
8
0
10
188.6606251
20
-74.2850809
11
187.6147562
21
-86.2394173
0
ARC
8
0
10
175.7100941
20
-73.1520563
40
1
50
85
51
175
0
ARC
8
0
10
187.6644304
20
-74.1979252
40
1
50
355
51
85
0
ARC
8
0
10
174.6642252
20
-85.1063926
40
1
50
175
51
265
0
ARC
8
0
10
186.6185615
20
-86.1522615
40
1
50
265
51
355
0
LINE
8
0
10
13.2558469
20
-76.7525375
11
25.2101833
21
-77.7984064
0
LINE
8
0
10
12.0356665
20
-90.6992632
11
23.9900029
21
-91.7451321
0
LINE
8
0
10
12.1724965
20
-77.6615764
11
11.1266276
21
-89.6159128
0
LINE
8
0
10
26.1192222
20
-78.8817568
11
25.0733533
21
-90.8360932
0
ARC
8
0
10
13.1686912
20
-77.7487322
40
1
50
85
51
175
0
ARC
8
0
10
25.1230275
20
-78.7946011
40
1
50
355
51
85
0
ARC
8
0
10
12.1228223
20
-89.7030685
40
1
50
175
51
265
0
ARC
8
0
10
24.0771586
20
-90.7489374
40
1
50
265
51
355
0
LINE
8
0
10
32.1835462
20
-78.3213409
11
44.1378826
21
-79.3672098
0
LINE
8
0
10
30.9633658
20
-92.2680666
11
42.9177022
21
-93.3139355
0
LINE
8
0
10
31.1001958
20
-79.2303798
11
30.0543269
21
-91.1847162
0
LINE
8
0
10
45.0469215
20
-80.4505602
11
44.0010526
21
-92.4048966
0
ARC
8
0
10
32.0963905
20
-79.3175356
40
1
50
85
51
175
0
ARC
8
0
10
44.0507268
20
-80.3634045
40
1
50
355
51
85
0
ARC
8
0
10
31.0505216
20
-91.2718719
40
1
50
175
51
265
0
ARC
8
0
10
43.0048579
20
-92.3177408
40
1
50
265
51
355
0
LINE
8
0
10
58.2091327
20
-80.4784455
11
70.1634691
21
-81.5243144
0
LINE
8
0
10
56.9889523
20
-94.4251712
11
68.9432887
21
-95.4710401
0
LINE
8
0
10
57.1257823
20
-81.3874844
11
56.0799134
21
-93.3418208
0
LINE
8
0
10
71.072508
20
-82.6076648
11
70.0266391
21
-94.5620012
0
ARC
8
0
10
58.121977
20
-81.4746402
40
1
50
85
51
175
0
ARC
8
0
10
70.0763133
20
-82.5205091
40
1
50
355
51
85
0
ARC
8
0
10
57.0761081
20
-93.4289765
40
1
50
175
51
265
0
ARC
8
0
10
69.0304444
20
-94.4748454
40
1
50
265
51
355
0
LINE
8
0
10
81.8687567
20
-82.4394497
11
93.8230931
21
-83.4853186
0
LINE
8
0
10
80.6485763
20
-96.3861754
11
92.6029127
21
-97.4320443
0
LINE
8
0
10
80.7854063
20
-83.3484886
11
79.7395374
21
-95.302825
0
LINE
8
0
10
94.732132
20
-84.568669
11
93.6862631
21
-96.5230054
0
ARC
8
0
10
81.781601
20
-83.4356444
40
1
50
85
51
175
0
ARC
8
0
10
93.7359373
20
-84.4815133
40
1
50
355
51
85
0
ARC
8
0
10
80.7357321
20
-95.3899807
40
1
50
175
51
265
0
ARC
8
0
10
92.6900684
20
-96.4358496
40
1
50
265
51
355
0
LINE
8
0
10
105.5283808
20
-84.4004539
11
117.4827172
21
-85.4463228
0
LINE
8
0
10
104.3082004
20
-98.3471796
11
116.2625368
21
-99.3930485
0
LINE
8
0
10
104.4450304
20
-85.3094928
11
103.3991615
21
-97.2638292
0
LINE
8
0
10
118.3917561
20
-86.5296732
11
117.3458872
21
-98.4840096
0
ARC
8
0
10
105.4412251
20
-85.3966486
40
1
50
85
51
175
0
ARC
8
0
10
117.3955614
20
-86.4425175
40
1
50
355
51
85
0
ARC
8
0
10
104.3953562
20
-97.3509849
40
1
50
175
51
265
0
ARC
8
0
10
116.3496925
20
-98.3968538
40
1
50
265
51
355
0
LINE
8
0
10
129.1880049
20
-86.3614582
11
141.1423413
21
-87.4073271
0
LINE
8
0
10
127.9678245
20
-100.3081839
11
139.9221609
21
-101.3540528
0
LINE
8
0
10
128.1046545
20
-87.2704971
11
127.0587856
21
-99.2248335
0
LINE
8
0
10
142.0513802
20
-88.4906775
11
141.0055113
21
-100.4450139
0
ARC
8
0
10
129.1008492
20
-87.3576529
40
1
50
85
51
175
0
ARC
8
0
10
141.0551855
20
-88.4035218
40
1
50
355
51
85
0
ARC
8
0
10
128.0549803
20
-99.3119892
40
1
50
175
51
265
0
ARC
8
0
10
140.0093166
20
-100.3578581
40
1
50
265
51
355
0
LINE
8
0
10
162.3114786
20
-89.106864
11
174.265815
21
-90.1527329
0
LINE
8
0
10
161.0912982
20
-103.0535897
11
173.0456346
21
-104.0994586
0
LINE
8
0
10
161.2281282
20
-90.0159029
11
160.1822593
21
-101.9702393
0
LINE
8
0
10
175.1748539
20
-91.2360833
11
174.128985
21
-103.1904197
0
ARC
8
0
10
162.2243229
20
-90.1030587
40
1
50
85
51
175
0
ARC
8
0
10
174.1786592
20
-91.1489276
40
1
50
355
51
85
0
ARC
8
0
10
161.178454
20
-102.057395
40
1
50
175
51
265
0
ARC
8
0
10
173.1327903
20
-103.1032639
40
1
50
265
51
355
0
LINE
8
0
10
220.4763109
20
-18.2306143
11
232.4306473
21
-17.1847454
0
LINE
8
0
10
221.6964913
20
-32.17734
11
233.6508277
21
-31.1314711
0
LINE
8
0
10
219.567272
20
-19.3139647
11
220.6131409
21
-31.2683011
0
LINE
8
0
10
233.5139977
20
-18.0937843
11
234.5598666
21
-30.0481207
0
ARC
8
0
10
220.5634667
20
-19.226809
40
1
50
95
51
185
0
ARC
8
0
10
232.517803
20
-18.1809401
40
1
50
5
51
95
0
ARC
8
0
10
221.6093356
20
-31.1811453
40
1
50
185
51
275
0
ARC
8
0
10
233.5636719
20
-30.1352764
40
1
50
275
51
5
0
LINE
8
0
10
239.4040102
20
-16.6618109
11
251.3583466
21
-15.615942
0
LINE
8
0
10
240.6241906
20
-30.6085366
11
252.578527
21
-29.5626677
0
LINE
8
0
10
238.4949713
20
-17.7451613
11
239.5408402
21
-29.6994977
0
LINE
8
0
10
252.441697
20
-16.5249809
11
253.4875659
21
-28.4793173
0
ARC
8
0
10
239.491166
20
-17.6580056
40
1
50
95
51
185
0
ARC
8
0
10
251.4455023
20
-16.6121367
40
1
50
5
51
95
0
ARC
8
0
10
240.5370349
20
-29.6123419
40
1
50
185
51
275
0
ARC
8
0
10
252.4913712
20
-28.566473
40
1
50
275
51
5
0
LINE
8
0
10
258.3317095
20
-15.0930075
11
270.2860459
21
-14.0471386
0
LINE
8
0
10
259.5518899
20
-29.0397332
11
271.5062263
21
-27.9938643
0
LINE
8
0
10
257.4226706
20
-16.1763579
11
258.4685395
21
-28.1306943
0
LINE
8
0
10
271.3693963
20
-14.9561775
11
272.4152652
21
-26.9105139
0
ARC
8
0
10
258.4188653
20
-16.0892022
40
1
50
95
51
185
0
ARC
8
0
10
270.3732016
20
-15.0433333
40
1
50
5
51
95
0
ARC
8
0
10
259.4647342
20
-28.0435385
40
1
50
185
51
275
0
ARC
8
0
10
271.4190705
20
-26.9976696
40
1
50
275
51
5
0
LINE
8
0
10
277.2594087
20
-13.5242042
11
289.2137451
21
-12.4783353
0
LINE
8
0
10
278.4795891
20
-27.4709299
11
290.4339255
21
-26.425061
0
LINE
8
0
10
276.3503698
20
-14.6075546
11
277.3962387
21
-26.561891
0
LINE
8
0
10
290.2970955
20
-13.3873742
11
291.3429644
21
-25.3417106
0
ARC
8
0
10
277.3465645
20
-14.5203989
40
1
50
95
51
185
0
ARC
8
0
10
289.3009008
20
-13.47453
40
1
50
5
51
95
0
ARC
8
0
10
278.3924334
20
-26.4747352
40
1
50
185
51
275
0
ARC
8
0
10
290.3467697
20
-25.4288663
40
1
50
275
51
5
0
LINE
8
0
10
296.187108
20
-11.9554008
11
308.1414444
21
-10.9095319
0
LINE
8
0
10
297.4072884
20
-25.9021265
11
309.3616248
21
-24.8562576
0
LINE
8
0
10
295.2780691
20
-13.0387512
11
296.323938
21
-24.9930876
0
LINE
8
0
10
309.2247948
20
-11.8185708
11
310.2706637
21
-23.7729072
0
ARC
8
0
10
296.2742638
20
-12.9515955
40
1
50
95
51
185
0
ARC
8
0
10
308.2286001
20
-11.9057266
40
1
50
5
51
95
0
ARC
8
0
10
297.3201327
20
-24.9059318
40
1
50
185
51
275
0
ARC
8
0
10
309.274469
20
-23.8600629
40
1
50
275
51
5
0
LINE
8
0
10
315.1148073
20
-10.3865974
11
327.0691437
21
-9.3407285
0
LINE
8
0
10
316.3349877
20
-24.3333231
11
328.2893241
21
-23.2874542
0
LINE
8
0
10
314.2057684
20
-11.4699478
11
315.2516373
21
-23.4242842
0
LINE
8
0
10
328.1524941
20
-10.2497674
11
329.198363
21
-22.2041038
0
ARC
8
0
10
315.2019631
20
-11.3827921
40
1
50
95
51
185
0
ARC
8
0
10
327.1562994
20
-10.3369232
40
1
50
5
51
95
0
ARC
8
0
10
316.247832
20
-23.3371284
40
1
50
185
51
275
0
ARC
8
0
10
328.2021683
20
-22.2912595
40
1
50
275
51
5
0
LINE
8
0
10
334.0425065
20
-8.817794
11
345.9968429
21
-7.7719251
0
LINE
8
0
10
335.2626869
20
-22.7645197
11
347.2170233
21
-21.7186508
0
LINE
8
0
10
333.1334676
20
-9.9011444
11
334.1793365
21
-21.8554808
0
LINE
8
0
10
347.0801933
20
-8.680964
11
348.1260622
21
-20.6353004
0
ARC
8
0
10
334.1296623
20
-9.8139887
40
1
50
95
51
185
0
ARC
8
0
10
346.0839986
20
-8.7681198
40
1
50
5
51
95
0
ARC
8
0
10
335.1755312
20
-21.768325
40
1
50
185
51
275
0
ARC
8
0
10
347.1298675
20
-20.7224561
40
1
50
275
51
5
0
LINE
8
0
10
352.9702058
20
-7.2489907
11
364.9245422
21
-6.2031218
0
LINE
8
0
10
354.1903862
20
-21.1957164
11
366.1447226
21
-20.1498475
0
LINE
8
0
10
352.0611669
20
-8.3323411
11
353.1070358
21
-20.2866775
0
LINE
8
0
10
366.0078926
20
-7.1121607
11
367.0537615
21
-19.0664971
0
ARC
8
0
10
353.0573616
20
-8.2451854
40
1
50
95
51
185
0
ARC
8
0
10
365.0116979
20
-7.1993165
40
1
50
5
51
95
0
ARC
8
0
10
354.1032305
20
-20.1995217
40
1
50
185
51
275
0
ARC
8
0
10
366.0575668
20
-19.1536528
40
1
50
275
51
5
0
LINE
8
0
10
371.897905
20
-5.6801873
11
383.8522414
21
-4.6343184
0
LINE
8
0
10
373.1180854
20
-19.626913
11
385.0724218
21
-18.5810441
0
LINE
8
0
10
370.9888661
20
-6.7635377
11
372.034735
21
-18.7178741
0
LINE
8
0
10
384.9355918
20
-5.5433573
11
385.9814607
21
-17.4976937
0
ARC
8
0
10
371.9850608
20
-6.676382
40
1
50
95
51
185
0
ARC
8
0
10
383.9393971
20
-5.6305131
40
1
50
5
51
95
0
ARC
8
0
10
373.0309297
20
-18.6307183
40
1
50
185
51
275
0
ARC
8
0
10
384.985266
20
-17.5848494
40
1
50
275
51
5
0
LINE
8
0
10
212.6684204
20
-36.9465205
11
224.6227568
21
-35.9006516
0
LINE
8
0
10
213.8886008
20
-50.8932462
11
225.8429372
21
-49.8473773
0
LINE
8
0
10
211.7593815
20
-38.0298709
11
212.8052504
21
-49.9842073
0
LINE
8
0
10
225.7061072
20
-36.8096905
11
226.7519761
21
-48.7640269
0
ARC
8
0
10
212.7555762
20
-37.9427152
40
1
50
95
51
185
0
ARC
8
0
10
224.7099125
20
-36.8968463
40
1
50
5
51
95
0
ARC
8
0
10
213.8014451
20
-49.8970515
40
1
50
185
51
275
0
ARC
8
0
10
225.7557814
20
-48.8511826
40
1
50
275
51
5
0
LINE
8
0
10
231.5961197
20
-35.3777171
11
243.5504561
21
-34.3318482
0
LINE
8
0
10
232.8163001
20
-49.3244428
11
244.7706365
21
-48.2785739
0
LINE
8
0
10
230.6870808
20
-36.4610675
11
231.7329497
21
-48.4154039
0
LINE
8
0
10
244.6338065
20
-35.2408871
11
245.6796754
21
-47.1952235
0
ARC
8
0
10
231.6832755
20
-36.3739118
40
1
50
95
51
185
0
ARC
8
0
10
243.6376118
20
-35.3280429
40
1
50
5
51
95
0
ARC
8
0
10
232.7291444
20
-48.3282481
40
1
50
185
51
275
0
ARC
8
0
10
244.6834807
20
-47.2823792
40
1
50
275
51
5
0
LINE
8
0
10
250.5238189
20
-33.8089138
11
262.4781553
21
-32.7630449
0
LINE
8
0
10
251.7439993
20
-47.7556395
11
263.6983357
21
-46.7097706
0
LINE
8
0
10
249.61478
20
-34.8922642
11
250.6606489
21
-46.8466006
0
LINE
8
0
10
263.5615057
20
-33.6720838
11
264.6073746
21
-45.6264202
0
ARC
8
0
10
250.6109747
20
-34.8051085
40
1
50
95
51
185
0
ARC
8
0
10
262.565311
20
-33.7592396
40
1
50
5
51
95
0
ARC
8
0
10
251.6568436
20
-46.7594448
40
1
50
185
51
275
0
ARC
8
0
10
263.6111799
20
-45.7135759
40
1
50
275
51
5
0
LINE
8
0
10
269.4515182
20
-32.2401104
11
281.4058546
21
-31.1942415
0
LINE
8
0
10
270.6716986
20
-46.1868361
11
282.626035
21
-45.1409672
0
LINE
8
0
10
268.5424793
20
-33.3234608
11
269.5883482
21
-45.2777972
0
LINE
8
0
10
282.489205
20
-32.1032804
11
283.5350739
21
-44.0576168
0
ARC
8
0
10
269.538674
20
-33.2363051
40
1
50
95
51
185
0
ARC
8
0
10
281.4930103
20
-32.1904362
40
1
50
5
51
95
0
ARC
8
0
10
270.5845429
20
-45.1906414
40
1
50
185
51
275
0
ARC
8
0
10
282.5388792
20
-44.1447725
40
1
50
275
51
5
0
LINE
8
0
10
288.3792175
20
-30.671307
11
300.3335539
21
-29.6254381
0
LINE
8
0
10
289.5993979
20
-44.6180327
11
301.5537343
21
-43.5721638
0
LINE
8
0
10
287.4701786
20
-31.7546574
11
288.5160475
21
-43.7089938
0
LINE
8
0
10
301.4169043
20
-30.534477
11
302.4627732
21
-42.4888134
0
ARC
8
0
10
288.4663733
20
-31.6675017
40
1
50
95
51
185
0
ARC
8
0
10
300.4207096
20
-30.6216328
40
1
50
5
51
95
0
ARC
8
0
10
289.5122422
20
-43.621838
40
1
50
185
51
275
0
ARC
8
0
10
301.4665785
20
-42.5759691
40
1
50
275
51
5
0
LINE
8
0
10
307.3069167
20
-29.1025037
11
319.2612531
21
-28.0566348
0
LINE
8
0
10
308.5270971
20
-43.0492294
11
320.4814335
21
-42.0033605
0
LINE
8
0
10
306.3978778
20
-30.1858541
11
307.4437467
21
-42.1401905
0
LINE
8
0
10
320.3446035
20
-28.9656737
11
321.3904724
21
-40.9200101
0
ARC
8
0
10
307.3940725
20
-30.0986984
40
1
50
95
51
185
0
ARC
8
0
10
319.3484088
20
-29.0528295
40
1
50
5
51
95
0
ARC
8
0
10
308.4399414
20
-42.0530347
40
1
50
185
51
275
0
ARC
8
0
10
320.3942777
20
-41.0071658
40
1
50
275
51
5
0
LINE
8
0
10
326.234616
20
-27.5337003
11
338.1889524
21
-26.4878314
0
LINE
8
0
10
327.4547964
20
-41.480426
11
339.4091328
21
-40.4345571
0
LINE
8
0
10
325.3255771
20
-28.6170507
11
326.371446
21
-40.5713871
0
LINE
8
0
10
339.2723028
20
-27.3968703
11
340.3181717
21
-39.3512067
0
ARC
8
0
10
326.3217718
20
-28.529895
40
1
50
95
51
185
0
ARC
8
0
10
338.2761081
20
-27.4840261
40
1
50
5
51
95
0
ARC
8
0
10
327.3676407
20
-40.4842313
40
1
50
185
51
275
0
ARC
8
0
10
339.321977
20
-39.4383624
40
1
50
275
51
5
0
LINE
8
0
10
349.8942401
20
-25.5726961
11
361.8485765
21
-24.5268272
0
LINE
8
0
10
351.1144205
20
-39.5194218
11
363.0687569
21
-38.4735529
0
LINE
8
0
10
348.9852012
20
-26.6560465
11
350.0310701
21
-38.6103829
0
LINE
8
0
10
362.9319269
20
-25.4358661
11
363.9777958
21
-37.3902025
0
ARC
8
0
10
349.9813959
20
-26.5688908
40
1
50
95
51
185
0
ARC
8
0
10
361.9357322
20
-25.5230219
40
1
50
5
51
95
0
ARC
8
0
10
351.0272648
20
-38.5232271
40
1
50
185
51
275
0
ARC
8
0
10
362.9816011
20
-37.4773582
40
1
50
275
51
5
0
LINE
8
0
10
373.5538642
20
-23.6116919
11
385.5082006
21
-22.565823
0
LINE
8
0
10
374.7740446
20
-37.5584176
11
386.728381
21
-36.5125487
0
LINE
8
0
10
372.6448253
20
-24.6950423
11
373.6906942
21
-36.6493787
0
LINE
8
0
10
386.591551
20
-23.4748619
11
387.6374199
21
-35.4291983
0
ARC
8
0
10
373.64102
20
-24.6078866
40
1
50
95
51
185
0
ARC
8
0
10
385.5953563
20
-23.5620177
40
1
50
5
51
95
0
ARC
8
0
10
374.6868889
20
-36.5622229
40
1
50
185
51
275
0
ARC
8
0
10
386.6412252
20
-35.516354
40
1
50
275
51
5
0
LINE
8
0
10
219.0563043
20
-54.4858242
11
231.0106407
21
-53.4399553
0
LINE
8
0
10
220.2764847
20
-68.4325499
11
232.2308211
21
-67.386681
0
LINE
8
0
10
218.1472654
20
-55.5691746
11
219.1931343
21
-67.523511
0
LINE
8
0
10
232.0939911
20
-54.3489942
11
233.13986
21
-66.3033306
0
ARC
8
0
10
219.1434601
20
-55.4820189
40
1
50
95
51
185
0
ARC
8
0
10
231.0977964
20
-54.43615
40
1
50
5
51
95
0
ARC
8
0
10
220.189329
20
-67.4363552
40
1
50
185
51
275
0
ARC
8
0
10
232.1436653
20
-66.3904863
40
1
50
275
51
5
0
LINE
8
0
10
237.9840036
20
-52.9170209
11
249.93834
21
-51.871152
0
LINE
8
0
10
239.204184
20
-66.8637466
11
251.1585204
21
-65.8178777
0
LINE
8
0
10
237.0749647
20
-54.0003713
11
238.1208336
21
-65.9547077
0
LINE
8
0
10
251.0216904
20
-52.7801909
11
252.0675593
21
-64.7345273
0
ARC
8
0
10
238.0711594
20
-53.9132156
40
1
50
95
51
185
0
ARC
8
0
10
250.0254957
20
-52.8673467
40
1
50
5
51
95
0
ARC
8
0
10
239.1170283
20
-65.8675519
40
1
50
185
51
275
0
ARC
8
0
10
251.0713646
20
-64.821683
40
1
50
275
51
5
0
LINE
8
0
10
256.9117029
20
-51.3482175
11
268.8660393
21
-50.3023486
0
LINE
8
0
10
258.1318833
20
-65.2949432
11
270.0862197
21
-64.2490743
0
LINE
8
0
10
256.002664
20
-52.4315679
11
257.0485329
21
-64.3859043
0
LINE
8
0
10
269.9493897
20
-51.2113875
11
270.9952586
21
-63.1657239
0
ARC
8
0
10
256.9988587
20
-52.3444122
40
1
50
95
51
185
0
ARC
8
0
10
268.953195
20
-51.2985433
40
1
50
5
51
95
0
ARC
8
0
10
258.0447276
20
-64.2987485
40
1
50
185
51
275
0
ARC
8
0
10
269.9990639
20
-63.2528796
40
1
50
275
51
5
0
LINE
8
0
10
275.8394021
20
-49.7794141
11
287.7937385
21
-48.7335452
0
LINE
8
0
10
277.0595825
20
-63.7261398
11
289.0139189
21
-62.6802709
0
LINE
8
0
10
274.9303632
20
-50.8627645
11
275.9762321
21
-62.8171009
0
LINE
8
0
10
288.8770889
20
-49.6425841
11
289.9229578
21
-61.5969205
0
ARC
8
0
10
275.9265579
20
-50.7756088
40
1
50
95
51
185
0
ARC
8
0
10
287.8808942
20
-49.7297399
40
1
50
5
51
95
0
ARC
8
0
10
276.9724268
20
-62.7299451
40
1
50
185
51
275
0
ARC
8
0
10
288.9267631
20
-61.6840762
40
1
50
275
51
5
0
LINE
8
0
10
294.7671014
20
-48.2106108
11
306.7214378
21
-47.1647419
0
LINE
8
0
10
295.9872818
20
-62.1573365
11
307.9416182
21
-61.1114676
0
LINE
8
0
10
293.8580625
20
-49.2939612
11
294.9039314
21
-61.2482976
0
LINE
8
0
10
307.8047882
20
-48.0737808
11
308.8506571
21
-60.0281172
0
ARC
8
0
10
294.8542572
20
-49.2068055
40
1
50
95
51
185
0
ARC
8
0
10
306.8085935
20
-48.1609366
40
1
50
5
51
95
0
ARC
8
0
10
295.9001261
20
-61.1611418
40
1
50
185
51
275
0
ARC
8
0
10
307.8544624
20
-60.1152729
40
1
50
275
51
5
0
LINE
8
0
10
313.6948007
20
-46.6418074
11
325.6491371
21
-45.5959385
0
LINE
8
0
10
314.9149811
20
-60.5885331
11
326.8693175
21
-59.5426642
0
LINE
8
0
10
312.7857618
20
-47.7251578
11
313.8316307
21
-59.6794942
0
LINE
8
0
10
326.7324875
20
-46.5049774
11
327.7783564
21
-58.4593138
0
ARC
8
0
10
313.7819565
20
-47.6380021
40
1
50
95
51
185
0
ARC
8
0
10
325.7362928
20
-46.5921332
40
1
50
5
51
95
0
ARC
8
0
10
314.8278254
20
-59.5923384
40
1
50
185
51
275
0
ARC
8
0
10
326.7821617
20
-58.5464695
40
1
50
275
51
5
0
LINE
8
0
10
344.452312
20
-44.0925019
11
356.4066484
21
-43.046633
0
LINE
8
0
10
345.6724924
20
-58.0392276
11
357.6268288
21
-56.9933587
0
LINE
8
0
10
343.5432731
20
-45.1758523
11
344.589142
21
-57.1301887
0
LINE
8
0
10
357.4899988
20
-43.9556719
11
358.5358677
21
-55.9100083
0
ARC
8
0
10
344.5394678
20
-45.0886966
40
1
50
95
51
185
0
ARC
8
0
10
356.4938041
20
-44.0428277
40
1
50
5
51
95
0
ARC
8
0
10
345.5853367
20
-57.0430329
40
1
50
185
51
275
0
ARC
8
0
10
357.539673
20
-55.997164
40
1
50
275
51
5
0
LINE
8
0
10
375.2098233
20
-41.5431964
11
387.1641597
21
-40.4973275
0
LINE
8
0
10
376.4300037
20
-55.4899221
11
388.3843401
21
-54.4440532
0
LINE
8
0
10
374.3007844
20
-42.6265468
11
375.3466533
21
-54.5808832
0
LINE
8
0
10
388.2475101
20
-41.4063664
11
389.293379
21
-53.3607028
0
ARC
8
0
10
375.2969791
20
-42.5393911
40
1
50
95
51
185
0
ARC
8
0
10
387.2513154
20
-41.4935222
40
1
50
5
51
95
0
ARC
8
0
10
376.342848
20
-54.4937274
40
1
50
185
51
275
0
ARC
8
0
10
388.2971843
20
-53.4478585
40
1
50
275
51
5
0
LINE
8
0
10
230.1761131
20
-71.6329271
11
242.1304495
21
-70.5870582
0
LINE
8
0
10
231.3962935
20
-85.5796528
11
243.3506299
21
-84.5337839
0
LINE
8
0
10
229.2670742
20
-72.7162775
11
230.3129431
21
-84.6706139
0
LINE
8
0
10
243.2137999
20
-71.4960971
11
244.2596688
21
-83.4504335
0
ARC
8
0
10
230.2632689
20
-72.6291218
40
1
50
95
51
185
0
ARC
8
0
10
242.2176052
20
-71.5832529
40
1
50
5
51
95
0
ARC
8
0
10
231.3091378
20
-84.5834581
40
1
50
185
51
275
0
ARC
8
0
10
243.2634741
20
-83.5375892
40
1
50
275
51
5
0
LINE
8
0
10
249.1038124
20
-70.0641237
11
261.0581488
21
-69.0182548
0
LINE
8
0
10
250.3239928
20
-84.0108494
11
262.2783292
21
-82.9649805
0
LINE
8
0
10
248.1947735
20
-71.1474741
11
249.2406424
21
-83.1018105
0
LINE
8
0
10
262.1414992
20
-69.9272937
11
263.1873681
21
-81.8816301
0
ARC
8
0
10
249.1909682
20
-71.0603184
40
1
50
95
51
185
0
ARC
8
0
10
261.1453045
20
-70.0144495
40
1
50
5
51
95
0
ARC
8
0
10
250.2368371
20
-83.0146547
40
1
50
185
51
275
0
ARC
8
0
10
262.1911734
20
-81.9687858
40
1
50
275
51
5
0
LINE
8
0
10
268.0315116
20
-68.4953204
11
279.985848
21
-67.4494515
0
LINE
8
0
10
269.251692
20
-82.4420461
11
281.2060284
21
-81.3961772
0
LINE
8
0
10
267.1224727
20
-69.5786708
11
268.1683416
21
-81.5330072
0
LINE
8
0
10
281.0691984
20
-68.3584904
11
282.1150673
21
-80.3128268
0
ARC
8
0
10
268.1186674
20
-69.4915151
40
1
50
95
51
185
0
ARC
8
0
10
280.0730037
20
-68.4456462
40
1
50
5
51
95
0
ARC
8
0
10
269.1645363
20
-81.4458514
40
1
50
185
51
275
0
ARC
8
0
10
281.1188726
20
-80.3999825
40
1
50
275
51
5
0
LINE
8
0
10
286.9592109
20
-66.926517
11
298.9135473
21
-65.8806481
0
LINE
8
0
10
288.1793913
20
-80.8732427
11
300.1337277
21
-79.8273738
0
LINE
8
0
10
286.050172
20
-68.0098674
11
287.0960409
21
-79.9642038
0
LINE
8
0
10
299.9968977
20
-66.789687
11
301.0427666
21
-78.7440234
0
ARC
8
0
10
287.0463667
20
-67.9227117
40
1
50
95
51
185
0
ARC
8
0
10
299.000703
20
-66.8768428
40
1
50
5
51
95
0
ARC
8
0
10
288.0922356
20
-79.877048
40
1
50
185
51
275
0
ARC
8
0
10
300.0465719
20
-78.8311791
40
1
50
275
51
5
0
LINE
8
0
10
305.8869101
20
-65.3577136
11
317.8412465
21
-64.3118447
0
LINE
8
0
10
307.1070905
20
-79.3044393
11
319.0614269
21
-78.2585704
0
LINE
8
0
10
304.9778712
20
-66.441064
11
306.0237401
21
-78.3954004
0
LINE
8
0
10
318.9245969
20
-65.2208836
11
319.9704658
21
-77.17522
0
ARC
8
0
10
305.9740659
20
-66.3539083
40
1
50
95
51
185
0
ARC
8
0
10
317.9284022
20
-65.3080394
40
1
50
5
51
95
0
ARC
8
0
10
307.0199348
20
-78.3082446
40
1
50
185
51
275
0
ARC
8
0
10
318.9742711
20
-77.2623757
40
1
50
275
51
5
0
LINE
8
0
10
331.9124966
20
-63.200609
11
343.866833
21
-62.1547401
0
LINE
8
0
10
333.132677
20
-77.1473347
11
345.0870134
21
-76.1014658
0
LINE
8
0
10
331.0034577
20
-64.2839594
11
332.0493266
21
-76.2382958
0
LINE
8
0
10
344.9501834
20
-63.063779
11
345.9960523
21
-75.0181154
0
ARC
8
0
10
331.9996524
20
-64.1968037
40
1
50
95
51
185
0
ARC
8
0
10
343.9539887
20
-63.1509348
40
1
50
5
51
95
0
ARC
8
0
10
333.0455213
20
-76.15114
40
1
50
185
51
275
0
ARC
8
0
10
344.9998576
20
-75.1052711
40
1
50
275
51
5
0
LINE
8
0
10
357.9380831
20
-61.0435044
11
369.8924195
21
-59.9976355
0
LINE
8
0
10
359.1582635
20
-74.9902301
11
371.1125999
21
-73.9443612
0
LINE
8
0
10
357.0290442
20
-62.1268548
11
358.0749131
21
-74.0811912
0
LINE
8
0
10
370.9757699
20
-60.9066744
11
372.0216388
21
-72.8610108
0
ARC
8
0
10
358.0252389
20
-62.0396991
40
1
50
95
51
185
0
ARC
8
0
10
369.9795752
20
-60.9938302
40
1
50
5
51
95
0
ARC
8
0
10
359.0711078
20
-73.9940354
40
1
50
185
51
275
0
ARC
8
0
10
371.0254441
20
-72.9481665
40
1
50
275
51
5
0
LINE
8
0
10
376.8657824
20
-59.474701
11
388.8201188
21
-58.4288321
0
LINE
8
0
10
378.0859628
20
-73.4214267
11
390.0402992
21
-72.3755578
0
LINE
8
0
10
375.9567435
20
-60.5580514
11
377.0026124
21
-72.5123878
0
LINE
8
0
10
389.9034692
20
-59.337871
11
390.9493381
21
-71.2922074
0
ARC
8
0
10
376.9529382
20
-60.4708957
40
1
50
95
51
185
0
ARC
8
0
10
388.9072745
20
-59.4250268
40
1
50
5
51
95
0
ARC
8
0
10
377.9988071
20
-72.425232
40
1
50
185
51
275
0
ARC
8
0
10
389.9531434
20
-71.3793631
40
1
50
275
51
5
0
LINE
8
0
10
243.6618842
20
-88.5839296
11
255.6162206
21
-87.5380607
0
LINE
8
0
10
244.8820646
20
-102.5306553
11
256.836401
21
-101.4847864
0
LINE
8
0
10
242.7528453
20
-89.66728
11
243.7987142
21
-101.6216164
0
LINE
8
0
10
256.699571
20
-88.4470996
11
257.7454399
21
-100.401436
0
ARC
8
0
10
243.74904
20
-89.5801243
40
1
50
95
51
185
0
ARC
8
0
10
255.7033763
20
-88.5342554
40
1
50
5
51
95
0
ARC
8
0
10
244.7949089
20
-101.5344606
40
1
50
185
51
275
0
ARC
8
0
10
256.7492452
20
-100.4885917
40
1
50
275
51
5
0
LINE
8
0
10
276.785358
20
-85.8385237
11
288.7396944
21
-84.7926548
0
LINE
8
0
10
278.0055384
20
-99.7852494
11
289.9598748
21
-98.7393805
0
LINE
8
0
10
275.8763191
20
-86.9218741
11
276.922188
21
-98.8762105
0
LINE
8
0
10
289.8230448
20
-85.7016937
11
290.8689137
21
-97.6560301
0
ARC
8
0
10
276.8725138
20
-86.8347184
40
1
50
95
51
185
0
ARC
8
0
10
288.8268501
20
-85.7888495
40
1
50
5
51
95
0
ARC
8
0
10
277.9183827
20
-98.7890547
40
1
50
185
51
275
0
ARC
8
0
10
289.872719
20
-97.7431858
40
1
50
275
51
5
0
LINE
8
0
10
298.0790196
20
-84.0736199
11
310.033356
21
-83.027751
0
LINE
8
0
10
299.2992
20
-98.0203456
11
311.2535364
21
-96.9744767
0
LINE
8
0
10
297.1699807
20
-85.1569703
11
298.2158496
21
-97.1113067
0
LINE
8
0
10
311.1167064
20
-83.9367899
11
312.1625753
21
-95.8911263
0
ARC
8
0
10
298.1661754
20
-85.0698146
40
1
50
95
51
185
0
ARC
8
0
10
310.1205117
20
-84.0239457
40
1
50
5
51
95
0
ARC
8
0
10
299.2120443
20
-97.0241509
40
1
50
185
51
275
0
ARC
8
0
10
311.1663806
20
-95.978282
40
1
50
275
51
5
0
LINE
8
0
10
317.0067189
20
-82.5048165
11
328.9610553
21
-81.4589476
0
LINE
8
0
10
318.2268993
20
-96.4515422
11
330.1812357
21
-95.4056733
0
LINE
8
0
10
316.09768
20
-83.5881669
11
317.1435489
21
-95.5425033
0
LINE
8
0
10
330.0444057
20
-82.3679865
11
331.0902746
21
-94.3223229
0
ARC
8
0
10
317.0938747
20
-83.5010112
40
1
50
95
51
185
0
ARC
8
0
10
329.048211
20
-82.4551423
40
1
50
5
51
95
0
ARC
8
0
10
318.1397436
20
-95.4553475
40
1
50
185
51
275
0
ARC
8
0
10
330.0940799
20
-94.4094786
40
1
50
275
51
5
0
LINE
8
0
10
340.666343
20
-80.5438123
11
352.6206794
21
-79.4979434
0
LINE
8
0
10
341.8865234
20
-94.490538
11
353.8408598
21
-93.4446691
0
LINE
8
0
10
339.7573041
20
-81.6271627
11
340.803173
21
-93.5814991
0
LINE
8
0
10
353.7040298
20
-80.4069823
11
354.7498987
21
-92.3613187
0
ARC
8
0
10
340.7534988
20
-81.540007
40
1
50
95
51
185
0
ARC
8
0
10
352.7078351
20
-80.4941381
40
1
50
5
51
95
0
ARC
8
0
10
341.7993677
20
-93.4943433
40
1
50
185
51
275
0
ARC
8
0
10
353.753704
20
-92.4484744
40
1
50
275
51
5
0
LINE
8
0
10
359.5940422
20
-78.9750089
11
371.5483786
21
-77.92914
0
LINE
8
0
10
360.8142226
20
-92.9217346
11
372.768559
21
-91.8758657
0
LINE
8
0
10
358.6850033
20
-80.0583593
11
359.7308722
21
-92.0126957
0
LINE
8
0
10
372.631729
20
-78.8381789
11
373.6775979
21
-90.7925153
0
ARC
8
0
10
359.681198
20
-79.9712036
40
1
50
95
51
185
0
ARC
8
0
10
371.6355343
20
-78.9253347
40
1
50
5
51
95
0
ARC
8
0
10
360.7270669
20
-91.9255399
40
1
50
185
51
275
0
ARC
8
0
10
372.6814032
20
-90.879671
40
1
50
275
51
5
0
LINE
8
0
10
378.5217415
20
-77.4062056
11
390.4760779
21
-76.3603367
0
LINE
8
0
10
379.7419219
20
-91.3529313
11
391.6962583
21
-90.3070624
0
LINE
8
0
10
377.6127026
20
-78.489556
11
378.6585715
21
-90.4438924
0
LINE
8
0
10
391.5594283
20
-77.2693756
11
392.6052972
21
-89.223712
0
ARC
8
0
10
378.6088973
20
-78.4024003
40
1
50
95
51
185
0
ARC
8
0
10
390.5632336
20
-77.3565314
40
1
50
5
51
95
0
ARC
8
0
10
379.6547662
20
-90.3567366
40
1
50
185
51
275
0
ARC
8
0
10
391.6091025
20
-89.3108677
40
1
50
275
51
5
0
LINE
8
0
10
9.1229249
20
-105.6031613
11
394.6089999
21
-105.6031613
0
LINE
8
0
10
9.1229249
20
-3.1306157
11
394.6089999
21
-3.1306157
0
LINE
8
0
10
9.1229249
20
-105.6031613
11
9.1229249
21
-3.1306157
0
LINE
8
0
10
394.6089999
20
-105.6031613
11
394.6089999
21
-3.1306157
0
ENDSEC
0
EOF