<?xml version="1.0" standalone="no"?>
 <!DOCTYPE svg PUBLIC "-//W3C//DTD SVG 1.1//EN" 
 "http://www.w3.org/Graphics/SVG/1.1/DTD/svg11.dtd"> 
<svg
  xmlns:svg="http://www.w3.org/2000/svg"
  xmlns="http://www.w3.org/2000/svg"
  xmlns:xlink="http://www.w3.org/1999/xlink"
  version="1.1"
  width="34.503360cm" height="10.005060cm" viewBox="0 0 345033600 100050600">
<title>SVG Picture created as halfjunk-B_Courtyard.svg date 2022/08/22 12:09:22 </title>
  <desc>Picture generated by PCBNEW </desc>
<g style="fill:#000000; fill-opacity:1.000000;stroke:#000000; stroke-opacity:1.000000;
stroke-linecap:round; stroke-linejoin:round;"
 transform="translate(0 0) scale(1 1)">
</g>
<g style="fill:#000000; fill-opacity:0.0; 
stroke:#000000; stroke-width:0.000000; stroke-opacity:1; 
stroke-linecap:round; stroke-linejoin:round;">
</g>
<g style="fill:#26E9FF; fill-opacity:0.0; 
stroke:#26E9FF; stroke-width:0.000000; stroke-opacity:1; 
stroke-linecap:round; stroke-linejoin:round;">
</g>
<g style="fill:#26E9FF; fill-opacity:0.0; 
stroke:#26E9FF; stroke-width:50000.000000; stroke-opacity:1; 
stroke-linecap:round; stroke-linejoin:round;">
<path d="M287155000 21101250
L287155000 22961250
" />
<path d="M288095000 22961250
L288095000 21101250
" />
<path d="M287155000 22961250
L288095000 22961250
" />
<path d="M288095000 21101250
L287155000 21101250
" />
<path d="M-107100000 45306250
L-103900000 45306250
" />
<path d="M-107100000 45306250
L-107100000 48706250
" />
<path d="M-103900000 48706250
L-107100000 48706250
" />
<path d="M-103900000 48706250
L-103900000 45306250
" />
<path d="M266455000 156491250
L266455000 155571250
" />
<path d="M266455000 155571250
L264635000 155571250
" />
<path d="M264635000 156491250
L266455000 156491250
" />
<path d="M264635000 155571250
L264635000 156491250
" />
<path d="M163845000 178611250
L165665000 178611250
" />
<path d="M163845000 177691250
L163845000 178611250
" />
<path d="M165665000 178611250
L165665000 177691250
" />
<path d="M165665000 177691250
L163845000 177691250
" />
<path d="M149495000 183601250
L149495000 184521250
" />
<path d="M149495000 184521250
L151315000 184521250
" />
<path d="M151315000 184521250
L151315000 183601250
" />
<path d="M151315000 183601250
L149495000 183601250
" />
<path d="M158105000 177691250
L158105000 178611250
" />
<path d="M158105000 178611250
L159925000 178611250
" />
<path d="M159925000 177691250
L158105000 177691250
" />
<path d="M159925000 178611250
L159925000 177691250
" />
<path d="M-164950000 21656250
L-170050000 21656250
" />
<path d="M-170050000 21656250
L-170050000 18356250
" />
<path d="M-164950000 18356250
L-164950000 21656250
" />
<path d="M-170050000 18356250
L-164950000 18356250
" />
<path d="M151315000 185571250
L149495000 185571250
" />
<path d="M149495000 186491250
L151315000 186491250
" />
<path d="M151315000 186491250
L151315000 185571250
" />
<path d="M149495000 185571250
L149495000 186491250
" />
<path d="M-154430000 21536250
L-154430000 22476250
" />
<path d="M-152570000 21536250
L-154430000 21536250
" />
<path d="M-152570000 22476250
L-152570000 21536250
" />
<path d="M-154430000 22476250
L-152570000 22476250
" />
<path d="M358655000 238831250
L358655000 242131250
" />
<path d="M353555000 238831250
L358655000 238831250
" />
<path d="M358655000 242131250
L353555000 242131250
" />
<path d="M353555000 242131250
L353555000 238831250
" />
<path d="M352805000 242771250
L352805000 241831250
" />
<path d="M350945000 242771250
L352805000 242771250
" />
<path d="M352805000 241831250
L350945000 241831250
" />
<path d="M350945000 241831250
L350945000 242771250
" />
<path d="M-158430000 17536250
L-158430000 18476250
" />
<path d="M-156570000 18476250
L-156570000 17536250
" />
<path d="M-156570000 17536250
L-158430000 17536250
" />
<path d="M-158430000 18476250
L-156570000 18476250
" />
<path d="M394595000 286951250
L394595000 286031250
" />
<path d="M392775000 286031250
L392775000 286951250
" />
<path d="M394595000 286031250
L392775000 286031250
" />
<path d="M392775000 286951250
L394595000 286951250
" />
<path d="M380105000 271031250
L380105000 267731250
" />
<path d="M380105000 267731250
L385205000 267731250
" />
<path d="M385205000 271031250
L380105000 271031250
" />
<path d="M385205000 267731250
L385205000 271031250
" />
<path d="M-106050000 14356250
L-100950000 14356250
" />
<path d="M-100950000 14356250
L-100950000 17656250
" />
<path d="M-106050000 17656250
L-106050000 14356250
" />
<path d="M-100950000 17656250
L-106050000 17656250
" />
<path d="M355955000 248081250
L355955000 247161250
" />
<path d="M355955000 247161250
L354135000 247161250
" />
<path d="M354135000 247161250
L354135000 248081250
" />
<path d="M354135000 248081250
L355955000 248081250
" />
<path d="M-170050000 15656250
L-170050000 12356250
" />
<path d="M-164950000 12356250
L-164950000 15656250
" />
<path d="M-170050000 12356250
L-164950000 12356250
" />
<path d="M-164950000 15656250
L-170050000 15656250
" />
<path d="M-88050000 14356250
L-82950000 14356250
" />
<path d="M-82950000 17656250
L-88050000 17656250
" />
<path d="M-88050000 17656250
L-88050000 14356250
" />
<path d="M-82950000 14356250
L-82950000 17656250
" />
<path d="M429855000 304181250
L434555000 304181250
" />
<path d="M434555000 301881250
L434555000 304181250
" />
<path d="M429855000 301881250
L429855000 304181250
" />
<path d="M434555000 301881250
L429855000 301881250
" />
<path d="M349455000 224331250
L349455000 226631250
" />
<path d="M354155000 224331250
L354155000 226631250
" />
<path d="M349455000 226631250
L354155000 226631250
" />
<path d="M354155000 224331250
L349455000 224331250
" />
<path d="M348405000 220981250
L348405000 223281250
" />
<path d="M343705000 223281250
L348405000 223281250
" />
<path d="M343705000 220981250
L343705000 223281250
" />
<path d="M348405000 220981250
L343705000 220981250
" />
<path d="M-137420000 47306250
L-133580000 47306250
" />
<path d="M-137420000 50706250
L-137420000 47306250
" />
<path d="M-133580000 47306250
L-133580000 50706250
" />
<path d="M-133580000 50706250
L-137420000 50706250
" />
<path d="M336305000 214131250
L331205000 214131250
" />
<path d="M331205000 214131250
L331205000 210831250
" />
<path d="M331205000 210831250
L336305000 210831250
" />
<path d="M336305000 210831250
L336305000 214131250
" />
<path d="M278225000 3681250
L278225000 7881250
" />
<path d="M274825000 7881250
L274825000 3681250
" />
<path d="M274825000 3681250
L278225000 3681250
" />
<path d="M278225000 7881250
L274825000 7881250
" />
<path d="M403905000 283981250
L408605000 283981250
" />
<path d="M408605000 281681250
L403905000 281681250
" />
<path d="M403905000 281681250
L403905000 283981250
" />
<path d="M408605000 281681250
L408605000 283981250
" />
<path d="M-69050000 30656250
L-69050000 27356250
" />
<path d="M-63950000 30656250
L-69050000 30656250
" />
<path d="M-69050000 27356250
L-63950000 27356250
" />
<path d="M-63950000 27356250
L-63950000 30656250
" />
<path d="M158105000 185571250
L158105000 186491250
" />
<path d="M159925000 185571250
L158105000 185571250
" />
<path d="M158105000 186491250
L159925000 186491250
" />
<path d="M159925000 186491250
L159925000 185571250
" />
<path d="M269325000 148611250
L269325000 147691250
" />
<path d="M269325000 147691250
L267505000 147691250
" />
<path d="M267505000 148611250
L269325000 148611250
" />
<path d="M267505000 147691250
L267505000 148611250
" />
<path d="M149495000 177691250
L149495000 178611250
" />
<path d="M151315000 178611250
L151315000 177691250
" />
<path d="M149495000 178611250
L151315000 178611250
" />
<path d="M151315000 177691250
L149495000 177691250
" />
<path d="M263585000 147691250
L261765000 147691250
" />
<path d="M261765000 147691250
L261765000 148611250
" />
<path d="M261765000 148611250
L263585000 148611250
" />
<path d="M263585000 148611250
L263585000 147691250
" />
<path d="M-119430000 21476250
L-117570000 21476250
" />
<path d="M-117570000 20536250
L-119430000 20536250
" />
<path d="M-119430000 20536250
L-119430000 21476250
" />
<path d="M-117570000 21476250
L-117570000 20536250
" />
<path d="M-149590000 17546250
L-151410000 17546250
" />
<path d="M-151410000 18466250
L-149590000 18466250
" />
<path d="M-149590000 18466250
L-149590000 17546250
" />
<path d="M-151410000 17546250
L-151410000 18466250
" />
<path d="M330255000 197431250
L330255000 199731250
" />
<path d="M330255000 197431250
L325555000 197431250
" />
<path d="M325555000 197431250
L325555000 199731250
" />
<path d="M325555000 199731250
L330255000 199731250
" />
<path d="M272195000 155571250
L270375000 155571250
" />
<path d="M270375000 155571250
L270375000 156491250
" />
<path d="M270375000 156491250
L272195000 156491250
" />
<path d="M272195000 156491250
L272195000 155571250
" />
<path d="M-151430000 51536250
L-151430000 52476250
" />
<path d="M-149570000 51536250
L-151430000 51536250
" />
<path d="M-149570000 52476250
L-149570000 51536250
" />
<path d="M-151430000 52476250
L-149570000 52476250
" />
<path d="M-90950000 7356250
L-90950000 10656250
" />
<path d="M-96050000 7356250
L-90950000 7356250
" />
<path d="M-96050000 10656250
L-96050000 7356250
" />
<path d="M-90950000 10656250
L-96050000 10656250
" />
<path d="M379655000 263381250
L379655000 266681250
" />
<path d="M374555000 266681250
L374555000 263381250
" />
<path d="M379655000 266681250
L374555000 266681250
" />
<path d="M374555000 263381250
L379655000 263381250
" />
<path d="M-116050000 52656250
L-116050000 49356250
" />
<path d="M-110950000 49356250
L-110950000 52656250
" />
<path d="M-116050000 49356250
L-110950000 49356250
" />
<path d="M-110950000 52656250
L-116050000 52656250
" />
<path d="M-138590000 17546250
L-140410000 17546250
" />
<path d="M-140410000 17546250
L-140410000 18466250
" />
<path d="M-140410000 18466250
L-138590000 18466250
" />
<path d="M-138590000 18466250
L-138590000 17546250
" />
<path d="M-114050000 31656250
L-114050000 28356250
" />
<path d="M-108950000 28356250
L-108950000 31656250
" />
<path d="M-108950000 31656250
L-114050000 31656250
" />
<path d="M-114050000 28356250
L-108950000 28356250
" />
<path d="M264635000 147691250
L264635000 148611250
" />
<path d="M266455000 147691250
L264635000 147691250
" />
<path d="M266455000 148611250
L266455000 147691250
" />
<path d="M264635000 148611250
L266455000 148611250
" />
<path d="M320865000 212881250
L320865000 209481250
" />
<path d="M324705000 212881250
L320865000 212881250
" />
<path d="M320865000 209481250
L324705000 209481250
" />
<path d="M324705000 209481250
L324705000 212881250
" />
<path d="M380055000 247981250
L375355000 247981250
" />
<path d="M375355000 250281250
L380055000 250281250
" />
<path d="M375355000 247981250
L375355000 250281250
" />
<path d="M380055000 247981250
L380055000 250281250
" />
<path d="M425305000 301831250
L420205000 301831250
" />
<path d="M420205000 301831250
L420205000 298531250
" />
<path d="M420205000 298531250
L425305000 298531250
" />
<path d="M425305000 298531250
L425305000 301831250
" />
<path d="M-94150000 42856250
L-94150000 45156250
" />
<path d="M-98850000 45156250
L-94150000 45156250
" />
<path d="M-98850000 42856250
L-98850000 45156250
" />
<path d="M-94150000 42856250
L-98850000 42856250
" />
<path d="M-125150000 20856250
L-129850000 20856250
" />
<path d="M-125150000 20856250
L-125150000 23156250
" />
<path d="M-129850000 20856250
L-129850000 23156250
" />
<path d="M-129850000 23156250
L-125150000 23156250
" />
<path d="M-88150000 43856250
L-88150000 46156250
" />
<path d="M-88150000 43856250
L-92850000 43856250
" />
<path d="M-92850000 46156250
L-88150000 46156250
" />
<path d="M-92850000 43856250
L-92850000 46156250
" />
<path d="M162795000 178611250
L162795000 177691250
" />
<path d="M162795000 177691250
L160975000 177691250
" />
<path d="M160975000 178611250
L162795000 178611250
" />
<path d="M160975000 177691250
L160975000 178611250
" />
<path d="M-158570000 26476250
L-158570000 25536250
" />
<path d="M-158570000 25536250
L-160430000 25536250
" />
<path d="M-160430000 26476250
L-158570000 26476250
" />
<path d="M-160430000 25536250
L-160430000 26476250
" />
<path d="M267505000 153601250
L267505000 154521250
" />
<path d="M269325000 154521250
L269325000 153601250
" />
<path d="M269325000 153601250
L267505000 153601250
" />
<path d="M267505000 154521250
L269325000 154521250
" />
<path d="M-60050000 4356250
L-54950000 4356250
" />
<path d="M-54950000 7656250
L-60050000 7656250
" />
<path d="M-54950000 4356250
L-54950000 7656250
" />
<path d="M-60050000 7656250
L-60050000 4356250
" />
<path d="M-129430000 17536250
L-129430000 18476250
" />
<path d="M-129430000 18476250
L-127570000 18476250
" />
<path d="M-127570000 17536250
L-129430000 17536250
" />
<path d="M-127570000 18476250
L-127570000 17536250
" />
<path d="M267505000 158461250
L269325000 158461250
" />
<path d="M269325000 157541250
L267505000 157541250
" />
<path d="M269325000 158461250
L269325000 157541250
" />
<path d="M267505000 157541250
L267505000 158461250
" />
<path d="M325005000 208431250
L319905000 208431250
" />
<path d="M319905000 205131250
L325005000 205131250
" />
<path d="M319905000 208431250
L319905000 205131250
" />
<path d="M325005000 205131250
L325005000 208431250
" />
<path d="M392505000 284981250
L392505000 281681250
" />
<path d="M397605000 284981250
L392505000 284981250
" />
<path d="M392505000 281681250
L397605000 281681250
" />
<path d="M397605000 281681250
L397605000 284981250
" />
<path d="M155235000 180581250
L157055000 180581250
" />
<path d="M157055000 180581250
L157055000 179661250
" />
<path d="M155235000 179661250
L155235000 180581250
" />
<path d="M157055000 179661250
L155235000 179661250
" />
<path d="M325555000 203081250
L330255000 203081250
" />
<path d="M330255000 200781250
L330255000 203081250
" />
<path d="M325555000 200781250
L325555000 203081250
" />
<path d="M330255000 200781250
L325555000 200781250
" />
<path d="M-75150000 34856250
L-75150000 37156250
" />
<path d="M-79850000 37156250
L-75150000 37156250
" />
<path d="M-75150000 34856250
L-79850000 34856250
" />
<path d="M-79850000 34856250
L-79850000 37156250
" />
<path d="M-142850000 59856250
L-142850000 62156250
" />
<path d="M-138150000 59856250
L-142850000 59856250
" />
<path d="M-138150000 59856250
L-138150000 62156250
" />
<path d="M-142850000 62156250
L-138150000 62156250
" />
<path d="M-81950000 27356250
L-81950000 30656250
" />
<path d="M-87050000 30656250
L-87050000 27356250
" />
<path d="M-81950000 30656250
L-87050000 30656250
" />
<path d="M-87050000 27356250
L-81950000 27356250
" />
<path d="M354155000 220981250
L354155000 223281250
" />
<path d="M354155000 220981250
L349455000 220981250
" />
<path d="M349455000 223281250
L354155000 223281250
" />
<path d="M349455000 220981250
L349455000 223281250
" />
<path d="M337955000 214281250
L337955000 216581250
" />
<path d="M342655000 214281250
L337955000 214281250
" />
<path d="M337955000 216581250
L342655000 216581250
" />
<path d="M342655000 214281250
L342655000 216581250
" />
<path d="M388425000 250931250
L393125000 250931250
" />
<path d="M393125000 248631250
L393125000 250931250
" />
<path d="M388425000 248631250
L388425000 250931250
" />
<path d="M393125000 248631250
L388425000 248631250
" />
<path d="M-109050000 5656250
L-109050000 2356250
" />
<path d="M-103950000 2356250
L-103950000 5656250
" />
<path d="M-109050000 2356250
L-103950000 2356250
" />
<path d="M-103950000 5656250
L-109050000 5656250
" />
<path d="M325455000 211781250
L325455000 208481250
" />
<path d="M330555000 211781250
L325455000 211781250
" />
<path d="M325455000 208481250
L330555000 208481250
" />
<path d="M330555000 208481250
L330555000 211781250
" />
<path d="M374805000 261431250
L369705000 261431250
" />
<path d="M369705000 258131250
L374805000 258131250
" />
<path d="M374805000 258131250
L374805000 261431250
" />
<path d="M369705000 261431250
L369705000 258131250
" />
<path d="M343905000 224331250
L343905000 227631250
" />
<path d="M348405000 224331250
L343905000 224331250
" />
<path d="M348405000 227631250
L348405000 224331250
" />
<path d="M343905000 227631250
L348405000 227631250
" />
<path d="M275065000 147691250
L273245000 147691250
" />
<path d="M273245000 148611250
L275065000 148611250
" />
<path d="M275065000 148611250
L275065000 147691250
" />
<path d="M273245000 147691250
L273245000 148611250
" />
<path d="M258895000 148611250
L260715000 148611250
" />
<path d="M260715000 148611250
L260715000 147691250
" />
<path d="M258895000 147691250
L258895000 148611250
" />
<path d="M260715000 147691250
L258895000 147691250
" />
<path d="M349605000 237381250
L349605000 240781250
" />
<path d="M349605000 237381250
L352805000 237381250
" />
<path d="M352805000 240781250
L349605000 240781250
" />
<path d="M352805000 240781250
L352805000 237381250
" />
<path d="M342955000 221981250
L342955000 225281250
" />
<path d="M342955000 225281250
L337855000 225281250
" />
<path d="M337855000 221981250
L342955000 221981250
" />
<path d="M337855000 225281250
L337855000 221981250
" />
<path d="M-97150000 37856250
L-97150000 40156250
" />
<path d="M-101850000 40156250
L-97150000 40156250
" />
<path d="M-97150000 37856250
L-101850000 37856250
" />
<path d="M-101850000 37856250
L-101850000 40156250
" />
<path d="M451805000 305231250
L447105000 305231250
" />
<path d="M451805000 305231250
L451805000 307531250
" />
<path d="M447105000 305231250
L447105000 307531250
" />
<path d="M447105000 307531250
L451805000 307531250
" />
<path d="M-133150000 82856250
L-137850000 82856250
" />
<path d="M-137850000 85156250
L-133150000 85156250
" />
<path d="M-137850000 82856250
L-137850000 85156250
" />
<path d="M-133150000 82856250
L-133150000 85156250
" />
<path d="M358655000 237781250
L353555000 237781250
" />
<path d="M353555000 234481250
L358655000 234481250
" />
<path d="M358655000 234481250
L358655000 237781250
" />
<path d="M353555000 237781250
L353555000 234481250
" />
<path d="M258895000 149661250
L258895000 150581250
" />
<path d="M260715000 150581250
L260715000 149661250
" />
<path d="M260715000 149661250
L258895000 149661250
" />
<path d="M258895000 150581250
L260715000 150581250
" />
<path d="M327175000 13681250
L327175000 10281250
" />
<path d="M327175000 13681250
L323975000 13681250
" />
<path d="M323975000 10281250
L327175000 10281250
" />
<path d="M323975000 10281250
L323975000 13681250
" />
<path d="M278985000 148611250
L280805000 148611250
" />
<path d="M278985000 147691250
L278985000 148611250
" />
<path d="M280805000 148611250
L280805000 147691250
" />
<path d="M280805000 147691250
L278985000 147691250
" />
<path d="M423555000 306181250
L418455000 306181250
" />
<path d="M418455000 302881250
L423555000 302881250
" />
<path d="M423555000 302881250
L423555000 306181250
" />
<path d="M418455000 306181250
L418455000 302881250
" />
<path d="M277935000 155571250
L276115000 155571250
" />
<path d="M276115000 155571250
L276115000 156491250
" />
<path d="M276115000 156491250
L277935000 156491250
" />
<path d="M277935000 156491250
L277935000 155571250
" />
<path d="M411885000 302981250
L410065000 302981250
" />
<path d="M410065000 303901250
L411885000 303901250
" />
<path d="M410065000 302981250
L410065000 303901250
" />
<path d="M411885000 303901250
L411885000 302981250
" />
<path d="M349455000 217631250
L349455000 219931250
" />
<path d="M354155000 217631250
L349455000 217631250
" />
<path d="M349455000 219931250
L354155000 219931250
" />
<path d="M354155000 217631250
L354155000 219931250
" />
<path d="M349455000 214281250
L349455000 216581250
" />
<path d="M349455000 216581250
L354155000 216581250
" />
<path d="M354155000 214281250
L349455000 214281250
" />
<path d="M354155000 214281250
L354155000 216581250
" />
<path d="M-136850000 55156250
L-132150000 55156250
" />
<path d="M-136850000 52856250
L-136850000 55156250
" />
<path d="M-132150000 52856250
L-132150000 55156250
" />
<path d="M-132150000 52856250
L-136850000 52856250
" />
<path d="M324805000 200781250
L324805000 204081250
" />
<path d="M324805000 204081250
L319705000 204081250
" />
<path d="M319705000 200781250
L324805000 200781250
" />
<path d="M319705000 204081250
L319705000 200781250
" />
<path d="M-135570000 26476250
L-135570000 25536250
" />
<path d="M-137430000 25536250
L-137430000 26476250
" />
<path d="M-137430000 26476250
L-135570000 26476250
" />
<path d="M-135570000 25536250
L-137430000 25536250
" />
<path d="M-44150000 66856250
L-48850000 66856250
" />
<path d="M-44150000 66856250
L-44150000 69156250
" />
<path d="M-48850000 69156250
L-44150000 69156250
" />
<path d="M-48850000 66856250
L-48850000 69156250
" />
<path d="M380355000 257981250
L375255000 257981250
" />
<path d="M380355000 254681250
L380355000 257981250
" />
<path d="M375255000 254681250
L380355000 254681250
" />
<path d="M375255000 257981250
L375255000 254681250
" />
<path d="M363205000 250471250
L363205000 249531250
" />
<path d="M361345000 250471250
L363205000 250471250
" />
<path d="M361345000 249531250
L361345000 250471250
" />
<path d="M363205000 249531250
L361345000 249531250
" />
<path d="M331305000 207481250
L331305000 209781250
" />
<path d="M331305000 209781250
L336005000 209781250
" />
<path d="M336005000 207481250
L331305000 207481250
" />
<path d="M336005000 207481250
L336005000 209781250
" />
<path d="M159925000 180581250
L159925000 179661250
" />
<path d="M158105000 180581250
L159925000 180581250
" />
<path d="M158105000 179661250
L158105000 180581250
" />
<path d="M159925000 179661250
L158105000 179661250
" />
<path d="M343705000 219931250
L348405000 219931250
" />
<path d="M348405000 217631250
L348405000 219931250
" />
<path d="M348405000 217631250
L343705000 217631250
" />
<path d="M343705000 217631250
L343705000 219931250
" />
<path d="M8675000 5481250
L12375000 5481250
" />
<path d="M12375000 3581250
L8675000 3581250
" />
<path d="M8675000 3581250
L8675000 5481250
" />
<path d="M12375000 5481250
L12375000 3581250
" />
<path d="M-62950000 10356250
L-62950000 13656250
" />
<path d="M-68050000 13656250
L-68050000 10356250
" />
<path d="M-68050000 10356250
L-62950000 10356250
" />
<path d="M-62950000 13656250
L-68050000 13656250
" />
<path d="M408905000 289381250
L408905000 292681250
" />
<path d="M408905000 292681250
L403805000 292681250
" />
<path d="M403805000 289381250
L408905000 289381250
" />
<path d="M403805000 292681250
L403805000 289381250
" />
<path d="M159925000 184521250
L159925000 183601250
" />
<path d="M158105000 184521250
L159925000 184521250
" />
<path d="M158105000 183601250
L158105000 184521250
" />
<path d="M159925000 183601250
L158105000 183601250
" />
<path d="M276115000 152551250
L277935000 152551250
" />
<path d="M277935000 152551250
L277935000 151631250
" />
<path d="M277935000 151631250
L276115000 151631250
" />
<path d="M276115000 151631250
L276115000 152551250
" />
<path d="M146625000 181631250
L146625000 182551250
" />
<path d="M148445000 181631250
L146625000 181631250
" />
<path d="M148445000 182551250
L148445000 181631250
" />
<path d="M146625000 182551250
L148445000 182551250
" />
<path d="M-73150000 14856250
L-77850000 14856250
" />
<path d="M-77850000 14856250
L-77850000 17156250
" />
<path d="M-77850000 17156250
L-73150000 17156250
" />
<path d="M-73150000 14856250
L-73150000 17156250
" />
<path d="M446055000 301881250
L446055000 304181250
" />
<path d="M446055000 301881250
L441355000 301881250
" />
<path d="M441355000 304181250
L446055000 304181250
" />
<path d="M441355000 301881250
L441355000 304181250
" />
<path d="M-132150000 59856250
L-132150000 62156250
" />
<path d="M-132150000 59856250
L-136850000 59856250
" />
<path d="M-136850000 62156250
L-132150000 62156250
" />
<path d="M-136850000 59856250
L-136850000 62156250
" />
<path d="M-180050000 11656250
L-180050000 8356250
" />
<path d="M-174950000 8356250
L-174950000 11656250
" />
<path d="M-180050000 8356250
L-174950000 8356250
" />
<path d="M-174950000 11656250
L-180050000 11656250
" />
<path d="M160975000 187541250
L160975000 188461250
" />
<path d="M162795000 187541250
L160975000 187541250
" />
<path d="M160975000 188461250
L162795000 188461250
" />
<path d="M162795000 188461250
L162795000 187541250
" />
<path d="M-110850000 23156250
L-106150000 23156250
" />
<path d="M-106150000 20856250
L-106150000 23156250
" />
<path d="M-110850000 20856250
L-110850000 23156250
" />
<path d="M-106150000 20856250
L-110850000 20856250
" />
<path d="M-84850000 66856250
L-84850000 69156250
" />
<path d="M-84850000 69156250
L-80150000 69156250
" />
<path d="M-80150000 66856250
L-80150000 69156250
" />
<path d="M-80150000 66856250
L-84850000 66856250
" />
<path d="M280805000 151631250
L278985000 151631250
" />
<path d="M280805000 152551250
L280805000 151631250
" />
<path d="M278985000 152551250
L280805000 152551250
" />
<path d="M278985000 151631250
L278985000 152551250
" />
<path d="M403355000 286031250
L403355000 289331250
" />
<path d="M398255000 289331250
L398255000 286031250
" />
<path d="M403355000 289331250
L398255000 289331250
" />
<path d="M398255000 286031250
L403355000 286031250
" />
<path d="M266455000 152551250
L266455000 151631250
" />
<path d="M264635000 152551250
L266455000 152551250
" />
<path d="M266455000 151631250
L264635000 151631250
" />
<path d="M264635000 151631250
L264635000 152551250
" />
<path d="M451805000 301881250
L447105000 301881250
" />
<path d="M447105000 304181250
L451805000 304181250
" />
<path d="M447105000 301881250
L447105000 304181250
" />
<path d="M451805000 301881250
L451805000 304181250
" />
<path d="M157055000 177691250
L155235000 177691250
" />
<path d="M155235000 177691250
L155235000 178611250
" />
<path d="M155235000 178611250
L157055000 178611250
" />
<path d="M157055000 178611250
L157055000 177691250
" />
<path d="M-45950000 4356250
L-45950000 7656250
" />
<path d="M-51050000 7656250
L-51050000 4356250
" />
<path d="M-45950000 7656250
L-51050000 7656250
" />
<path d="M-51050000 4356250
L-45950000 4356250
" />
<path d="M-164950000 27656250
L-170050000 27656250
" />
<path d="M-170050000 27656250
L-170050000 24356250
" />
<path d="M-170050000 24356250
L-164950000 24356250
" />
<path d="M-164950000 24356250
L-164950000 27656250
" />
<path d="M30725000 6731250
L30725000 9931250
" />
<path d="M27325000 9931250
L27325000 6731250
" />
<path d="M27325000 9931250
L30725000 9931250
" />
<path d="M30725000 6731250
L27325000 6731250
" />
<path d="M381105000 254681250
L381105000 256981250
" />
<path d="M385805000 254681250
L385805000 256981250
" />
<path d="M385805000 254681250
L381105000 254681250
" />
<path d="M381105000 256981250
L385805000 256981250
" />
<path d="M241275000 9531250
L232775000 9531250
" />
<path d="M232775000 9531250
L232775000 15531250
" />
<path d="M241275000 15531250
L241275000 9531250
" />
<path d="M232775000 15531250
L241275000 15531250
" />
<path d="M-116050000 46656250
L-116050000 43356250
" />
<path d="M-110950000 43356250
L-110950000 46656250
" />
<path d="M-116050000 43356250
L-110950000 43356250
" />
<path d="M-110950000 46656250
L-116050000 46656250
" />
<path d="M-131410000 37546250
L-131410000 38466250
" />
<path d="M-129590000 37546250
L-131410000 37546250
" />
<path d="M-129590000 38466250
L-129590000 37546250
" />
<path d="M-131410000 38466250
L-129590000 38466250
" />
<path d="M332305000 222831250
L332305000 219531250
" />
<path d="M337405000 222831250
L332305000 222831250
" />
<path d="M337405000 219531250
L337405000 222831250
" />
<path d="M332305000 219531250
L337405000 219531250
" />
<path d="M375255000 259031250
L380355000 259031250
" />
<path d="M380355000 262331250
L375255000 262331250
" />
<path d="M375255000 262331250
L375255000 259031250
" />
<path d="M380355000 259031250
L380355000 262331250
" />
<path d="M345195000 233971250
L347055000 233971250
" />
<path d="M345195000 233031250
L345195000 233971250
" />
<path d="M347055000 233971250
L347055000 233031250
" />
<path d="M347055000 233031250
L345195000 233031250
" />
<path d="M278985000 155571250
L278985000 156491250
" />
<path d="M280805000 155571250
L278985000 155571250
" />
<path d="M280805000 156491250
L280805000 155571250
" />
<path d="M278985000 156491250
L280805000 156491250
" />
<path d="M343705000 214281250
L343705000 216581250
" />
<path d="M343705000 216581250
L348405000 216581250
" />
<path d="M348405000 214281250
L343705000 214281250
" />
<path d="M348405000 214281250
L348405000 216581250
" />
<path d="M163845000 185571250
L163845000 186491250
" />
<path d="M165665000 186491250
L165665000 185571250
" />
<path d="M163845000 186491250
L165665000 186491250
" />
<path d="M165665000 185571250
L163845000 185571250
" />
<path d="M-136430000 18476250
L-134570000 18476250
" />
<path d="M-134570000 18476250
L-134570000 17536250
" />
<path d="M-134570000 17536250
L-136430000 17536250
" />
<path d="M-136430000 17536250
L-136430000 18476250
" />
<path d="M337205000 215181250
L337205000 218481250
" />
<path d="M332105000 215181250
L337205000 215181250
" />
<path d="M332105000 218481250
L332105000 215181250
" />
<path d="M337205000 218481250
L332105000 218481250
" />
<path d="M-155950000 28356250
L-155950000 31656250
" />
<path d="M-161050000 28356250
L-155950000 28356250
" />
<path d="M-155950000 31656250
L-161050000 31656250
" />
<path d="M-161050000 31656250
L-161050000 28356250
" />
<path d="M391755000 282621250
L391755000 281681250
" />
<path d="M389895000 282621250
L391755000 282621250
" />
<path d="M389895000 281681250
L389895000 282621250
" />
<path d="M391755000 281681250
L389895000 281681250
" />
<path d="M429855000 305231250
L429855000 307531250
" />
<path d="M434555000 305231250
L429855000 305231250
" />
<path d="M429855000 307531250
L434555000 307531250
" />
<path d="M434555000 305231250
L434555000 307531250
" />
<path d="M408905000 288331250
L403805000 288331250
" />
<path d="M408905000 285031250
L408905000 288331250
" />
<path d="M403805000 288331250
L403805000 285031250
" />
<path d="M403805000 285031250
L408905000 285031250
" />
<path d="M-148150000 28856250
L-148150000 31156250
" />
<path d="M-152850000 31156250
L-148150000 31156250
" />
<path d="M-148150000 28856250
L-152850000 28856250
" />
<path d="M-152850000 28856250
L-152850000 31156250
" />
<path d="M371985000 264471250
L371985000 265391250
" />
<path d="M371985000 265391250
L373805000 265391250
" />
<path d="M373805000 265391250
L373805000 264471250
" />
<path d="M373805000 264471250
L371985000 264471250
" />
<path d="M-117050000 37656250
L-117050000 34356250
" />
<path d="M-117050000 34356250
L-111950000 34356250
" />
<path d="M-111950000 37656250
L-117050000 37656250
" />
<path d="M-111950000 34356250
L-111950000 37656250
" />
<path d="M352905000 236331250
L347805000 236331250
" />
<path d="M347805000 236331250
L347805000 233031250
" />
<path d="M347805000 233031250
L352905000 233031250
" />
<path d="M352905000 233031250
L352905000 236331250
" />
<path d="M-168850000 61856250
L-168850000 64156250
" />
<path d="M-168850000 64156250
L-164150000 64156250
" />
<path d="M-164150000 61856250
L-164150000 64156250
" />
<path d="M-164150000 61856250
L-168850000 61856250
" />
<path d="M-138050000 28356250
L-132950000 28356250
" />
<path d="M-132950000 28356250
L-132950000 31656250
" />
<path d="M-132950000 31656250
L-138050000 31656250
" />
<path d="M-138050000 31656250
L-138050000 28356250
" />
<path d="M-143150000 83856250
L-147850000 83856250
" />
<path d="M-147850000 83856250
L-147850000 86156250
" />
<path d="M-143150000 83856250
L-143150000 86156250
" />
<path d="M-147850000 86156250
L-143150000 86156250
" />
<path d="M278985000 157541250
L278985000 158461250
" />
<path d="M280805000 158461250
L280805000 157541250
" />
<path d="M280805000 157541250
L278985000 157541250
" />
<path d="M278985000 158461250
L280805000 158461250
" />
<path d="M314155000 201781250
L319255000 201781250
" />
<path d="M319255000 201781250
L319255000 205081250
" />
<path d="M314155000 205081250
L314155000 201781250
" />
<path d="M319255000 205081250
L314155000 205081250
" />
<path d="M-124050000 17656250
L-124050000 14356250
" />
<path d="M-118950000 14356250
L-118950000 17656250
" />
<path d="M-118950000 17656250
L-124050000 17656250
" />
<path d="M-124050000 14356250
L-118950000 14356250
" />
<path d="M-58150000 42856250
L-58150000 45156250
" />
<path d="M-62850000 42856250
L-62850000 45156250
" />
<path d="M-62850000 45156250
L-58150000 45156250
" />
<path d="M-58150000 42856250
L-62850000 42856250
" />
<path d="M449055000 298531250
L449055000 300831250
" />
<path d="M449055000 300831250
L453755000 300831250
" />
<path d="M453755000 298531250
L453755000 300831250
" />
<path d="M453755000 298531250
L449055000 298531250
" />
<path d="M361955000 245081250
L367055000 245081250
" />
<path d="M367055000 245081250
L367055000 248381250
" />
<path d="M361955000 248381250
L361955000 245081250
" />
<path d="M367055000 248381250
L361955000 248381250
" />
<path d="M273245000 149661250
L273245000 150581250
" />
<path d="M275065000 150581250
L275065000 149661250
" />
<path d="M275065000 149661250
L273245000 149661250
" />
<path d="M273245000 150581250
L275065000 150581250
" />
<path d="M264635000 149661250
L264635000 150581250
" />
<path d="M264635000 150581250
L266455000 150581250
" />
<path d="M266455000 149661250
L264635000 149661250
" />
<path d="M266455000 150581250
L266455000 149661250
" />
<path d="M440305000 301881250
L440305000 304181250
" />
<path d="M435605000 304181250
L440305000 304181250
" />
<path d="M435605000 301881250
L435605000 304181250
" />
<path d="M440305000 301881250
L435605000 301881250
" />
<path d="M261765000 151631250
L261765000 152551250
" />
<path d="M261765000 152551250
L263585000 152551250
" />
<path d="M263585000 151631250
L261765000 151631250
" />
<path d="M263585000 152551250
L263585000 151631250
" />
<path d="M151315000 179661250
L149495000 179661250
" />
<path d="M151315000 180581250
L151315000 179661250
" />
<path d="M149495000 180581250
L151315000 180581250
" />
<path d="M149495000 179661250
L149495000 180581250
" />
<path d="M154185000 177691250
L152365000 177691250
" />
<path d="M152365000 177691250
L152365000 178611250
" />
<path d="M154185000 178611250
L154185000 177691250
" />
<path d="M152365000 178611250
L154185000 178611250
" />
<path d="M330555000 207431250
L325455000 207431250
" />
<path d="M325455000 207431250
L325455000 204131250
" />
<path d="M330555000 204131250
L330555000 207431250
" />
<path d="M325455000 204131250
L330555000 204131250
" />
<path d="M-84150000 59856250
L-88850000 59856250
" />
<path d="M-88850000 62156250
L-84150000 62156250
" />
<path d="M-84150000 59856250
L-84150000 62156250
" />
<path d="M-88850000 59856250
L-88850000 62156250
" />
<path d="M-109150000 14856250
L-113850000 14856250
" />
<path d="M-109150000 14856250
L-109150000 17156250
" />
<path d="M-113850000 14856250
L-113850000 17156250
" />
<path d="M-113850000 17156250
L-109150000 17156250
" />
<path d="M-154850000 61856250
L-154850000 64156250
" />
<path d="M-154850000 64156250
L-150150000 64156250
" />
<path d="M-150150000 61856250
L-154850000 61856250
" />
<path d="M-150150000 61856250
L-150150000 64156250
" />
<path d="M313955000 200731250
L313955000 197431250
" />
<path d="M313955000 197431250
L319055000 197431250
" />
<path d="M319055000 200731250
L313955000 200731250
" />
<path d="M319055000 197431250
L319055000 200731250
" />
<path d="M278985000 153601250
L278985000 154521250
" />
<path d="M280805000 153601250
L278985000 153601250
" />
<path d="M278985000 154521250
L280805000 154521250
" />
<path d="M280805000 154521250
L280805000 153601250
" />
<path d="M-52150000 43856250
L-52150000 46156250
" />
<path d="M-56850000 43856250
L-56850000 46156250
" />
<path d="M-52150000 43856250
L-56850000 43856250
" />
<path d="M-56850000 46156250
L-52150000 46156250
" />
<path d="M305795000 198371250
L307655000 198371250
" />
<path d="M305795000 197431250
L305795000 198371250
" />
<path d="M307655000 198371250
L307655000 197431250
" />
<path d="M307655000 197431250
L305795000 197431250
" />
<path d="M374605000 249431250
L374605000 252731250
" />
<path d="M374605000 252731250
L369505000 252731250
" />
<path d="M369505000 249431250
L374605000 249431250
" />
<path d="M369505000 252731250
L369505000 249431250
" />
<path d="M342255000 231981250
L342255000 228681250
" />
<path d="M347355000 228681250
L347355000 231981250
" />
<path d="M342255000 228681250
L347355000 228681250
" />
<path d="M347355000 231981250
L342255000 231981250
" />
<path d="M270375000 147691250
L270375000 148611250
" />
<path d="M272195000 148611250
L272195000 147691250
" />
<path d="M270375000 148611250
L272195000 148611250
" />
<path d="M272195000 147691250
L270375000 147691250
" />
<path d="M322995000 11711250
L322995000 9851250
" />
<path d="M322055000 9851250
L322055000 11711250
" />
<path d="M322995000 9851250
L322055000 9851250
" />
<path d="M322055000 11711250
L322995000 11711250
" />
<path d="M-131150000 72856250
L-135850000 72856250
" />
<path d="M-131150000 72856250
L-131150000 75156250
" />
<path d="M-135850000 72856250
L-135850000 75156250
" />
<path d="M-135850000 75156250
L-131150000 75156250
" />
<path d="M267505000 149661250
L267505000 150581250
" />
<path d="M269325000 149661250
L267505000 149661250
" />
<path d="M269325000 150581250
L269325000 149661250
" />
<path d="M267505000 150581250
L269325000 150581250
" />
<path d="M337855000 217631250
L342955000 217631250
" />
<path d="M337855000 220931250
L337855000 217631250
" />
<path d="M342955000 220931250
L337855000 220931250
" />
<path d="M342955000 217631250
L342955000 220931250
" />
<path d="M424005000 302881250
L429105000 302881250
" />
<path d="M429105000 302881250
L429105000 306181250
" />
<path d="M424005000 306181250
L424005000 302881250
" />
<path d="M429105000 306181250
L424005000 306181250
" />
<path d="M380055000 251331250
L380055000 253631250
" />
<path d="M375355000 253631250
L380055000 253631250
" />
<path d="M380055000 251331250
L375355000 251331250
" />
<path d="M375355000 251331250
L375355000 253631250
" />
<path d="M56925000 4831250
L61125000 4831250
" />
<path d="M61125000 8231250
L56925000 8231250
" />
<path d="M61125000 4831250
L61125000 8231250
" />
<path d="M56925000 8231250
L56925000 4831250
" />
<path d="M390755000 272981250
L385655000 272981250
" />
<path d="M385655000 272981250
L385655000 269681250
" />
<path d="M385655000 269681250
L390755000 269681250
" />
<path d="M390755000 269681250
L390755000 272981250
" />
<path d="M464355000 307581250
L469055000 307581250
" />
<path d="M464355000 305281250
L464355000 307581250
" />
<path d="M469055000 305281250
L464355000 305281250
" />
<path d="M469055000 305281250
L469055000 307581250
" />
<path d="M-66850000 66856250
L-66850000 69156250
" />
<path d="M-62150000 66856250
L-62150000 69156250
" />
<path d="M-66850000 69156250
L-62150000 69156250
" />
<path d="M-62150000 66856250
L-66850000 66856250
" />
<path d="M162795000 185571250
L160975000 185571250
" />
<path d="M160975000 185571250
L160975000 186491250
" />
<path d="M162795000 186491250
L162795000 185571250
" />
<path d="M160975000 186491250
L162795000 186491250
" />
<path d="M-161850000 62156250
L-157150000 62156250
" />
<path d="M-161850000 59856250
L-161850000 62156250
" />
<path d="M-157150000 59856250
L-161850000 59856250
" />
<path d="M-157150000 59856250
L-157150000 62156250
" />
<path d="M385805000 247981250
L381105000 247981250
" />
<path d="M381105000 250281250
L385805000 250281250
" />
<path d="M385805000 247981250
L385805000 250281250
" />
<path d="M381105000 247981250
L381105000 250281250
" />
<path d="M328995000 11711250
L328995000 9851250
" />
<path d="M328055000 11711250
L328995000 11711250
" />
<path d="M328055000 9851250
L328055000 11711250
" />
<path d="M328995000 9851250
L328055000 9851250
" />
<path d="M157055000 181631250
L155235000 181631250
" />
<path d="M155235000 182551250
L157055000 182551250
" />
<path d="M155235000 181631250
L155235000 182551250
" />
<path d="M157055000 182551250
L157055000 181631250
" />
<path d="M-53150000 20856250
L-57850000 20856250
" />
<path d="M-57850000 23156250
L-53150000 23156250
" />
<path d="M-57850000 20856250
L-57850000 23156250
" />
<path d="M-53150000 20856250
L-53150000 23156250
" />
<path d="M436505000 298531250
L431805000 298531250
" />
<path d="M431805000 300831250
L436505000 300831250
" />
<path d="M431805000 298531250
L431805000 300831250
" />
<path d="M436505000 298531250
L436505000 300831250
" />
<path d="M277935000 148611250
L277935000 147691250
" />
<path d="M276115000 148611250
L277935000 148611250
" />
<path d="M277935000 147691250
L276115000 147691250
" />
<path d="M276115000 147691250
L276115000 148611250
" />
<path d="M-156050000 48656250
L-156050000 45356250
" />
<path d="M-150950000 48656250
L-156050000 48656250
" />
<path d="M-156050000 45356250
L-150950000 45356250
" />
<path d="M-150950000 45356250
L-150950000 48656250
" />
<path d="M143755000 180581250
L145575000 180581250
" />
<path d="M145575000 180581250
L145575000 179661250
" />
<path d="M143755000 179661250
L143755000 180581250
" />
<path d="M145575000 179661250
L143755000 179661250
" />
<path d="M371945000 263421250
L373805000 263421250
" />
<path d="M373805000 262481250
L371945000 262481250
" />
<path d="M373805000 263421250
L373805000 262481250
" />
<path d="M371945000 262481250
L371945000 263421250
" />
<path d="M266455000 154521250
L266455000 153601250
" />
<path d="M264635000 154521250
L266455000 154521250
" />
<path d="M266455000 153601250
L264635000 153601250
" />
<path d="M264635000 153601250
L264635000 154521250
" />
<path d="M-82850000 98156250
L-78150000 98156250
" />
<path d="M-78150000 95856250
L-82850000 95856250
" />
<path d="M-78150000 95856250
L-78150000 98156250
" />
<path d="M-82850000 95856250
L-82850000 98156250
" />
<path d="M435605000 305231250
L435605000 307531250
" />
<path d="M440305000 305231250
L435605000 305231250
" />
<path d="M435605000 307531250
L440305000 307531250
" />
<path d="M440305000 305231250
L440305000 307531250
" />
<path d="M148445000 179661250
L146625000 179661250
" />
<path d="M146625000 179661250
L146625000 180581250
" />
<path d="M146625000 180581250
L148445000 180581250
" />
<path d="M148445000 180581250
L148445000 179661250
" />
<path d="M-135410000 20546250
L-135410000 21466250
" />
<path d="M-135410000 21466250
L-133590000 21466250
" />
<path d="M-133590000 21466250
L-133590000 20546250
" />
<path d="M-133590000 20546250
L-135410000 20546250
" />
<path d="M-69050000 7656250
L-69050000 4356250
" />
<path d="M-63950000 4356250
L-63950000 7656250
" />
<path d="M-63950000 7656250
L-69050000 7656250
" />
<path d="M-69050000 4356250
L-63950000 4356250
" />
<path d="M273245000 154521250
L275065000 154521250
" />
<path d="M275065000 154521250
L275065000 153601250
" />
<path d="M273245000 153601250
L273245000 154521250
" />
<path d="M275065000 153601250
L273245000 153601250
" />
<path d="M165665000 188461250
L165665000 187541250
" />
<path d="M163845000 188461250
L165665000 188461250
" />
<path d="M163845000 187541250
L163845000 188461250
" />
<path d="M165665000 187541250
L163845000 187541250
" />
<path d="M-124150000 76856250
L-128850000 76856250
" />
<path d="M-124150000 76856250
L-124150000 79156250
" />
<path d="M-128850000 79156250
L-124150000 79156250
" />
<path d="M-128850000 76856250
L-128850000 79156250
" />
<path d="M-90950000 31656250
L-96050000 31656250
" />
<path d="M-96050000 28356250
L-90950000 28356250
" />
<path d="M-90950000 28356250
L-90950000 31656250
" />
<path d="M-96050000 31656250
L-96050000 28356250
" />
<path d="M280805000 150581250
L280805000 149661250
" />
<path d="M278985000 149661250
L278985000 150581250
" />
<path d="M280805000 149661250
L278985000 149661250
" />
<path d="M278985000 150581250
L280805000 150581250
" />
<path d="M454805000 298531250
L454805000 300831250
" />
<path d="M459505000 298531250
L459505000 300831250
" />
<path d="M459505000 298531250
L454805000 298531250
" />
<path d="M454805000 300831250
L459505000 300831250
" />
<path d="M-39850000 20856250
L-39850000 23156250
" />
<path d="M-35150000 20856250
L-35150000 23156250
" />
<path d="M-39850000 23156250
L-35150000 23156250
" />
<path d="M-35150000 20856250
L-39850000 20856250
" />
<path d="M-113570000 21536250
L-115430000 21536250
" />
<path d="M-115430000 22476250
L-113570000 22476250
" />
<path d="M-113570000 22476250
L-113570000 21536250
" />
<path d="M-115430000 21536250
L-115430000 22476250
" />
<path d="M-72950000 3356250
L-72950000 6656250
" />
<path d="M-72950000 6656250
L-78050000 6656250
" />
<path d="M-78050000 6656250
L-78050000 3356250
" />
<path d="M-78050000 3356250
L-72950000 3356250
" />
<path d="M324505000 197431250
L319805000 197431250
" />
<path d="M324505000 197431250
L324505000 199731250
" />
<path d="M319805000 199731250
L324505000 199731250
" />
<path d="M319805000 197431250
L319805000 199731250
" />
<path d="M336005000 200781250
L336005000 203081250
" />
<path d="M336005000 200781250
L331305000 200781250
" />
<path d="M331305000 200781250
L331305000 203081250
" />
<path d="M331305000 203081250
L336005000 203081250
" />
<path d="M-83150000 82856250
L-87850000 82856250
" />
<path d="M-83150000 82856250
L-83150000 85156250
" />
<path d="M-87850000 82856250
L-87850000 85156250
" />
<path d="M-87850000 85156250
L-83150000 85156250
" />
<path d="M454805000 301881250
L454805000 304181250
" />
<path d="M459505000 301881250
L454805000 301881250
" />
<path d="M459505000 301881250
L459505000 304181250
" />
<path d="M454805000 304181250
L459505000 304181250
" />
<path d="M146625000 183601250
L146625000 184521250
" />
<path d="M148445000 184521250
L148445000 183601250
" />
<path d="M148445000 183601250
L146625000 183601250
" />
<path d="M146625000 184521250
L148445000 184521250
" />
<path d="M154185000 185571250
L152365000 185571250
" />
<path d="M154185000 186491250
L154185000 185571250
" />
<path d="M152365000 186491250
L154185000 186491250
" />
<path d="M152365000 185571250
L152365000 186491250
" />
<path d="M430755000 298531250
L426055000 298531250
" />
<path d="M426055000 300831250
L430755000 300831250
" />
<path d="M430755000 298531250
L430755000 300831250
" />
<path d="M426055000 298531250
L426055000 300831250
" />
<path d="M162795000 182551250
L162795000 181631250
" />
<path d="M160975000 181631250
L160975000 182551250
" />
<path d="M160975000 182551250
L162795000 182551250
" />
<path d="M162795000 181631250
L160975000 181631250
" />
<path d="M277935000 153601250
L276115000 153601250
" />
<path d="M276115000 154521250
L277935000 154521250
" />
<path d="M277935000 154521250
L277935000 153601250
" />
<path d="M276115000 153601250
L276115000 154521250
" />
<path d="M443305000 298531250
L443305000 300831250
" />
<path d="M448005000 298531250
L443305000 298531250
" />
<path d="M448005000 298531250
L448005000 300831250
" />
<path d="M443305000 300831250
L448005000 300831250
" />
<path d="M-123430000 20476250
L-121570000 20476250
" />
<path d="M-121570000 19536250
L-123430000 19536250
" />
<path d="M-123430000 19536250
L-123430000 20476250
" />
<path d="M-121570000 20476250
L-121570000 19536250
" />
<path d="M152365000 179661250
L152365000 180581250
" />
<path d="M154185000 179661250
L152365000 179661250
" />
<path d="M152365000 180581250
L154185000 180581250
" />
<path d="M154185000 180581250
L154185000 179661250
" />
<path d="M-156570000 20536250
L-158430000 20536250
" />
<path d="M-158430000 21476250
L-156570000 21476250
" />
<path d="M-156570000 21476250
L-156570000 20536250
" />
<path d="M-158430000 20536250
L-158430000 21476250
" />
<path d="M463305000 305281250
L458605000 305281250
" />
<path d="M458605000 305281250
L458605000 307581250
" />
<path d="M463305000 305281250
L463305000 307581250
" />
<path d="M458605000 307581250
L463305000 307581250
" />
<path d="M-81950000 2356250
L-81950000 5656250
" />
<path d="M-87050000 5656250
L-87050000 2356250
" />
<path d="M-87050000 2356250
L-81950000 2356250
" />
<path d="M-81950000 5656250
L-87050000 5656250
" />
<path d="M-153590000 50546250
L-155410000 50546250
" />
<path d="M-153590000 51466250
L-153590000 50546250
" />
<path d="M-155410000 51466250
L-153590000 51466250
" />
<path d="M-155410000 50546250
L-155410000 51466250
" />
<path d="M-114850000 61156250
L-110150000 61156250
" />
<path d="M-110150000 58856250
L-110150000 61156250
" />
<path d="M-114850000 58856250
L-114850000 61156250
" />
<path d="M-110150000 58856250
L-114850000 58856250
" />
<path d="M272195000 154521250
L272195000 153601250
" />
<path d="M270375000 154521250
L272195000 154521250
" />
<path d="M270375000 153601250
L270375000 154521250
" />
<path d="M272195000 153601250
L270375000 153601250
" />
<path d="M154185000 184521250
L154185000 183601250
" />
<path d="M152365000 184521250
L154185000 184521250
" />
<path d="M154185000 183601250
L152365000 183601250
" />
<path d="M152365000 183601250
L152365000 184521250
" />
<path d="M243675000 6831250
L227375000 6831250
" />
<path d="M243675000 3231250
L243675000 6831250
" />
<path d="M227375000 6831250
L227375000 3231250
" />
<path d="M227375000 3231250
L243675000 3231250
" />
<path d="M390755000 268631250
L385655000 268631250
" />
<path d="M385655000 265331250
L390755000 265331250
" />
<path d="M385655000 268631250
L385655000 265331250
" />
<path d="M390755000 265331250
L390755000 268631250
" />
<path d="M146625000 178611250
L148445000 178611250
" />
<path d="M146625000 177691250
L146625000 178611250
" />
<path d="M148445000 178611250
L148445000 177691250
" />
<path d="M148445000 177691250
L146625000 177691250
" />
<path d="M-127050000 48656250
L-127050000 45356250
" />
<path d="M-127050000 45356250
L-121950000 45356250
" />
<path d="M-121950000 48656250
L-127050000 48656250
" />
<path d="M-121950000 45356250
L-121950000 48656250
" />
<path d="M-169950000 48656250
L-175050000 48656250
" />
<path d="M-169950000 45356250
L-169950000 48656250
" />
<path d="M-175050000 48656250
L-175050000 45356250
" />
<path d="M-175050000 45356250
L-169950000 45356250
" />
<path d="M-51050000 30656250
L-51050000 27356250
" />
<path d="M-51050000 27356250
L-45950000 27356250
" />
<path d="M-45950000 30656250
L-51050000 30656250
" />
<path d="M-45950000 27356250
L-45950000 30656250
" />
<path d="M369505000 253781250
L374605000 253781250
" />
<path d="M374605000 253781250
L374605000 257081250
" />
<path d="M369505000 257081250
L369505000 253781250
" />
<path d="M374605000 257081250
L369505000 257081250
" />
<path d="M-99950000 26356250
L-99950000 29656250
" />
<path d="M-105050000 26356250
L-99950000 26356250
" />
<path d="M-105050000 29656250
L-105050000 26356250
" />
<path d="M-99950000 29656250
L-105050000 29656250
" />
<path d="M269325000 151631250
L267505000 151631250
" />
<path d="M267505000 151631250
L267505000 152551250
" />
<path d="M267505000 152551250
L269325000 152551250
" />
<path d="M269325000 152551250
L269325000 151631250
" />
<path d="M385205000 266681250
L380105000 266681250
" />
<path d="M380105000 266681250
L380105000 263381250
" />
<path d="M380105000 263381250
L385205000 263381250
" />
<path d="M385205000 263381250
L385205000 266681250
" />
<path d="M157055000 184521250
L157055000 183601250
" />
<path d="M155235000 184521250
L157055000 184521250
" />
<path d="M155235000 183601250
L155235000 184521250
" />
<path d="M157055000 183601250
L155235000 183601250
" />
<path d="M403055000 290381250
L401195000 290381250
" />
<path d="M401195000 290381250
L401195000 291321250
" />
<path d="M401195000 291321250
L403055000 291321250
" />
<path d="M403055000 291321250
L403055000 290381250
" />
<path d="M-103950000 11656250
L-109050000 11656250
" />
<path d="M-103950000 8356250
L-103950000 11656250
" />
<path d="M-109050000 8356250
L-103950000 8356250
" />
<path d="M-109050000 11656250
L-109050000 8356250
" />
<path d="M-174050000 30356250
L-168950000 30356250
" />
<path d="M-174050000 33656250
L-174050000 30356250
" />
<path d="M-168950000 30356250
L-168950000 33656250
" />
<path d="M-168950000 33656250
L-174050000 33656250
" />
<path d="M285955000 22961250
L286895000 22961250
" />
<path d="M285955000 21101250
L285955000 22961250
" />
<path d="M286895000 22961250
L286895000 21101250
" />
<path d="M286895000 21101250
L285955000 21101250
" />
<path d="M149495000 182551250
L151315000 182551250
" />
<path d="M149495000 181631250
L149495000 182551250
" />
<path d="M151315000 181631250
L149495000 181631250
" />
<path d="M151315000 182551250
L151315000 181631250
" />
<path d="M369055000 249431250
L369055000 252731250
" />
<path d="M363955000 252731250
L363955000 249431250
" />
<path d="M369055000 252731250
L363955000 252731250
" />
<path d="M363955000 249431250
L369055000 249431250
" />
<path d="M165665000 181631250
L163845000 181631250
" />
<path d="M163845000 182551250
L165665000 182551250
" />
<path d="M163845000 181631250
L163845000 182551250
" />
<path d="M165665000 182551250
L165665000 181631250
" />
<path d="M-101430000 20536250
L-101430000 21476250
" />
<path d="M-99570000 20536250
L-101430000 20536250
" />
<path d="M-99570000 21476250
L-99570000 20536250
" />
<path d="M-101430000 21476250
L-99570000 21476250
" />
<path d="M-78050000 12656250
L-78050000 9356250
" />
<path d="M-72950000 9356250
L-72950000 12656250
" />
<path d="M-72950000 12656250
L-78050000 12656250
" />
<path d="M-78050000 9356250
L-72950000 9356250
" />
<path d="M273245000 151631250
L273245000 152551250
" />
<path d="M275065000 151631250
L273245000 151631250
" />
<path d="M275065000 152551250
L275065000 151631250
" />
<path d="M273245000 152551250
L275065000 152551250
" />
<path d="M381105000 251331250
L381105000 253631250
" />
<path d="M381105000 253631250
L385805000 253631250
" />
<path d="M385805000 251331250
L385805000 253631250
" />
<path d="M385805000 251331250
L381105000 251331250
" />
<path d="M324905000 215921250
L323085000 215921250
" />
<path d="M324905000 216841250
L324905000 215921250
" />
<path d="M323085000 215921250
L323085000 216841250
" />
<path d="M323085000 216841250
L324905000 216841250
" />
<path d="M272195000 151631250
L270375000 151631250
" />
<path d="M270375000 152551250
L272195000 152551250
" />
<path d="M272195000 152551250
L272195000 151631250
" />
<path d="M270375000 151631250
L270375000 152551250
" />
<path d="M-85850000 76856250
L-85850000 79156250
" />
<path d="M-81150000 76856250
L-85850000 76856250
" />
<path d="M-81150000 76856250
L-81150000 79156250
" />
<path d="M-85850000 79156250
L-81150000 79156250
" />
<path d="M-91950000 13356250
L-91950000 16656250
" />
<path d="M-97050000 13356250
L-91950000 13356250
" />
<path d="M-91950000 16656250
L-97050000 16656250
" />
<path d="M-97050000 16656250
L-97050000 13356250
" />
<path d="M-59050000 10356250
L-53950000 10356250
" />
<path d="M-53950000 13656250
L-59050000 13656250
" />
<path d="M-53950000 10356250
L-53950000 13656250
" />
<path d="M-59050000 13656250
L-59050000 10356250
" />
<path d="M267505000 156491250
L269325000 156491250
" />
<path d="M269325000 156491250
L269325000 155571250
" />
<path d="M269325000 155571250
L267505000 155571250
" />
<path d="M267505000 155571250
L267505000 156491250
" />
<path d="M159925000 187541250
L158105000 187541250
" />
<path d="M158105000 188461250
L159925000 188461250
" />
<path d="M159925000 188461250
L159925000 187541250
" />
<path d="M158105000 187541250
L158105000 188461250
" />
<path d="M162795000 183601250
L160975000 183601250
" />
<path d="M160975000 184521250
L162795000 184521250
" />
<path d="M160975000 183601250
L160975000 184521250
" />
<path d="M162795000 184521250
L162795000 183601250
" />
<path d="M272195000 150581250
L272195000 149661250
" />
<path d="M270375000 150581250
L272195000 150581250
" />
<path d="M272195000 149661250
L270375000 149661250
" />
<path d="M270375000 149661250
L270375000 150581250
" />
<path d="M270375000 158461250
L272195000 158461250
" />
<path d="M270375000 157541250
L270375000 158461250
" />
<path d="M272195000 158461250
L272195000 157541250
" />
<path d="M272195000 157541250
L270375000 157541250
" />
<path d="M367505000 245081250
L372605000 245081250
" />
<path d="M367505000 248381250
L367505000 245081250
" />
<path d="M372605000 245081250
L372605000 248381250
" />
<path d="M372605000 248381250
L367505000 248381250
" />
<path d="M154185000 187541250
L152365000 187541250
" />
<path d="M152365000 187541250
L152365000 188461250
" />
<path d="M154185000 188461250
L154185000 187541250
" />
<path d="M152365000 188461250
L154185000 188461250
" />
<path d="M-94850000 62156250
L-90150000 62156250
" />
<path d="M-94850000 59856250
L-94850000 62156250
" />
<path d="M-90150000 59856250
L-94850000 59856250
" />
<path d="M-90150000 59856250
L-90150000 62156250
" />
<path d="M-148850000 62156250
L-144150000 62156250
" />
<path d="M-144150000 59856250
L-148850000 59856250
" />
<path d="M-148850000 59856250
L-148850000 62156250
" />
<path d="M-144150000 59856250
L-144150000 62156250
" />
<path d="M452855000 305231250
L452855000 307531250
" />
<path d="M457555000 305231250
L452855000 305231250
" />
<path d="M452855000 307531250
L457555000 307531250
" />
<path d="M457555000 305231250
L457555000 307531250
" />
<path d="M145575000 177691250
L143755000 177691250
" />
<path d="M143755000 178611250
L145575000 178611250
" />
<path d="M143755000 177691250
L143755000 178611250
" />
<path d="M145575000 178611250
L145575000 177691250
" />
<path d="M441355000 307531250
L446055000 307531250
" />
<path d="M446055000 305231250
L446055000 307531250
" />
<path d="M441355000 305231250
L441355000 307531250
" />
<path d="M446055000 305231250
L441355000 305231250
" />
<path d="M-45150000 76856250
L-45150000 79156250
" />
<path d="M-45150000 76856250
L-49850000 76856250
" />
<path d="M-49850000 76856250
L-49850000 79156250
" />
<path d="M-49850000 79156250
L-45150000 79156250
" />
<path d="M390755000 277331250
L385655000 277331250
" />
<path d="M390755000 274031250
L390755000 277331250
" />
<path d="M385655000 277331250
L385655000 274031250
" />
<path d="M385655000 274031250
L390755000 274031250
" />
<path d="M277935000 157541250
L276115000 157541250
" />
<path d="M276115000 157541250
L276115000 158461250
" />
<path d="M277935000 158461250
L277935000 157541250
" />
<path d="M276115000 158461250
L277935000 158461250
" />
<path d="M331305000 206431250
L336005000 206431250
" />
<path d="M331305000 204131250
L331305000 206431250
" />
<path d="M336005000 204131250
L336005000 206431250
" />
<path d="M336005000 204131250
L331305000 204131250
" />
<path d="M-142950000 25656250
L-148050000 25656250
" />
<path d="M-148050000 25656250
L-148050000 22356250
" />
<path d="M-148050000 22356250
L-142950000 22356250
" />
<path d="M-142950000 22356250
L-142950000 25656250
" />
<path d="M163845000 184521250
L165665000 184521250
" />
<path d="M165665000 184521250
L165665000 183601250
" />
<path d="M165665000 183601250
L163845000 183601250
" />
<path d="M163845000 183601250
L163845000 184521250
" />
<path d="M275065000 156491250
L275065000 155571250
" />
<path d="M275065000 155571250
L273245000 155571250
" />
<path d="M273245000 155571250
L273245000 156491250
" />
<path d="M273245000 156491250
L275065000 156491250
" />
<path d="M-38250000 3356250
L-42750000 3356250
" />
<path d="M-38250000 6656250
L-38250000 3356250
" />
<path d="M-42750000 6656250
L-38250000 6656250
" />
<path d="M-42750000 3356250
L-42750000 6656250
" />
<path d="M313505000 200731250
L308405000 200731250
" />
<path d="M313505000 197431250
L313505000 200731250
" />
<path d="M308405000 197431250
L313505000 197431250
" />
<path d="M308405000 200731250
L308405000 197431250
" />
<path d="M313405000 202721250
L313405000 201781250
" />
<path d="M311545000 202721250
L313405000 202721250
" />
<path d="M311545000 201781250
L311545000 202721250
" />
<path d="M313405000 201781250
L311545000 201781250
" />
<path d="M-72950000 31656250
L-78050000 31656250
" />
<path d="M-72950000 28356250
L-72950000 31656250
" />
<path d="M-78050000 28356250
L-72950000 28356250
" />
<path d="M-78050000 31656250
L-78050000 28356250
" />
<path d="M-93850000 20856250
L-93850000 23156250
" />
<path d="M-93850000 23156250
L-89150000 23156250
" />
<path d="M-89150000 20856250
L-89150000 23156250
" />
<path d="M-89150000 20856250
L-93850000 20856250
" />
<path d="M-137590000 20546250
L-139410000 20546250
" />
<path d="M-139410000 21466250
L-137590000 21466250
" />
<path d="M-137590000 21466250
L-137590000 20546250
" />
<path d="M-139410000 20546250
L-139410000 21466250
" />
<path d="M-102150000 79856250
L-106850000 79856250
" />
<path d="M-106850000 82156250
L-102150000 82156250
" />
<path d="M-102150000 79856250
L-102150000 82156250
" />
<path d="M-106850000 79856250
L-106850000 82156250
" />
<path d="M-146850000 20156250
L-142150000 20156250
" />
<path d="M-142150000 17856250
L-142150000 20156250
" />
<path d="M-146850000 17856250
L-146850000 20156250
" />
<path d="M-142150000 17856250
L-146850000 17856250
" />
<path d="M331305000 199731250
L336005000 199731250
" />
<path d="M331305000 197431250
L331305000 199731250
" />
<path d="M336005000 197431250
L331305000 197431250
" />
<path d="M336005000 197431250
L336005000 199731250
" />
<path d="M377535000 269721250
L377535000 270641250
" />
<path d="M379355000 269721250
L377535000 269721250
" />
<path d="M379355000 270641250
L379355000 269721250
" />
<path d="M377535000 270641250
L379355000 270641250
" />
<path d="M330755000 216131250
L325655000 216131250
" />
<path d="M325655000 216131250
L325655000 212831250
" />
<path d="M330755000 212831250
L330755000 216131250
" />
<path d="M325655000 212831250
L330755000 212831250
" />
<path d="M261765000 149661250
L261765000 150581250
" />
<path d="M263585000 150581250
L263585000 149661250
" />
<path d="M261765000 150581250
L263585000 150581250
" />
<path d="M263585000 149661250
L261765000 149661250
" />
<path d="M414655000 298531250
L419755000 298531250
" />
<path d="M419755000 298531250
L419755000 301831250
" />
<path d="M419755000 301831250
L414655000 301831250
" />
<path d="M414655000 301831250
L414655000 298531250
" />
<path d="M-71150000 20856250
L-71150000 23156250
" />
<path d="M-75850000 20856250
L-75850000 23156250
" />
<path d="M-71150000 20856250
L-75850000 20856250
" />
<path d="M-75850000 23156250
L-71150000 23156250
" />
<path d="M437555000 300831250
L442255000 300831250
" />
<path d="M437555000 298531250
L437555000 300831250
" />
<path d="M442255000 298531250
L442255000 300831250
" />
<path d="M442255000 298531250
L437555000 298531250
" />
<path d="M165665000 180581250
L165665000 179661250
" />
<path d="M163845000 179661250
L163845000 180581250
" />
<path d="M165665000 179661250
L163845000 179661250
" />
<path d="M163845000 180581250
L165665000 180581250
" />
<path d="M157055000 185571250
L155235000 185571250
" />
<path d="M157055000 186491250
L157055000 185571250
" />
<path d="M155235000 186491250
L157055000 186491250
" />
<path d="M155235000 185571250
L155235000 186491250
" />
<path d="M158105000 181631250
L158105000 182551250
" />
<path d="M159925000 182551250
L159925000 181631250
" />
<path d="M159925000 181631250
L158105000 181631250
" />
<path d="M158105000 182551250
L159925000 182551250
" />
<path d="M273245000 157541250
L273245000 158461250
" />
<path d="M273245000 158461250
L275065000 158461250
" />
<path d="M275065000 158461250
L275065000 157541250
" />
<path d="M275065000 157541250
L273245000 157541250
" />
<path d="M-81950000 8356250
L-81950000 11656250
" />
<path d="M-81950000 11656250
L-87050000 11656250
" />
<path d="M-87050000 8356250
L-81950000 8356250
" />
<path d="M-87050000 11656250
L-87050000 8356250
" />
<path d="M-54950000 28356250
L-54950000 31656250
" />
<path d="M-60050000 31656250
L-60050000 28356250
" />
<path d="M-60050000 28356250
L-54950000 28356250
" />
<path d="M-54950000 31656250
L-60050000 31656250
" />
<path d="M122175000 6831250
L105875000 6831250
" />
<path d="M122175000 3231250
L122175000 6831250
" />
<path d="M105875000 3231250
L122175000 3231250
" />
<path d="M105875000 6831250
L105875000 3231250
" />
<path d="M-132410000 34466250
L-130590000 34466250
" />
<path d="M-130590000 34466250
L-130590000 33546250
" />
<path d="M-132410000 33546250
L-132410000 34466250
" />
<path d="M-130590000 33546250
L-132410000 33546250
" />
<path d="M-44430000 21536250
L-44430000 22476250
" />
<path d="M-44430000 22476250
L-42570000 22476250
" />
<path d="M-42570000 22476250
L-42570000 21536250
" />
<path d="M-42570000 21536250
L-44430000 21536250
" />
<path d="M428805000 308171250
L428805000 307231250
" />
<path d="M426945000 308171250
L428805000 308171250
" />
<path d="M428805000 307231250
L426945000 307231250
" />
<path d="M426945000 307231250
L426945000 308171250
" />
<path d="M-129050000 28356250
L-123950000 28356250
" />
<path d="M-129050000 31656250
L-129050000 28356250
" />
<path d="M-123950000 28356250
L-123950000 31656250
" />
<path d="M-123950000 31656250
L-129050000 31656250
" />
<path d="M162795000 180581250
L162795000 179661250
" />
<path d="M162795000 179661250
L160975000 179661250
" />
<path d="M160975000 180581250
L162795000 180581250
" />
<path d="M160975000 179661250
L160975000 180581250
" />
<path d="M-134850000 45156250
L-130150000 45156250
" />
<path d="M-130150000 42856250
L-134850000 42856250
" />
<path d="M-130150000 42856250
L-130150000 45156250
" />
<path d="M-134850000 42856250
L-134850000 45156250
" />
<path d="M277935000 149661250
L276115000 149661250
" />
<path d="M276115000 149661250
L276115000 150581250
" />
<path d="M276115000 150581250
L277935000 150581250
" />
<path d="M277935000 150581250
L277935000 149661250
" />
<path d="M398055000 281681250
L403155000 281681250
" />
<path d="M398055000 284981250
L398055000 281681250
" />
<path d="M403155000 284981250
L398055000 284981250
" />
<path d="M403155000 281681250
L403155000 284981250
" />
<path d="M352905000 231981250
L347805000 231981250
" />
<path d="M347805000 228681250
L352905000 228681250
" />
<path d="M352905000 228681250
L352905000 231981250
" />
<path d="M347805000 231981250
L347805000 228681250
" />
<path d="M336875000 5231250
L336875000 3331250
" />
<path d="M333175000 3331250
L333175000 5231250
" />
<path d="M336875000 3331250
L333175000 3331250
" />
<path d="M333175000 5231250
L336875000 5231250
" />
<path d="M-159050000 15656250
L-159050000 12356250
" />
<path d="M-153950000 15656250
L-159050000 15656250
" />
<path d="M-159050000 12356250
L-153950000 12356250
" />
<path d="M-153950000 12356250
L-153950000 15656250
" />
<path d="M155235000 187541250
L155235000 188461250
" />
<path d="M157055000 188461250
L157055000 187541250
" />
<path d="M157055000 187541250
L155235000 187541250
" />
<path d="M155235000 188461250
L157055000 188461250
" />
<path d="M152365000 182551250
L154185000 182551250
" />
<path d="M152365000 181631250
L152365000 182551250
" />
<path d="M154185000 181631250
L152365000 181631250
" />
<path d="M154185000 182551250
L154185000 181631250
" />
<path d="M351225000 244741250
L353045000 244741250
" />
<path d="M353045000 244741250
L353045000 243821250
" />
<path d="M351225000 243821250
L351225000 244741250
" />
<path d="M353045000 243821250
L351225000 243821250
" />
<path d="M119775000 15281250
L119775000 9281250
" />
<path d="M111275000 15281250
L119775000 15281250
" />
<path d="M111275000 9281250
L111275000 15281250
" />
<path d="M119775000 9281250
L111275000 9281250
" />
<path d="M381105000 260331250
L385805000 260331250
" />
<path d="M385805000 258031250
L385805000 260331250
" />
<path d="M385805000 258031250
L381105000 258031250
" />
<path d="M381105000 258031250
L381105000 260331250
" />
<g >
</g>
<g >
</g>
<g >
</g>
<g >
</g>
<g >
</g>
<g >
</g>
<g >
</g>
<g >
</g>
<g >
</g>
<g >
</g>
<g >
</g>
<g >
</g>
<g >
</g>
<g >
</g>
<g >
</g>
<g >
</g>
<g >
</g>
<g >
</g>
<g >
</g>
<g >
</g>
<g >
</g>
<g >
</g>
<g >
</g>
<g >
</g>
<g >
</g>
<g >
</g>
<g >
</g>
<g >
</g>
<g >
</g>
<g >
</g>
<g >
</g>
<g >
</g>
<g >
</g>
<g >
</g>
<g >
</g>
<g >
</g>
<g >
</g>
<g >
</g>
<g >
</g>
<g >
</g>
<g >
</g>
<g >
</g>
<g >
</g>
<g >
</g>
<g >
</g>
<g >
</g>
<g >
</g>
<g >
</g>
<g >
</g>
<g >
</g>
<g >
</g>
<g >
</g>
<g >
</g>
<g >
</g>
<g >
</g>
<g >
</g>
<g >
</g>
<g >
</g>
<g >
</g>
<g >
</g>
<g >
</g>
<g >
</g>
<g >
</g>
<g >
</g>
<g >
</g>
<g >
</g>
<g >
</g>
<g >
</g>
<g >
</g>
<g >
</g>
<g >
</g>
<g >
</g>
<g >
</g>
<g >
</g>
<g >
</g>
<g >
</g>
<g >
</g>
<g >
</g>
<g >
</g>
<g >
</g>
<g >
</g>
<g >
</g>
<g >
</g>
<g >
</g>
<g >
</g>
<g >
</g>
<g >
</g>
<g >
</g>
<g >
</g>
<g >
</g>
<g >
</g>
<g >
</g>
<g >
</g>
<g >
</g>
<g >
</g>
<g >
</g>
<g >
</g>
<g >
</g>
<g >
</g>
<g >
</g>
<g >
</g>
<g >
</g>
<g >
</g>
<g >
</g>
<g >
</g>
<g >
</g>
<g >
</g>
<g >
</g>
<g >
</g>
<g >
</g>
<g >
</g>
<g >
</g>
<g >
</g>
<g >
</g>
<g >
</g>
<g >
</g>
<g >
</g>
<g >
</g>
<g >
</g>
<g >
</g>
<g >
</g>
<g >
</g>
<g >
</g>
<g >
</g>
<g >
</g>
<g >
</g>
<g >
</g>
<g >
</g>
<g >
</g>
<g >
</g>
<g >
</g>
<g >
</g>
<g >
</g>
<g >
</g>
<g >
</g>
<g >
</g>
<g >
</g>
<g >
</g>
<g >
</g>
<g >
</g>
<g >
</g>
<g >
</g>
<g >
</g>
<g >
</g>
<g >
</g>
<g >
</g>
<g >
</g>
<g >
</g>
<g >
</g>
<g >
</g>
<g >
</g>
<g >
</g>
<g >
</g>
<g >
</g>
<g >
</g>
<g >
</g>
<g >
</g>
<g >
</g>
<g >
</g>
<g >
</g>
<g >
</g>
<g >
</g>
<g >
</g>
<g >
</g>
<g >
</g>
<g >
</g>
<g >
</g>
<g >
</g>
<g >
</g>
<g >
</g>
<g >
</g>
<g >
</g>
<g >
</g>
<g >
</g>
<g >
</g>
<g >
</g>
<g >
</g>
<g >
</g>
<g >
</g>
<g >
</g>
<g >
</g>
<g >
</g>
<g >
</g>
<g >
</g>
<g >
</g>
<g >
</g>
<g >
</g>
<g >
</g>
<g >
</g>
<g >
</g>
<g >
</g>
<g >
</g>
<g >
</g>
<g >
</g>
<g >
</g>
<g >
</g>
<g >
</g>
<g >
</g>
<g >
</g>
<g >
</g>
<g >
</g>
<g >
</g>
<g >
</g>
<g >
</g>
<g >
</g>
<g >
</g>
<g >
</g>
<g >
</g>
<g >
</g>
<g >
</g>
<g >
</g>
<g >
</g>
<g >
</g>
<g >
</g>
<g >
</g>
<g >
</g>
<g >
</g>
<g >
</g>
<g >
</g>
<g >
</g>
<g >
</g>
<g >
</g>
<g >
</g>
<g >
</g>
<g >
</g>
<g >
</g>
<g >
</g>
<g >
</g>
<g >
</g>
<g >
</g>
<g >
</g>
<g >
</g>
<g >
</g>
<g >
</g>
<g >
</g>
<g >
</g>
<g >
</g>
<g >
</g>
<g >
</g>
<g >
</g>
<g >
</g>
<g >
</g>
<g >
</g>
<g >
</g>
<g >
</g>
<g >
</g>
<g >
</g>
<g >
</g>
<g >
</g>
<g >
</g>
<g >
</g>
<g >
</g>
<g >
</g>
<g >
</g>
<g >
</g>
<g >
</g>
<g >
</g>
<g >
</g>
<g >
</g>
<g >
</g>
<g >
</g>
<g >
</g>
<g >
</g>
<g >
</g>
<g >
</g>
<g >
</g>
<g >
</g>
<g >
</g>
<g >
</g>
<g >
</g>
<g >
</g>
<g >
</g>
<g >
</g>
<g >
</g>
<g >
</g>
<g >
</g>
<g >
</g>
<g >
</g>
<g >
</g>
<g >
</g>
<g >
</g>
<g >
</g>
<g >
</g>
<g >
</g>
<g >
</g>
<g >
</g>
<g >
</g>
<g >
</g>
<g >
</g>
<g >
</g>
<g >
</g>
<g >
</g>
<g >
</g>
<g >
</g>
<g >
</g>
<g >
</g>
<g >
</g>
<g >
</g>
<g >
</g>
<g >
</g>
<g >
</g>
<g >
</g>
<g >
</g>
<g >
</g>
<g >
</g>
<g >
</g>
<g >
</g>
<g >
</g>
<g >
</g>
<g >
</g>
<g >
</g>
<g >
</g>
<g >
</g>
<g >
</g>
<g >
</g>
<g >
</g>
<g >
</g>
<g >
</g>
<g >
</g>
<g >
</g>
<g >
</g>
<g >
</g>
<g >
</g>
<g >
</g>
<g >
</g>
<g >
</g>
<g >
</g>
<g >
</g>
<g >
</g>
<g >
</g>
<g >
</g>
<g >
</g>
<g >
</g>
<g >
</g>
<g >
</g>
<g >
</g>
<g >
</g>
<g >
</g>
<g >
</g>
<g >
</g>
<g >
</g>
<g >
</g>
<g >
</g>
<g >
</g>
<g >
</g>
<g >
</g>
<g >
</g>
<g >
</g>
<g >
</g>
<g >
</g>
<g >
</g>
<g >
</g>
<g >
</g>
<g >
</g>
<g >
</g>
<g >
</g>
<g >
</g>
<g >
</g>
<g >
</g>
<g >
</g>
<g >
</g>
<g >
</g>
<g >
</g>
<g >
</g>
<g >
</g>
<g >
</g>
<g >
</g>
<g >
</g>
<g >
</g>
<g >
</g>
<g >
</g>
<g >
</g>
<g >
</g>
<g >
</g>
<g >
</g>
<g >
</g>
<g >
</g>
<g >
</g>
<g >
</g>
<g >
</g>
<g >
</g>
<g >
</g>
<g >
</g>
<g >
</g>
<g >
</g>
<g >
</g>
<g >
</g>
<g >
</g>
<g >
</g>
<g >
</g>
<g >
</g>
<g >
</g>
<g >
</g>
<g >
</g>
<g >
</g>
<g >
</g>
<g >
</g>
<g >
</g>
<g >
</g>
<g >
</g>
<g >
</g>
<g >
</g>
</g>
<g style="fill:#000000; fill-opacity:0.0; 
stroke:#000000; stroke-width:50000.000000; stroke-opacity:1; 
stroke-linecap:round; stroke-linejoin:round;">
</g>
<g style="fill:#D0D2CD; fill-opacity:0.0; 
stroke:#D0D2CD; stroke-width:50000.000000; stroke-opacity:1; 
stroke-linecap:round; stroke-linejoin:round;">
<path d="M174525000.000000 27031250.000000 A2000000.000000 2000000.000000 0.0 0 0 172525000.000000 29031250.000000" />
<path d="M15025875 6656250
L24025875 6656250
" />
<path d="M25000.000000 96031250.000000 A4000000.000000 4000000.000000 0.0 0 0 4025000.000000 100031250.000000" />
<path d="M172525000 63031250
L172525000 96031250
" />
<path d="M345025000 96031250
L345025000 4031250
" />
<path d="M185525000.000000 31250.000000 A4000000.000000 4000000.000000 0.0 0 0 181525000.000000 4031250.000000" />
<path d="M179025000 61031250
L184025000 61031250
" />
<path d="M172525000 29031250
L172525000 42031250
" />
<path d="M166025000 27031250
L161025000 27031250
" />
<path d="M168025000.000000 4031250.000000 A4000000.000000 4000000.000000 0.0 0 0 164025000.000000 31250.000000" />
<path d="M161025000 44031250
L161525000 44031250
" />
<path d="M172525000.000000 42031250.000000 A2000000.000000 2000000.000000 0.0 0 0 174525000.000000 44031250.000000" />
<path d="M159025000.000000 42031250.000000 A2000000.000000 2000000.000000 0.0 0 0 161025000.000000 44031250.000000" />
<path d="M24025875 6656250
L24025875 37500
" />
<path d="M163525000.000000 59031250.000000 A2000000.000000 2000000.000000 0.0 0 0 165525000.000000 61031250.000000" />
<path d="M321024125 25000
L321025000 6650000
" />
<path d="M321025000 31250
L185525000 31250
" />
<path d="M161025000.000000 27031250.000000 A2000000.000000 2000000.000000 0.0 0 0 159025000.000000 29031250.000000" />
<path d="M25000 96031250
L25000 4031250
" />
<path d="M15025000 31250
L4025000 31250
" />
<path d="M168525000 100031250
L4025000 100031250
" />
<path d="M165525000 61031250
L170525000 61031250
" />
<path d="M177025000 46031250
L177025000 59031250
" />
<path d="M15025000 31250
L15025875 6656250
" />
<path d="M163525000 46031250
L163525000 59031250
" />
<path d="M186025000.000000 63031250.000000 A2000000.000000 2000000.000000 0.0 0 0 184025000.000000 61031250.000000" />
<path d="M330025000 31250
L341025000 31250
" />
<path d="M321025000 6650000
L330025000 6650000
" />
<path d="M179525000 27031250
L174525000 27031250
" />
<path d="M174525000 44031250
L175025000 44031250
" />
<path d="M177025000.000000 59031250.000000 A2000000.000000 2000000.000000 0.0 0 0 179025000.000000 61031250.000000" />
<path d="M24025875 37500
L164025000 31250
" />
<path d="M345025000.000000 4031250.000000 A4000000.000000 4000000.000000 0.0 0 0 341025000.000000 31250.000000" />
<path d="M186025000.000000 96031250.000000 A4000000.000000 4000000.000000 0.0 0 0 190025000.000000 100031250.000000" />
<path d="M341025000.000000 100031250.000000 A4000000.000000 4000000.000000 0.0 0 0 345025000.000000 96031250.000000" />
<path d="M181525000 4031250
L181525000 25031250
" />
<path d="M186025000 63031250
L186025000 96031250
" />
<path d="M168525000.000000 100031250.000000 A4000000.000000 4000000.000000 0.0 0 0 172525000.000000 96031250.000000" />
<path d="M163525000.000000 46031250.000000 A2000000.000000 2000000.000000 0.0 0 0 161525000.000000 44031250.000000" />
<path d="M168025000 4031250
L168025000 25031250
" />
<path d="M179525000.000000 27031250.000000 A2000000.000000 2000000.000000 0.0 0 0 181525000.000000 25031250.000000" />
<path d="M177025000.000000 46031250.000000 A2000000.000000 2000000.000000 0.0 0 0 175025000.000000 44031250.000000" />
<path d="M4025000.000000 31250.000000 A4000000.000000 4000000.000000 0.0 0 0 25000.000000 4031250.000000" />
<path d="M190025000 100031250
L341025000 100031250
" />
<path d="M330025000 6650000
L330025000 31250
" />
<path d="M159025000 29031250
L159025000 42031250
" />
<path d="M166025000.000000 27031250.000000 A2000000.000000 2000000.000000 0.0 0 0 168025000.000000 25031250.000000" />
<path d="M172525000.000000 63031250.000000 A2000000.000000 2000000.000000 0.0 0 0 170525000.000000 61031250.000000" />
</g>
<g style="fill:#D0D2CD; fill-opacity:0.0; 
stroke:#D0D2CD; stroke-width:120000.000000; stroke-opacity:1; 
stroke-linecap:round; stroke-linejoin:round;">
<path d="M6525000 11531250
L15525000 11531250
" />
<path d="M15525000 11531250
L15525000 25531250
" />
<path d="M15525000 25531250
L6525000 25531250
" />
<path d="M6525000 25531250
L6525000 11531250
" />
<g >
</g>
<g >
</g>
<g >
</g>
<g >
</g>
<g >
</g>
<g >
</g>
<g >
</g>
<g >
</g>
<g >
</g>
<g >
</g>
<g >
</g>
<g >
</g>
<g >
</g>
<g >
</g>
<g >
</g>
<g >
</g>
<g >
</g>
<g >
</g>
<g >
</g>
<g >
</g>
<g >
</g>
<g >
</g>
<g >
</g>
<g >
</g>
<g >
</g>
<g >
</g>
<g >
</g>
<g >
</g>
<g >
</g>
<g >
</g>
<g >
</g>
<g >
</g>
<g >
</g>
<g >
</g>
<g >
</g>
<g >
</g>
<g >
</g>
<g >
</g>
<g >
</g>
<g >
</g>
<g >
</g>
<g >
</g>
<g >
</g>
<g >
</g>
<g >
</g>
<g >
</g>
<g >
</g>
<g >
</g>
<g >
</g>
<g >
</g>
<g >
</g>
<g >
</g>
<g >
</g>
<g >
</g>
<g >
</g>
<g >
</g>
<g >
</g>
<g >
</g>
<g >
</g>
<g >
</g>
<g >
</g>
<g >
</g>
<g >
</g>
<g >
</g>
<g >
</g>
<g >
</g>
<g >
</g>
<g >
</g>
<g >
</g>
<g >
</g>
<g >
</g>
<g >
</g>
<g >
</g>
<g >
</g>
<g >
</g>
<g >
</g>
<g >
</g>
<g >
</g>
<g >
</g>
<g >
</g>
<g >
</g>
<g >
</g>
<g >
</g>
<g >
</g>
<g >
</g>
<g >
</g>
<g >
</g>
<g >
</g>
<g >
</g>
<g >
</g>
<g >
</g>
<g >
</g>
<g >
</g>
<g >
</g>
<g >
</g>
<g >
</g>
<g >
</g>
<g >
</g>
<g >
</g>
<g >
</g>
<g >
</g>
<g >
</g>
<g >
</g>
<g >
</g>
<g >
</g>
<g >
</g>
<g >
</g>
<g >
</g>
<g >
</g>
<g >
</g>
<g >
</g>
<g >
</g>
<g >
</g>
<g >
</g>
<g >
</g>
<g >
</g>
<g >
</g>
<g >
</g>
<g >
</g>
<g >
</g>
<g >
</g>
<g >
</g>
<g >
</g>
<g >
</g>
<g >
</g>
<g >
</g>
<g >
</g>
<g >
</g>
<g >
</g>
<g >
</g>
<g >
</g>
<g >
</g>
<g >
</g>
<g >
</g>
<g >
</g>
<g >
</g>
<g >
</g>
<g >
</g>
<g >
</g>
<g >
</g>
<g >
</g>
<g >
</g>
<g >
</g>
<g >
</g>
<g >
</g>
<g >
</g>
<g >
</g>
<g >
</g>
<g >
</g>
<g >
</g>
<g >
</g>
<g >
</g>
<g >
</g>
<g >
</g>
<g >
</g>
<g >
</g>
<g >
</g>
<g >
</g>
<g >
</g>
<g >
</g>
<g >
</g>
<g >
</g>
<g >
</g>
<g >
</g>
<g >
</g>
<g >
</g>
<g >
</g>
<g >
</g>
<g >
</g>
<g >
</g>
<g >
</g>
<g >
</g>
<g >
</g>
<g >
</g>
<g >
</g>
<g >
</g>
<g >
</g>
<g >
</g>
<g >
</g>
<g >
</g>
<g >
</g>
<g >
</g>
<g >
</g>
<g >
</g>
<g >
</g>
<g >
</g>
<g >
</g>
<g >
</g>
<g >
</g>
<g >
</g>
<g >
</g>
<g >
</g>
<g >
</g>
<g >
</g>
<g >
</g>
<g >
</g>
<g >
</g>
<g >
</g>
<g >
</g>
<g >
</g>
<g >
</g>
<g >
</g>
<g >
</g>
<g >
</g>
<g >
</g>
<g >
</g>
<g >
</g>
<g >
</g>
<g >
</g>
<g >
</g>
<g >
</g>
<g >
</g>
<g >
</g>
<g >
</g>
<g >
</g>
<g >
</g>
<g >
</g>
<g >
</g>
<g >
</g>
<g >
</g>
<g >
</g>
<g >
</g>
<g >
</g>
<g >
</g>
<g >
</g>
<g >
</g>
<g >
</g>
<g >
</g>
<g >
</g>
<g >
</g>
<g >
</g>
<g >
</g>
<g >
</g>
<g >
</g>
<g >
</g>
<g >
</g>
<g >
</g>
<g >
</g>
<g >
</g>
<g >
</g>
<g >
</g>
<g >
</g>
<g >
</g>
<g >
</g>
<g >
</g>
<g >
</g>
<g >
</g>
<g >
</g>
<g >
</g>
<g >
</g>
<g >
</g>
<g >
</g>
<g >
</g>
<g >
</g>
<g >
</g>
<g >
</g>
<g >
</g>
<g >
</g>
<g >
</g>
<g >
</g>
<g >
</g>
<g >
</g>
<g >
</g>
<g >
</g>
<g >
</g>
<g >
</g>
<g >
</g>
<g >
</g>
<g >
</g>
<g >
</g>
<g >
</g>
<g >
</g>
<g >
</g>
<g >
</g>
<g >
</g>
<g >
</g>
<g >
</g>
<g >
</g>
<g >
</g>
<g >
</g>
<g >
</g>
<g >
</g>
<g >
</g>
<g >
</g>
<g >
</g>
<g >
</g>
<g >
</g>
<g >
</g>
<g >
</g>
<g >
</g>
<g >
</g>
<g >
</g>
<g >
</g>
<g >
</g>
<g >
</g>
<g >
</g>
<g >
</g>
<g >
</g>
<g >
</g>
<g >
</g>
<g >
</g>
<g >
</g>
<g >
</g>
<g >
</g>
<g >
</g>
<g >
</g>
<g >
</g>
<g >
</g>
<g >
</g>
<g >
</g>
<g >
</g>
<g >
</g>
<g >
</g>
<g >
</g>
<g >
</g>
<g >
</g>
<g >
</g>
<g >
</g>
<g >
</g>
<g >
</g>
<g >
</g>
<g >
</g>
<g >
</g>
<g >
</g>
<g >
</g>
<g >
</g>
<g >
</g>
<g >
</g>
<g >
</g>
<g >
</g>
<g >
</g>
<g >
</g>
<g >
</g>
<g >
</g>
<g >
</g>
<g >
</g>
<g >
</g>
<g >
</g>
<g >
</g>
<g >
</g>
<g >
</g>
<g >
</g>
<g >
</g>
<g >
</g>
<g >
</g>
<g >
</g>
<g >
</g>
<g >
</g>
<g >
</g>
<g >
</g>
<g >
</g>
<g >
</g>
<g >
</g>
<g >
</g>
<g >
</g>
<g >
</g>
<g >
</g>
<g >
</g>
<g >
</g>
<g >
</g>
<g >
</g>
<g >
</g>
<g >
</g>
<g >
</g>
<g >
</g>
<g >
</g>
<g >
</g>
<g >
</g>
<g >
</g>
<g >
</g>
<g >
</g>
<g >
</g>
<g >
</g>
<g >
</g>
<g >
</g>
<g >
</g>
<g >
</g>
<g >
</g>
<g >
</g>
<g >
</g>
<g >
</g>
<g >
</g>
<g >
</g>
<g >
</g>
<g >
</g>
<g >
</g>
<g >
</g>
<g >
</g>
<g >
</g>
<g >
</g>
<g >
</g>
<g >
</g>
<g >
</g>
<g >
</g>
<g >
</g>
<g >
</g>
<g >
</g>
<g >
</g>
<g >
</g>
<g >
</g>
<g >
</g>
<g >
</g>
</g> 
</svg>
