<?xml version="1.0" standalone="no"?>
 <!DOCTYPE svg PUBLIC "-//W3C//DTD SVG 1.1//EN" 
 "http://www.w3.org/Graphics/SVG/1.1/DTD/svg11.dtd"> 
<svg
  xmlns:svg="http://www.w3.org/2000/svg"
  xmlns="http://www.w3.org/2000/svg"
  xmlns:xlink="http://www.w3.org/1999/xlink"
  version="1.1"
  width="34.503360cm" height="10.005060cm" viewBox="0 0 345033600 100050600">
<title>SVG Picture created as halfjunk-User_Eco2.svg date 2022/08/22 12:09:22 </title>
  <desc>Picture generated by PCBNEW </desc>
<g style="fill:#000000; fill-opacity:1.000000;stroke:#000000; stroke-opacity:1.000000;
stroke-linecap:round; stroke-linejoin:round;"
 transform="translate(0 0) scale(1 1)">
</g>
<g style="fill:#000000; fill-opacity:0.0; 
stroke:#000000; stroke-width:0.000000; stroke-opacity:1; 
stroke-linecap:round; stroke-linejoin:round;">
</g>
<g style="fill:#D8C852; fill-opacity:0.0; 
stroke:#D8C852; stroke-width:0.000000; stroke-opacity:1; 
stroke-linecap:round; stroke-linejoin:round;">
</g>
<g style="fill:#D8C852; fill-opacity:0.0; 
stroke:#D8C852; stroke-width:150000.000000; stroke-opacity:1; 
stroke-linecap:round; stroke-linejoin:round;">
<path d="M98625000 29231250
L93425000 29231250
" />
<path d="M93425000 32431250
L98625000 32431250
" />
<path d="M102925000 28631250
L102925000 42431250
" />
<path d="M89125000 42431250
L89125000 28631250
" />
<path d="M93425000 32431250
L93425000 29231250
" />
<path d="M98625000 32431250
L98625000 29231250
" />
<path d="M102925000 28631250
L89125000 28631250
" />
<path d="M89125000 42431250
L102925000 42431250
" />
<path d="M215425000 11631250
L215425000 25431250
" />
<path d="M201625000 25431250
L201625000 11631250
" />
<path d="M211125000 15431250
L211125000 12231250
" />
<path d="M211125000 12231250
L205925000 12231250
" />
<path d="M205925000 15431250
L205925000 12231250
" />
<path d="M201625000 25431250
L215425000 25431250
" />
<path d="M205925000 15431250
L211125000 15431250
" />
<path d="M215425000 11631250
L201625000 11631250
" />
<path d="M111925000 11631250
L111925000 25431250
" />
<path d="M111925000 11631250
L98125000 11631250
" />
<path d="M107625000 12231250
L102425000 12231250
" />
<path d="M98125000 25431250
L111925000 25431250
" />
<path d="M102425000 15431250
L107625000 15431250
" />
<path d="M102425000 15431250
L102425000 12231250
" />
<path d="M107625000 15431250
L107625000 12231250
" />
<path d="M98125000 25431250
L98125000 11631250
" />
<path d="M84925000 28631250
L84925000 42431250
" />
<path d="M71125000 42431250
L84925000 42431250
" />
<path d="M80625000 32431250
L80625000 29231250
" />
<path d="M75425000 32431250
L75425000 29231250
" />
<path d="M75425000 32431250
L80625000 32431250
" />
<path d="M80625000 29231250
L75425000 29231250
" />
<path d="M84925000 28631250
L71125000 28631250
" />
<path d="M71125000 42431250
L71125000 28631250
" />
<path d="M75925000 11631250
L75925000 25431250
" />
<path d="M71625000 15431250
L71625000 12231250
" />
<path d="M66425000 15431250
L66425000 12231250
" />
<path d="M75925000 11631250
L62125000 11631250
" />
<path d="M66425000 15431250
L71625000 15431250
" />
<path d="M71625000 12231250
L66425000 12231250
" />
<path d="M62125000 25431250
L62125000 11631250
" />
<path d="M62125000 25431250
L75925000 25431250
" />
<path d="M269425000 11631250
L269425000 25431250
" />
<path d="M269425000 11631250
L255625000 11631250
" />
<path d="M255625000 25431250
L255625000 11631250
" />
<path d="M259925000 15431250
L259925000 12231250
" />
<path d="M265125000 12231250
L259925000 12231250
" />
<path d="M265125000 15431250
L265125000 12231250
" />
<path d="M259925000 15431250
L265125000 15431250
" />
<path d="M255625000 25431250
L269425000 25431250
" />
<path d="M134425000 62631250
L120625000 62631250
" />
<path d="M130125000 66431250
L130125000 63231250
" />
<path d="M134425000 62631250
L134425000 76431250
" />
<path d="M120625000 76431250
L134425000 76431250
" />
<path d="M120625000 76431250
L120625000 62631250
" />
<path d="M130125000 63231250
L124925000 63231250
" />
<path d="M124925000 66431250
L130125000 66431250
" />
<path d="M124925000 66431250
L124925000 63231250
" />
<path d="M97925000 49431250
L97925000 46231250
" />
<path d="M103125000 49431250
L103125000 46231250
" />
<path d="M107425000 45631250
L93625000 45631250
" />
<path d="M107425000 45631250
L107425000 59431250
" />
<path d="M93625000 59431250
L93625000 45631250
" />
<path d="M93625000 59431250
L107425000 59431250
" />
<path d="M97925000 49431250
L103125000 49431250
" />
<path d="M103125000 46231250
L97925000 46231250
" />
<path d="M143425000 45631250
L143425000 59431250
" />
<path d="M129625000 59431250
L143425000 59431250
" />
<path d="M139125000 49431250
L139125000 46231250
" />
<path d="M139125000 46231250
L133925000 46231250
" />
<path d="M133925000 49431250
L139125000 49431250
" />
<path d="M133925000 49431250
L133925000 46231250
" />
<path d="M143425000 45631250
L129625000 45631250
" />
<path d="M129625000 59431250
L129625000 45631250
" />
<path d="M121125000 49431250
L121125000 46231250
" />
<path d="M111625000 59431250
L111625000 45631250
" />
<path d="M121125000 46231250
L115925000 46231250
" />
<path d="M125425000 45631250
L125425000 59431250
" />
<path d="M125425000 45631250
L111625000 45631250
" />
<path d="M115925000 49431250
L121125000 49431250
" />
<path d="M111625000 59431250
L125425000 59431250
" />
<path d="M115925000 49431250
L115925000 46231250
" />
<path d="M152125000 25431250
L152125000 11631250
" />
<path d="M165925000 11631250
L165925000 25431250
" />
<path d="M156425000 15431250
L156425000 12231250
" />
<path d="M161625000 12231250
L156425000 12231250
" />
<path d="M152125000 25431250
L165925000 25431250
" />
<path d="M156425000 15431250
L161625000 15431250
" />
<path d="M165925000 11631250
L152125000 11631250
" />
<path d="M161625000 15431250
L161625000 12231250
" />
<path d="M309625000 76431250
L323425000 76431250
" />
<path d="M319125000 66431250
L319125000 63231250
" />
<path d="M313925000 66431250
L319125000 66431250
" />
<path d="M323425000 62631250
L309625000 62631250
" />
<path d="M319125000 63231250
L313925000 63231250
" />
<path d="M309625000 76431250
L309625000 62631250
" />
<path d="M313925000 66431250
L313925000 63231250
" />
<path d="M323425000 62631250
L323425000 76431250
" />
<path d="M203675000 83431250
L203675000 80231250
" />
<path d="M199375000 93431250
L213175000 93431250
" />
<path d="M199375000 93431250
L199375000 79631250
" />
<path d="M203675000 83431250
L208875000 83431250
" />
<path d="M208875000 80231250
L203675000 80231250
" />
<path d="M208875000 83431250
L208875000 80231250
" />
<path d="M213175000 79631250
L213175000 93431250
" />
<path d="M213175000 79631250
L199375000 79631250
" />
<path d="M284875000 76431250
L298675000 76431250
" />
<path d="M294375000 66431250
L294375000 63231250
" />
<path d="M298675000 62631250
L284875000 62631250
" />
<path d="M289175000 66431250
L289175000 63231250
" />
<path d="M284875000 76431250
L284875000 62631250
" />
<path d="M289175000 66431250
L294375000 66431250
" />
<path d="M294375000 63231250
L289175000 63231250
" />
<path d="M298675000 62631250
L298675000 76431250
" />
<path d="M206625000 49431250
L206625000 46231250
" />
<path d="M210925000 45631250
L210925000 59431250
" />
<path d="M197125000 59431250
L210925000 59431250
" />
<path d="M201425000 49431250
L206625000 49431250
" />
<path d="M206625000 46231250
L201425000 46231250
" />
<path d="M201425000 49431250
L201425000 46231250
" />
<path d="M210925000 45631250
L197125000 45631250
" />
<path d="M197125000 59431250
L197125000 45631250
" />
<path d="M134625000 32431250
L134625000 29231250
" />
<path d="M138925000 28631250
L138925000 42431250
" />
<path d="M125125000 42431250
L138925000 42431250
" />
<path d="M138925000 28631250
L125125000 28631250
" />
<path d="M125125000 42431250
L125125000 28631250
" />
<path d="M129425000 32431250
L134625000 32431250
" />
<path d="M129425000 32431250
L129425000 29231250
" />
<path d="M134625000 29231250
L129425000 29231250
" />
<path d="M151925000 49431250
L151925000 46231250
" />
<path d="M147625000 59431250
L147625000 45631250
" />
<path d="M161425000 45631250
L147625000 45631250
" />
<path d="M147625000 59431250
L161425000 59431250
" />
<path d="M161425000 45631250
L161425000 59431250
" />
<path d="M157125000 46231250
L151925000 46231250
" />
<path d="M151925000 49431250
L157125000 49431250
" />
<path d="M157125000 49431250
L157125000 46231250
" />
<path d="M17425000 28631250
L3625000 28631250
" />
<path d="M7925000 32431250
L13125000 32431250
" />
<path d="M13125000 29231250
L7925000 29231250
" />
<path d="M17425000 28631250
L17425000 42431250
" />
<path d="M3625000 42431250
L3625000 28631250
" />
<path d="M7925000 32431250
L7925000 29231250
" />
<path d="M13125000 32431250
L13125000 29231250
" />
<path d="M3625000 42431250
L17425000 42431250
" />
<path d="M46375000 93431250
L60175000 93431250
" />
<path d="M55875000 83431250
L55875000 80231250
" />
<path d="M50675000 83431250
L55875000 83431250
" />
<path d="M60175000 79631250
L60175000 93431250
" />
<path d="M60175000 79631250
L46375000 79631250
" />
<path d="M50675000 83431250
L50675000 80231250
" />
<path d="M55875000 80231250
L50675000 80231250
" />
<path d="M46375000 93431250
L46375000 79631250
" />
<path d="M341425000 79631250
L327625000 79631250
" />
<path d="M331925000 83431250
L331925000 80231250
" />
<path d="M337125000 83431250
L337125000 80231250
" />
<path d="M331925000 83431250
L337125000 83431250
" />
<path d="M337125000 80231250
L331925000 80231250
" />
<path d="M341425000 79631250
L341425000 93431250
" />
<path d="M327625000 93431250
L341425000 93431250
" />
<path d="M327625000 93431250
L327625000 79631250
" />
<path d="M219925000 62631250
L206125000 62631250
" />
<path d="M206125000 76431250
L206125000 62631250
" />
<path d="M206125000 76431250
L219925000 76431250
" />
<path d="M210425000 66431250
L215625000 66431250
" />
<path d="M215625000 63231250
L210425000 63231250
" />
<path d="M219925000 62631250
L219925000 76431250
" />
<path d="M210425000 66431250
L210425000 63231250
" />
<path d="M215625000 66431250
L215625000 63231250
" />
<path d="M233625000 63231250
L228425000 63231250
" />
<path d="M224125000 76431250
L237925000 76431250
" />
<path d="M228425000 66431250
L228425000 63231250
" />
<path d="M228425000 66431250
L233625000 66431250
" />
<path d="M237925000 62631250
L224125000 62631250
" />
<path d="M233625000 66431250
L233625000 63231250
" />
<path d="M237925000 62631250
L237925000 76431250
" />
<path d="M224125000 76431250
L224125000 62631250
" />
<path d="M89425000 45631250
L89425000 59431250
" />
<path d="M85125000 49431250
L85125000 46231250
" />
<path d="M85125000 46231250
L79925000 46231250
" />
<path d="M89425000 45631250
L75625000 45631250
" />
<path d="M75625000 59431250
L89425000 59431250
" />
<path d="M75625000 59431250
L75625000 45631250
" />
<path d="M79925000 49431250
L79925000 46231250
" />
<path d="M79925000 49431250
L85125000 49431250
" />
<path d="M7925000 66431250
L13125000 66431250
" />
<path d="M3625000 76431250
L3625000 62631250
" />
<path d="M13125000 66431250
L13125000 63231250
" />
<path d="M13125000 63231250
L7925000 63231250
" />
<path d="M17425000 62631250
L3625000 62631250
" />
<path d="M7925000 66431250
L7925000 63231250
" />
<path d="M3625000 76431250
L17425000 76431250
" />
<path d="M17425000 62631250
L17425000 76431250
" />
<path d="M237625000 25431250
L237625000 11631250
" />
<path d="M247125000 12231250
L241925000 12231250
" />
<path d="M241925000 15431250
L247125000 15431250
" />
<path d="M251425000 11631250
L237625000 11631250
" />
<path d="M247125000 15431250
L247125000 12231250
" />
<path d="M241925000 15431250
L241925000 12231250
" />
<path d="M251425000 11631250
L251425000 25431250
" />
<path d="M237625000 25431250
L251425000 25431250
" />
<path d="M337125000 15431250
L337125000 12231250
" />
<path d="M327625000 25431250
L341425000 25431250
" />
<path d="M327625000 25431250
L327625000 11631250
" />
<path d="M331925000 15431250
L331925000 12231250
" />
<path d="M331925000 15431250
L337125000 15431250
" />
<path d="M337125000 12231250
L331925000 12231250
" />
<path d="M341425000 11631250
L341425000 25431250
" />
<path d="M341425000 11631250
L327625000 11631250
" />
<path d="M223925000 15431250
L229125000 15431250
" />
<path d="M233425000 11631250
L219625000 11631250
" />
<path d="M233425000 11631250
L233425000 25431250
" />
<path d="M223925000 15431250
L223925000 12231250
" />
<path d="M219625000 25431250
L219625000 11631250
" />
<path d="M229125000 15431250
L229125000 12231250
" />
<path d="M219625000 25431250
L233425000 25431250
" />
<path d="M229125000 12231250
L223925000 12231250
" />
<path d="M318925000 28631250
L305125000 28631250
" />
<path d="M314625000 29231250
L309425000 29231250
" />
<path d="M309425000 32431250
L314625000 32431250
" />
<path d="M314625000 32431250
L314625000 29231250
" />
<path d="M318925000 28631250
L318925000 42431250
" />
<path d="M309425000 32431250
L309425000 29231250
" />
<path d="M305125000 42431250
L318925000 42431250
" />
<path d="M305125000 42431250
L305125000 28631250
" />
<path d="M25925000 15431250
L31125000 15431250
" />
<path d="M31125000 12231250
L25925000 12231250
" />
<path d="M21625000 25431250
L35425000 25431250
" />
<path d="M35425000 11631250
L35425000 25431250
" />
<path d="M35425000 11631250
L21625000 11631250
" />
<path d="M31125000 15431250
L31125000 12231250
" />
<path d="M21625000 25431250
L21625000 11631250
" />
<path d="M25925000 15431250
L25925000 12231250
" />
<path d="M202125000 32431250
L202125000 29231250
" />
<path d="M206425000 28631250
L206425000 42431250
" />
<path d="M192625000 42431250
L206425000 42431250
" />
<path d="M206425000 28631250
L192625000 28631250
" />
<path d="M192625000 42431250
L192625000 28631250
" />
<path d="M202125000 29231250
L196925000 29231250
" />
<path d="M196925000 32431250
L202125000 32431250
" />
<path d="M196925000 32431250
L196925000 29231250
" />
<path d="M116125000 25431250
L129925000 25431250
" />
<path d="M129925000 11631250
L116125000 11631250
" />
<path d="M125625000 12231250
L120425000 12231250
" />
<path d="M116125000 25431250
L116125000 11631250
" />
<path d="M120425000 15431250
L125625000 15431250
" />
<path d="M125625000 15431250
L125625000 12231250
" />
<path d="M120425000 15431250
L120425000 12231250
" />
<path d="M129925000 11631250
L129925000 25431250
" />
<path d="M17425000 45631250
L3625000 45631250
" />
<path d="M13125000 46231250
L7925000 46231250
" />
<path d="M7925000 49431250
L13125000 49431250
" />
<path d="M3625000 59431250
L17425000 59431250
" />
<path d="M7925000 49431250
L7925000 46231250
" />
<path d="M3625000 59431250
L3625000 45631250
" />
<path d="M17425000 45631250
L17425000 59431250
" />
<path d="M13125000 49431250
L13125000 46231250
" />
<path d="M269125000 93431250
L269125000 79631250
" />
<path d="M278625000 83431250
L278625000 80231250
" />
<path d="M282925000 79631250
L282925000 93431250
" />
<path d="M273425000 83431250
L273425000 80231250
" />
<path d="M269125000 93431250
L282925000 93431250
" />
<path d="M282925000 79631250
L269125000 79631250
" />
<path d="M273425000 83431250
L278625000 83431250
" />
<path d="M278625000 80231250
L273425000 80231250
" />
<path d="M111425000 32431250
L116625000 32431250
" />
<path d="M111425000 32431250
L111425000 29231250
" />
<path d="M107125000 42431250
L107125000 28631250
" />
<path d="M120925000 28631250
L120925000 42431250
" />
<path d="M116625000 32431250
L116625000 29231250
" />
<path d="M120925000 28631250
L107125000 28631250
" />
<path d="M107125000 42431250
L120925000 42431250
" />
<path d="M116625000 29231250
L111425000 29231250
" />
</g>
<g style="fill:#D8C852; fill-opacity:0.0; 
stroke:#D8C852; stroke-width:120000.000000; stroke-opacity:1; 
stroke-linecap:round; stroke-linejoin:round;">
<path d="M1775000 10281250
L19275000 10281250
" />
<path d="M19275000 10281250
L19275000 26781250
" />
<path d="M19275000 26781250
L1775000 26781250
" />
<path d="M1775000 26781250
L1775000 10281250
" />
</g>
<g style="fill:#D8C852; fill-opacity:0.0; 
stroke:#D8C852; stroke-width:150000.000000; stroke-opacity:1; 
stroke-linecap:round; stroke-linejoin:round;">
<path d="M73175000 83431250
L73175000 80231250
" />
<path d="M73175000 83431250
L78375000 83431250
" />
<path d="M68875000 93431250
L82675000 93431250
" />
<path d="M68875000 93431250
L68875000 79631250
" />
<path d="M78375000 80231250
L73175000 80231250
" />
<path d="M82675000 79631250
L82675000 93431250
" />
<path d="M82675000 79631250
L68875000 79631250
" />
<path d="M78375000 83431250
L78375000 80231250
" />
<path d="M278625000 49431250
L278625000 46231250
" />
<path d="M273425000 49431250
L278625000 49431250
" />
<path d="M273425000 49431250
L273425000 46231250
" />
<path d="M282925000 45631250
L282925000 59431250
" />
<path d="M269125000 59431250
L269125000 45631250
" />
<path d="M269125000 59431250
L282925000 59431250
" />
<path d="M282925000 45631250
L269125000 45631250
" />
<path d="M278625000 46231250
L273425000 46231250
" />
<path d="M183425000 58831250
L188625000 58831250
" />
<path d="M179125000 59431250
L192925000 59431250
" />
<path d="M192925000 45631250
L192925000 59431250
" />
<path d="M192925000 45631250
L179125000 45631250
" />
<path d="M188625000 55631250
L183425000 55631250
" />
<path d="M183425000 55631250
L183425000 58831250
" />
<path d="M188625000 55631250
L188625000 58831250
" />
<path d="M179125000 59431250
L179125000 45631250
" />
<path d="M242125000 76431250
L255925000 76431250
" />
<path d="M246425000 66431250
L246425000 63231250
" />
<path d="M251625000 63231250
L246425000 63231250
" />
<path d="M242125000 76431250
L242125000 62631250
" />
<path d="M255925000 62631250
L255925000 76431250
" />
<path d="M251625000 66431250
L251625000 63231250
" />
<path d="M255925000 62631250
L242125000 62631250
" />
<path d="M246425000 66431250
L251625000 66431250
" />
<path d="M98425000 62631250
L84625000 62631250
" />
<path d="M94125000 63231250
L88925000 63231250
" />
<path d="M88925000 66431250
L88925000 63231250
" />
<path d="M84625000 76431250
L98425000 76431250
" />
<path d="M98425000 62631250
L98425000 76431250
" />
<path d="M94125000 66431250
L94125000 63231250
" />
<path d="M84625000 76431250
L84625000 62631250
" />
<path d="M88925000 66431250
L94125000 66431250
" />
<path d="M295925000 83431250
L301125000 83431250
" />
<path d="M305425000 79631250
L291625000 79631250
" />
<path d="M295925000 83431250
L295925000 80231250
" />
<path d="M291625000 93431250
L305425000 93431250
" />
<path d="M301125000 80231250
L295925000 80231250
" />
<path d="M291625000 93431250
L291625000 79631250
" />
<path d="M301125000 83431250
L301125000 80231250
" />
<path d="M305425000 79631250
L305425000 93431250
" />
<path d="M201925000 62631250
L188125000 62631250
" />
<path d="M188125000 76431250
L201925000 76431250
" />
<path d="M188125000 76431250
L188125000 62631250
" />
<path d="M197625000 72631250
L192425000 72631250
" />
<path d="M192425000 75831250
L197625000 75831250
" />
<path d="M197625000 72631250
L197625000 75831250
" />
<path d="M192425000 72631250
L192425000 75831250
" />
<path d="M201925000 62631250
L201925000 76431250
" />
<path d="M313925000 83431250
L313925000 80231250
" />
<path d="M313925000 83431250
L319125000 83431250
" />
<path d="M319125000 83431250
L319125000 80231250
" />
<path d="M323425000 79631250
L309625000 79631250
" />
<path d="M309625000 93431250
L309625000 79631250
" />
<path d="M319125000 80231250
L313925000 80231250
" />
<path d="M309625000 93431250
L323425000 93431250
" />
<path d="M323425000 79631250
L323425000 93431250
" />
<path d="M21625000 59431250
L35425000 59431250
" />
<path d="M35425000 45631250
L21625000 45631250
" />
<path d="M35425000 45631250
L35425000 59431250
" />
<path d="M25925000 49431250
L25925000 46231250
" />
<path d="M25925000 49431250
L31125000 49431250
" />
<path d="M31125000 49431250
L31125000 46231250
" />
<path d="M31125000 46231250
L25925000 46231250
" />
<path d="M21625000 59431250
L21625000 45631250
" />
<path d="M228925000 45631250
L228925000 59431250
" />
<path d="M224625000 49431250
L224625000 46231250
" />
<path d="M215125000 59431250
L228925000 59431250
" />
<path d="M224625000 46231250
L219425000 46231250
" />
<path d="M219425000 49431250
L224625000 49431250
" />
<path d="M228925000 45631250
L215125000 45631250
" />
<path d="M215125000 59431250
L215125000 45631250
" />
<path d="M219425000 49431250
L219425000 46231250
" />
<path d="M264425000 66431250
L269625000 66431250
" />
<path d="M260125000 76431250
L260125000 62631250
" />
<path d="M269625000 66431250
L269625000 63231250
" />
<path d="M269625000 63231250
L264425000 63231250
" />
<path d="M273925000 62631250
L273925000 76431250
" />
<path d="M264425000 66431250
L264425000 63231250
" />
<path d="M260125000 76431250
L273925000 76431250
" />
<path d="M273925000 62631250
L260125000 62631250
" />
<path d="M21625000 93431250
L35425000 93431250
" />
<path d="M25925000 83431250
L31125000 83431250
" />
<path d="M35425000 79631250
L21625000 79631250
" />
<path d="M31125000 83431250
L31125000 80231250
" />
<path d="M21625000 93431250
L21625000 79631250
" />
<path d="M31125000 80231250
L25925000 80231250
" />
<path d="M35425000 79631250
L35425000 93431250
" />
<path d="M25925000 83431250
L25925000 80231250
" />
<path d="M159175000 79631250
L145375000 79631250
" />
<path d="M145375000 93431250
L159175000 93431250
" />
<path d="M159175000 79631250
L159175000 93431250
" />
<path d="M154875000 83431250
L154875000 80231250
" />
<path d="M154875000 80231250
L149675000 80231250
" />
<path d="M145375000 93431250
L145375000 79631250
" />
<path d="M149675000 83431250
L149675000 80231250
" />
<path d="M149675000 83431250
L154875000 83431250
" />
<path d="M337125000 49431250
L337125000 46231250
" />
<path d="M331925000 49431250
L331925000 46231250
" />
<path d="M327625000 59431250
L327625000 45631250
" />
<path d="M341425000 45631250
L327625000 45631250
" />
<path d="M341425000 45631250
L341425000 59431250
" />
<path d="M327625000 59431250
L341425000 59431250
" />
<path d="M331925000 49431250
L337125000 49431250
" />
<path d="M337125000 46231250
L331925000 46231250
" />
<path d="M48625000 42431250
L62425000 42431250
" />
<path d="M62425000 28631250
L62425000 42431250
" />
<path d="M52925000 32431250
L52925000 29231250
" />
<path d="M52925000 32431250
L58125000 32431250
" />
<path d="M48625000 42431250
L48625000 28631250
" />
<path d="M58125000 32431250
L58125000 29231250
" />
<path d="M62425000 28631250
L48625000 28631250
" />
<path d="M58125000 29231250
L52925000 29231250
" />
<path d="M60375000 46231250
L55175000 46231250
" />
<path d="M50875000 59431250
L50875000 45631250
" />
<path d="M60375000 49431250
L60375000 46231250
" />
<path d="M55175000 49431250
L60375000 49431250
" />
<path d="M64675000 45631250
L50875000 45631250
" />
<path d="M50875000 59431250
L64675000 59431250
" />
<path d="M55175000 49431250
L55175000 46231250
" />
<path d="M64675000 45631250
L64675000 59431250
" />
<path d="M69175000 62631250
L69175000 76431250
" />
<path d="M59675000 66431250
L59675000 63231250
" />
<path d="M55375000 76431250
L69175000 76431250
" />
<path d="M55375000 76431250
L55375000 62631250
" />
<path d="M64875000 66431250
L64875000 63231250
" />
<path d="M69175000 62631250
L55375000 62631250
" />
<path d="M59675000 66431250
L64875000 66431250
" />
<path d="M64875000 63231250
L59675000 63231250
" />
<path d="M138625000 76431250
L138625000 62631250
" />
<path d="M152425000 62631250
L138625000 62631250
" />
<path d="M152425000 62631250
L152425000 76431250
" />
<path d="M142925000 66431250
L148125000 66431250
" />
<path d="M138625000 76431250
L152425000 76431250
" />
<path d="M148125000 63231250
L142925000 63231250
" />
<path d="M148125000 66431250
L148125000 63231250
" />
<path d="M142925000 66431250
L142925000 63231250
" />
<path d="M233125000 59431250
L233125000 45631250
" />
<path d="M233125000 59431250
L246925000 59431250
" />
<path d="M237425000 49431250
L237425000 46231250
" />
<path d="M237425000 49431250
L242625000 49431250
" />
<path d="M242625000 46231250
L237425000 46231250
" />
<path d="M246925000 45631250
L246925000 59431250
" />
<path d="M242625000 49431250
L242625000 46231250
" />
<path d="M246925000 45631250
L233125000 45631250
" />
<path d="M309625000 25431250
L309625000 11631250
" />
<path d="M309625000 25431250
L323425000 25431250
" />
<path d="M323425000 11631250
L323425000 25431250
" />
<path d="M323425000 11631250
L309625000 11631250
" />
<path d="M313925000 15431250
L319125000 15431250
" />
<path d="M319125000 15431250
L319125000 12231250
" />
<path d="M319125000 12231250
L313925000 12231250
" />
<path d="M313925000 15431250
L313925000 12231250
" />
<path d="M256125000 29231250
L250925000 29231250
" />
<path d="M256125000 32431250
L256125000 29231250
" />
<path d="M250925000 32431250
L256125000 32431250
" />
<path d="M246625000 42431250
L246625000 28631250
" />
<path d="M260425000 28631250
L260425000 42431250
" />
<path d="M250925000 32431250
L250925000 29231250
" />
<path d="M246625000 42431250
L260425000 42431250
" />
<path d="M260425000 28631250
L246625000 28631250
" />
<path d="M244675000 79631250
L244675000 93431250
" />
<path d="M244675000 79631250
L230875000 79631250
" />
<path d="M230875000 93431250
L230875000 79631250
" />
<path d="M230875000 93431250
L244675000 93431250
" />
<path d="M235175000 83431250
L240375000 83431250
" />
<path d="M235175000 83431250
L235175000 80231250
" />
<path d="M240375000 83431250
L240375000 80231250
" />
<path d="M240375000 80231250
L235175000 80231250
" />
<path d="M187925000 24831250
L193125000 24831250
" />
<path d="M193125000 21631250
L193125000 24831250
" />
<path d="M183625000 25431250
L197425000 25431250
" />
<path d="M193125000 21631250
L187925000 21631250
" />
<path d="M197425000 11631250
L183625000 11631250
" />
<path d="M197425000 11631250
L197425000 25431250
" />
<path d="M187925000 21631250
L187925000 24831250
" />
<path d="M183625000 25431250
L183625000 11631250
" />
<path d="M170425000 62631250
L170425000 76431250
" />
<path d="M160925000 66431250
L166125000 66431250
" />
<path d="M166125000 66431250
L166125000 63231250
" />
<path d="M156625000 76431250
L156625000 62631250
" />
<path d="M160925000 66431250
L160925000 63231250
" />
<path d="M170425000 62631250
L156625000 62631250
" />
<path d="M166125000 63231250
L160925000 63231250
" />
<path d="M156625000 76431250
L170425000 76431250
" />
<path d="M295925000 15431250
L301125000 15431250
" />
<path d="M301125000 12231250
L295925000 12231250
" />
<path d="M291625000 25431250
L291625000 11631250
" />
<path d="M295925000 15431250
L295925000 12231250
" />
<path d="M291625000 25431250
L305425000 25431250
" />
<path d="M301125000 15431250
L301125000 12231250
" />
<path d="M305425000 11631250
L291625000 11631250
" />
<path d="M305425000 11631250
L305425000 25431250
" />
<path d="M255425000 49431250
L255425000 46231250
" />
<path d="M260625000 49431250
L260625000 46231250
" />
<path d="M260625000 46231250
L255425000 46231250
" />
<path d="M251125000 59431250
L251125000 45631250
" />
<path d="M264925000 45631250
L251125000 45631250
" />
<path d="M251125000 59431250
L264925000 59431250
" />
<path d="M255425000 49431250
L260625000 49431250
" />
<path d="M264925000 45631250
L264925000 59431250
" />
<path d="M188425000 28631250
L188425000 42431250
" />
<path d="M174625000 42431250
L174625000 28631250
" />
<path d="M178925000 41831250
L184125000 41831250
" />
<path d="M174625000 42431250
L188425000 42431250
" />
<path d="M184125000 38631250
L178925000 38631250
" />
<path d="M184125000 38631250
L184125000 41831250
" />
<path d="M178925000 38631250
L178925000 41831250
" />
<path d="M188425000 28631250
L174625000 28631250
" />
<path d="M127675000 79631250
L127675000 93431250
" />
<path d="M113875000 93431250
L127675000 93431250
" />
<path d="M123375000 83431250
L123375000 80231250
" />
<path d="M123375000 80231250
L118175000 80231250
" />
<path d="M118175000 83431250
L118175000 80231250
" />
<path d="M118175000 83431250
L123375000 83431250
" />
<path d="M127675000 79631250
L113875000 79631250
" />
<path d="M113875000 93431250
L113875000 79631250
" />
<path d="M53625000 15431250
L53625000 12231250
" />
<path d="M57925000 11631250
L44125000 11631250
" />
<path d="M44125000 25431250
L57925000 25431250
" />
<path d="M44125000 25431250
L44125000 11631250
" />
<path d="M53625000 12231250
L48425000 12231250
" />
<path d="M48425000 15431250
L48425000 12231250
" />
<path d="M57925000 11631250
L57925000 25431250
" />
<path d="M48425000 15431250
L53625000 15431250
" />
<path d="M287425000 11631250
L287425000 25431250
" />
<path d="M273625000 25431250
L287425000 25431250
" />
<path d="M277925000 15431250
L283125000 15431250
" />
<path d="M283125000 12231250
L277925000 12231250
" />
<path d="M277925000 15431250
L277925000 12231250
" />
<path d="M283125000 15431250
L283125000 12231250
" />
<path d="M273625000 25431250
L273625000 11631250
" />
<path d="M287425000 11631250
L273625000 11631250
" />
<path d="M143125000 42431250
L156925000 42431250
" />
<path d="M156925000 28631250
L143125000 28631250
" />
<path d="M147425000 32431250
L152625000 32431250
" />
<path d="M143125000 42431250
L143125000 28631250
" />
<path d="M152625000 32431250
L152625000 29231250
" />
<path d="M147425000 32431250
L147425000 29231250
" />
<path d="M156925000 28631250
L156925000 42431250
" />
<path d="M152625000 29231250
L147425000 29231250
" />
<path d="M251125000 93431250
L251125000 79631250
" />
<path d="M260625000 80231250
L255425000 80231250
" />
<path d="M264925000 79631250
L264925000 93431250
" />
<path d="M264925000 79631250
L251125000 79631250
" />
<path d="M260625000 83431250
L260625000 80231250
" />
<path d="M255425000 83431250
L260625000 83431250
" />
<path d="M255425000 83431250
L255425000 80231250
" />
<path d="M251125000 93431250
L264925000 93431250
" />
<path d="M138425000 15431250
L143625000 15431250
" />
<path d="M147925000 11631250
L134125000 11631250
" />
<path d="M143625000 15431250
L143625000 12231250
" />
<path d="M143625000 12231250
L138425000 12231250
" />
<path d="M134125000 25431250
L134125000 11631250
" />
<path d="M138425000 15431250
L138425000 12231250
" />
<path d="M147925000 11631250
L147925000 25431250
" />
<path d="M134125000 25431250
L147925000 25431250
" />
<path d="M298375000 59431250
L298375000 45631250
" />
<path d="M307875000 46231250
L302675000 46231250
" />
<path d="M312175000 45631250
L298375000 45631250
" />
<path d="M312175000 45631250
L312175000 59431250
" />
<path d="M307875000 49431250
L307875000 46231250
" />
<path d="M302675000 49431250
L302675000 46231250
" />
<path d="M298375000 59431250
L312175000 59431250
" />
<path d="M302675000 49431250
L307875000 49431250
" />
<path d="M264625000 42431250
L278425000 42431250
" />
<path d="M264625000 42431250
L264625000 28631250
" />
<path d="M268925000 32431250
L268925000 29231250
" />
<path d="M274125000 32431250
L274125000 29231250
" />
<path d="M278425000 28631250
L264625000 28631250
" />
<path d="M274125000 29231250
L268925000 29231250
" />
<path d="M268925000 32431250
L274125000 32431250
" />
<path d="M278425000 28631250
L278425000 42431250
" />
<path d="M31125000 29231250
L25925000 29231250
" />
<path d="M25925000 32431250
L31125000 32431250
" />
<path d="M35425000 28631250
L21625000 28631250
" />
<path d="M21625000 42431250
L35425000 42431250
" />
<path d="M25925000 32431250
L25925000 29231250
" />
<path d="M31125000 32431250
L31125000 29231250
" />
<path d="M35425000 28631250
L35425000 42431250
" />
<path d="M21625000 42431250
L21625000 28631250
" />
<path d="M341425000 62631250
L341425000 76431250
" />
<path d="M327625000 76431250
L327625000 62631250
" />
<path d="M327625000 76431250
L341425000 76431250
" />
<path d="M341425000 62631250
L327625000 62631250
" />
<path d="M331925000 66431250
L331925000 63231250
" />
<path d="M331925000 66431250
L337125000 66431250
" />
<path d="M337125000 63231250
L331925000 63231250
" />
<path d="M337125000 66431250
L337125000 63231250
" />
<path d="M95675000 83431250
L100875000 83431250
" />
<path d="M105175000 79631250
L105175000 93431250
" />
<path d="M105175000 79631250
L91375000 79631250
" />
<path d="M91375000 93431250
L91375000 79631250
" />
<path d="M100875000 80231250
L95675000 80231250
" />
<path d="M95675000 83431250
L95675000 80231250
" />
<path d="M100875000 83431250
L100875000 80231250
" />
<path d="M91375000 93431250
L105175000 93431250
" />
<path d="M84425000 15431250
L84425000 12231250
" />
<path d="M93925000 11631250
L93925000 25431250
" />
<path d="M80125000 25431250
L80125000 11631250
" />
<path d="M84425000 15431250
L89625000 15431250
" />
<path d="M89625000 12231250
L84425000 12231250
" />
<path d="M93925000 11631250
L80125000 11631250
" />
<path d="M89625000 15431250
L89625000 12231250
" />
<path d="M80125000 25431250
L93925000 25431250
" />
<path d="M331925000 32431250
L337125000 32431250
" />
<path d="M341425000 28631250
L341425000 42431250
" />
<path d="M327625000 42431250
L341425000 42431250
" />
<path d="M327625000 42431250
L327625000 28631250
" />
<path d="M341425000 28631250
L327625000 28631250
" />
<path d="M337125000 29231250
L331925000 29231250
" />
<path d="M337125000 32431250
L337125000 29231250
" />
<path d="M331925000 32431250
L331925000 29231250
" />
<path d="M238125000 32431250
L238125000 29231250
" />
<path d="M232925000 32431250
L238125000 32431250
" />
<path d="M228625000 42431250
L242425000 42431250
" />
<path d="M232925000 32431250
L232925000 29231250
" />
<path d="M238125000 29231250
L232925000 29231250
" />
<path d="M228625000 42431250
L228625000 28631250
" />
<path d="M242425000 28631250
L242425000 42431250
" />
<path d="M242425000 28631250
L228625000 28631250
" />
<path d="M210625000 42431250
L224425000 42431250
" />
<path d="M214925000 32431250
L220125000 32431250
" />
<path d="M214925000 32431250
L214925000 29231250
" />
<path d="M224425000 28631250
L224425000 42431250
" />
<path d="M220125000 32431250
L220125000 29231250
" />
<path d="M220125000 29231250
L214925000 29231250
" />
<path d="M210625000 42431250
L210625000 28631250
" />
<path d="M224425000 28631250
L210625000 28631250
" />
<path d="M7925000 83431250
L7925000 80231250
" />
<path d="M7925000 83431250
L13125000 83431250
" />
<path d="M13125000 80231250
L7925000 80231250
" />
<path d="M17425000 79631250
L3625000 79631250
" />
<path d="M13125000 83431250
L13125000 80231250
" />
<path d="M3625000 93431250
L3625000 79631250
" />
<path d="M17425000 79631250
L17425000 93431250
" />
<path d="M3625000 93431250
L17425000 93431250
" />
<path d="M286925000 32431250
L286925000 29231250
" />
<path d="M292125000 32431250
L292125000 29231250
" />
<path d="M292125000 29231250
L286925000 29231250
" />
<path d="M282625000 42431250
L282625000 28631250
" />
<path d="M286925000 32431250
L292125000 32431250
" />
<path d="M296425000 28631250
L296425000 42431250
" />
<path d="M296425000 28631250
L282625000 28631250
" />
<path d="M282625000 42431250
L296425000 42431250
" />
<path d="M116425000 62631250
L116425000 76431250
" />
<path d="M112125000 63231250
L106925000 63231250
" />
<path d="M102625000 76431250
L102625000 62631250
" />
<path d="M116425000 62631250
L102625000 62631250
" />
<path d="M102625000 76431250
L116425000 76431250
" />
<path d="M112125000 66431250
L112125000 63231250
" />
<path d="M106925000 66431250
L106925000 63231250
" />
<path d="M106925000 66431250
L112125000 66431250
" />
<path d="M31125000 63231250
L25925000 63231250
" />
<path d="M21625000 76431250
L21625000 62631250
" />
<path d="M35425000 62631250
L21625000 62631250
" />
<path d="M25925000 66431250
L31125000 66431250
" />
<path d="M21625000 76431250
L35425000 76431250
" />
<path d="M31125000 66431250
L31125000 63231250
" />
<path d="M35425000 62631250
L35425000 76431250
" />
<path d="M25925000 66431250
L25925000 63231250
" />
</g>
<g style="fill:#D8C852; fill-opacity:0.0; 
stroke:#D8C852; stroke-width:100000.000000; stroke-opacity:1; 
stroke-linecap:round; stroke-linejoin:round;">
<path d="M287758161 14021378
L287434872 13698089
" />
<path d="M297923811 8381777
L297600522 8058488
" />
<path d="M295660787 6118753
L295337497 5795463
" />
<path d="M287632438 12386971
L287937766 12692300
" />
<path d="M284615072 8184212
L284920400 7878883
" />
<path d="M296415128 13698089
L296091839 14021378
" />
<path d="M285171847 7627436
L285495137 7304146
" />
<path d="M289141121 15404338
L289895462 14649996
" />
<path d="M287434872 5364411
L287758161 5041122
" />
<path d="M290200791 4107175
L289895462 4412504
" />
<path d="M288009608 14272825
L288763950 13518484
" />
<path d="M288009608 4789675
L288314937 4484346
" />
<path d="M285926189 10680723
L286249478 11004012
" />
<path d="M290021186 16284403
L289697896 15961113
" />
<path d="M296971904 5921187
L296217562 6675529
" />
<path d="M289320726 4987240
L288566384 4232899
" />
<path d="M286626649 12889866
L286303360 12566577
" />
<path d="M285746584 12009801
L286500925 11255459
" />
<path d="M288512503 13267037
L287758161 14021378
" />
<path d="M287057701 11812235
L287380990 12135524
" />
<path d="M298929600 7878883
L299234928 8184212
" />
<path d="M288314937 4484346
L289069279 5238688
" />
<path d="M291026974 15781508
L291332303 16086837
" />
<path d="M296666575 13446642
L295912234 12692300
" />
<path d="M299234928 8184212
L298480587 8938553
" />
<path d="M298175258 8633224
L298929600 7878883
" />
<path d="M290200791 14955325
L289446449 15709666
" />
<path d="M285171847 11435064
L285926189 10680723
" />
<path d="M292823026 3280992
L292517697 2975663
" />
<path d="M292823026 15781508
L293577367 16535850
" />
<path d="M290272633 16535850
L291026974 15781508
" />
<path d="M286249478 8058488
L285926189 8381777
" />
<path d="M285495137 11758354
L285171847 11435064
" />
<path d="M290577962 2221322
L291332303 2975663
" />
<path d="M284776716 9531250
L291925000 2382966
" />
<path d="M294152104 15961113
L293828814 16284403
" />
<path d="M293577367 2526650
L292823026 3280992
" />
<path d="M286806254 11560788
L286051912 12315129
" />
<path d="M298354863 11758354
L297600522 11004012
" />
<path d="M288763950 13518484
L289069279 13823812
" />
<path d="M297798088 12315129
L297043746 11560788
" />
<path d="M296792299 11812235
L297546640 12566577
" />
<path d="M296792299 7250265
L296469010 6926976
" />
<path d="M294403551 15709666
L293649209 14955325
" />
<path d="M297043746 11560788
L297349075 11255459
" />
<path d="M284615072 10878288
L285369413 10123947
" />
<path d="M295283616 4232899
L294529274 4987240
" />
<path d="M293272038 16841178
L292517697 16086837
" />
<path d="M286051912 6747371
L286806254 7501712
" />
<path d="M287183425 5615858
L287937766 6370200
" />
<path d="M295086050 13518484
L295840392 14272825
" />
<path d="M289446449 15709666
L289141121 15404338
" />
<path d="M289895462 4412504
L289141121 3658162
" />
<path d="M290775527 3532439
L290452238 3855728
" />
<path d="M286051912 12315129
L285746584 12009801
" />
<path d="M294960327 3909610
L295283616 4232899
" />
<path d="M293954538 4412504
L293649209 4107175
" />
<path d="M289697896 3101387
L290021186 2778097
" />
<path d="M285369413 8938553
L284615072 8184212
" />
<path d="M288566384 14829601
L289320726 14075260
" />
<path d="M294403551 3352834
L294708879 3658162
" />
<path d="M289141121 3658162
L289446449 3352834
" />
<path d="M291925000 2382966
L299073284 9531250
" />
<path d="M289644015 4663951
L289320726 4987240
" />
<path d="M287632438 6675529
L286878096 5921187
" />
<path d="M294205985 14398549
L294529274 14075260
" />
<path d="M295535063 14578154
L294780721 13823812
" />
<path d="M289644015 14398549
L288889673 15152890
" />
<path d="M287183425 13446642
L286878096 13141313
" />
<path d="M295840392 14272825
L295535063 14578154
" />
<path d="M289895462 14649996
L290200791 14955325
" />
<path d="M298678153 11435064
L298354863 11758354
" />
<path d="M295086050 5544016
L294780721 5238688
" />
<path d="M288763950 5544016
L288009608 4789675
" />
<path d="M294708879 15404338
L294403551 15709666
" />
<path d="M293649209 4107175
L294403551 3352834
" />
<path d="M295912234 6370200
L296666575 5615858
" />
<path d="M295840392 4789675
L295086050 5544016
" />
<path d="M295337497 5795463
L296091839 5041122
" />
<path d="M288889673 3909610
L289644015 4663951
" />
<path d="M292517697 16086837
L292823026 15781508
" />
<path d="M294152104 3101387
L293397762 3855728
" />
<path d="M298480587 8938553
L298175258 8633224
" />
<path d="M297043746 7501712
L297798088 6747371
" />
<path d="M297349075 11255459
L298103416 12009801
" />
<path d="M295535063 4484346
L295840392 4789675
" />
<path d="M286878096 5921187
L287183425 5615858
" />
<path d="M293649209 14955325
L293954538 14649996
" />
<path d="M291332303 2975663
L291026974 3280992
" />
<path d="M295283616 14829601
L294960327 15152890
" />
<path d="M287434872 13698089
L288189213 12943747
" />
<path d="M286303360 12566577
L287057701 11812235
" />
<path d="M293828814 2778097
L294152104 3101387
" />
<path d="M294205985 4663951
L294960327 3909610
" />
<path d="M293272038 2221322
L293577367 2526650
" />
<path d="M296217562 6675529
L295912234 6370200
" />
<path d="M296469010 12135524
L296792299 11812235
" />
<path d="M290021186 2778097
L290775527 3532439
" />
<path d="M297923811 10680723
L298678153 11435064
" />
<path d="M291925000 16679534
L284776716 9531250
" />
<path d="M288512503 5795463
L288189213 6118753
" />
<path d="M294780721 13823812
L295086050 13518484
" />
<path d="M287380990 12135524
L286626649 12889866
" />
<path d="M295337497 13267037
L295660787 12943747
" />
<path d="M286626649 6172634
L287380990 6926976
" />
<path d="M298929600 11183617
L298175258 10429276
" />
<path d="M287937766 12692300
L287183425 13446642
" />
<path d="M285369413 10123947
L285674742 10429276
" />
<path d="M299234928 10878288
L298929600 11183617
" />
<path d="M287380990 6926976
L287057701 7250265
" />
<path d="M295660787 12943747
L296415128 13698089
" />
<path d="M290272633 2526650
L290577962 2221322
" />
<path d="M288566384 4232899
L288889673 3909610
" />
<path d="M294529274 14075260
L295283616 14829601
" />
<path d="M293397762 3855728
L293074473 3532439
" />
<path d="M289069279 13823812
L288314937 14578154
" />
<path d="M298480587 10123947
L299234928 10878288
" />
<path d="M285746584 7052699
L286051912 6747371
" />
<path d="M299073284 9531250
L291925000 16679534
" />
<path d="M296091839 5041122
L296415128 5364411
" />
<path d="M287937766 6370200
L287632438 6675529
" />
<path d="M291332303 16086837
L290577962 16841178
" />
<path d="M290775527 15530061
L290021186 16284403
" />
<path d="M297223351 12889866
L296469010 12135524
" />
<path d="M298103416 12009801
L297798088 12315129
" />
<path d="M286878096 13141313
L287632438 12386971
" />
<path d="M296217562 12386971
L296971904 13141313
" />
<path d="M285495137 7304146
L286249478 8058488
" />
<path d="M294529274 4987240
L294205985 4663951
" />
<path d="M297349075 7807041
L297043746 7501712
" />
<path d="M289446449 3352834
L290200791 4107175
" />
<path d="M298103416 7052699
L297349075 7807041
" />
<path d="M289069279 5238688
L288763950 5544016
" />
<path d="M289697896 15961113
L290452238 15206772
" />
<path d="M286500925 7807041
L285746584 7052699
" />
<path d="M286806254 7501712
L286500925 7807041
" />
<path d="M285674742 8633224
L285369413 8938553
" />
<path d="M288889673 15152890
L288566384 14829601
" />
<path d="M297600522 11004012
L297923811 10680723
" />
<path d="M297600522 8058488
L298354863 7304146
" />
<path d="M284920400 7878883
L285674742 8633224
" />
<path d="M290577962 16841178
L290272633 16535850
" />
<path d="M287758161 5041122
L288512503 5795463
" />
<path d="M288189213 12943747
L288512503 13267037
" />
<path d="M294960327 15152890
L294205985 14398549
" />
<path d="M284920400 11183617
L284615072 10878288
" />
<path d="M296666575 5615858
L296971904 5921187
" />
<path d="M293954538 14649996
L294708879 15404338
" />
<path d="M292517697 2975663
L293272038 2221322
" />
<path d="M296971904 13141313
L296666575 13446642
" />
<path d="M291026974 15781508
L292823026 15781508
" />
<path d="M298175258 10429276
L298480587 10123947
" />
<path d="M297798088 6747371
L298103416 7052699
" />
<path d="M290452238 15206772
L290775527 15530061
" />
<path d="M293074473 3532439
L293828814 2778097
" />
<path d="M296469010 6926976
L297223351 6172634
" />
<path d="M296091839 14021378
L295337497 13267037
" />
<path d="M296415128 5364411
L295660787 6118753
" />
<path d="M297223351 6172634
L297546640 6495923
" />
<path d="M298354863 7304146
L298678153 7627436
" />
<path d="M285674742 10429276
L284920400 11183617
" />
<path d="M295912234 12692300
L296217562 12386971
" />
<path d="M286249478 11004012
L285495137 11758354
" />
<path d="M286303360 6495923
L286626649 6172634
" />
<path d="M293074473 15530061
L293397762 15206772
" />
<path d="M297546640 12566577
L297223351 12889866
" />
<path d="M291026974 3280992
L290272633 2526650
" />
<path d="M290452238 3855728
L289697896 3101387
" />
<path d="M288314937 14578154
L288009608 14272825
" />
<path d="M289320726 14075260
L289644015 14398549
" />
<path d="M285926189 8381777
L285171847 7627436
" />
<path d="M293828814 16284403
L293074473 15530061
" />
<path d="M286500925 11255459
L286806254 11560788
" />
<path d="M293577367 16535850
L293272038 16841178
" />
<path d="M297546640 6495923
L296792299 7250265
" />
<path d="M293397762 15206772
L294152104 15961113
" />
<path d="M288189213 6118753
L287434872 5364411
" />
<path d="M294708879 3658162
L293954538 4412504
" />
<path d="M287057701 7250265
L286303360 6495923
" />
<path d="M298678153 7627436
L297923811 8381777
" />
<path d="M294780721 5238688
L295535063 4484346
" />
<path d="M36362503 13267037
L35608161 14021378
" />
<path d="M36739673 3909610
L37494015 4663951
" />
<path d="M34153360 12566577
L34907701 11812235
" />
<path d="M41499209 14955325
L41804538 14649996
" />
<path d="M41247762 3855728
L40924473 3532439
" />
<path d="M37494015 4663951
L37170726 4987240
" />
<path d="M37745462 14649996
L38050791 14955325
" />
<path d="M32770400 7878883
L33524742 8633224
" />
<path d="M45953416 12009801
L45648088 12315129
" />
<path d="M45073351 12889866
L44319010 12135524
" />
<path d="M45199075 11255459
L45953416 12009801
" />
<path d="M42253551 15709666
L41499209 14955325
" />
<path d="M36164937 14578154
L35859608 14272825
" />
<path d="M35230990 12135524
L34476649 12889866
" />
<path d="M42558879 3658162
L41804538 4412504
" />
<path d="M42002104 15961113
L41678814 16284403
" />
<path d="M40367697 2975663
L41122038 2221322
" />
<path d="M44265128 5364411
L43510787 6118753
" />
<path d="M37547896 15961113
L38302238 15206772
" />
<path d="M44893746 7501712
L45648088 6747371
" />
<path d="M38122633 2526650
L38427962 2221322
" />
<path d="M34476649 12889866
L34153360 12566577
" />
<path d="M37745462 4412504
L36991121 3658162
" />
<path d="M33776189 8381777
L33021847 7627436
" />
<path d="M38625527 3532439
L38302238 3855728
" />
<path d="M38122633 16535850
L38876974 15781508
" />
<path d="M43133616 4232899
L42379274 4987240
" />
<path d="M40924473 3532439
L41678814 2778097
" />
<path d="M33524742 10429276
L32770400 11183617
" />
<path d="M43941839 14021378
L43187497 13267037
" />
<path d="M42253551 3352834
L42558879 3658162
" />
<path d="M34728096 13141313
L35482438 12386971
" />
<path d="M37170726 4987240
L36416384 4232899
" />
<path d="M40924473 15530061
L41247762 15206772
" />
<path d="M43385063 4484346
L43690392 4789675
" />
<path d="M43690392 14272825
L43385063 14578154
" />
<path d="M46204863 11758354
L45450522 11004012
" />
<path d="M33524742 8633224
L33524742 10429276
" />
<path d="M34907701 7250265
L34153360 6495923
" />
<path d="M32465072 8184212
L32770400 7878883
" />
<path d="M36991121 15404338
L37745462 14649996
" />
<path d="M32626716 9531250
L39775000 2382966
" />
<path d="M46025258 8633224
L46779600 7878883
" />
<path d="M33596584 7052699
L33901912 6747371
" />
<path d="M33901912 12315129
L33596584 12009801
" />
<path d="M36164937 4484346
L36919279 5238688
" />
<path d="M44516575 5615858
L44821904 5921187
" />
<path d="M42810327 3909610
L43133616 4232899
" />
<path d="M40673026 15781508
L41427367 16535850
" />
<path d="M32465072 10878288
L33219413 10123947
" />
<path d="M44067562 6675529
L43762234 6370200
" />
<path d="M37547896 3101387
L37871186 2778097
" />
<path d="M44821904 13141313
L44516575 13446642
" />
<path d="M41427367 2526650
L40673026 3280992
" />
<path d="M35033425 13446642
L34728096 13141313
" />
<path d="M45648088 6747371
L45953416 7052699
" />
<path d="M46779600 11183617
L46025258 10429276
" />
<path d="M42630721 13823812
L42936050 13518484
" />
<path d="M42810327 15152890
L42055985 14398549
" />
<path d="M46528153 11435064
L46204863 11758354
" />
<path d="M42558879 15404338
L42253551 15709666
" />
<path d="M40673026 3280992
L40367697 2975663
" />
<path d="M42055985 4663951
L42810327 3909610
" />
<path d="M46330587 8938553
L46025258 8633224
" />
<path d="M41499209 4107175
L42253551 3352834
" />
<path d="M38050791 4107175
L37745462 4412504
" />
<path d="M45450522 8058488
L46204863 7304146
" />
<path d="M43941839 5041122
L44265128 5364411
" />
<path d="M34728096 5921187
L35033425 5615858
" />
<path d="M34656254 7501712
L34350925 7807041
" />
<path d="M33776189 10680723
L34099478 11004012
" />
<path d="M44516575 13446642
L43762234 12692300
" />
<path d="M42379274 14075260
L43133616 14829601
" />
<path d="M37871186 2778097
L38625527 3532439
" />
<path d="M34656254 11560788
L33901912 12315129
" />
<path d="M42055985 14398549
L42379274 14075260
" />
<path d="M36613950 13518484
L36919279 13823812
" />
<path d="M34153360 6495923
L34476649 6172634
" />
<path d="M35859608 4789675
L36164937 4484346
" />
<path d="M35033425 5615858
L35787766 6370200
" />
<path d="M44319010 12135524
L44642299 11812235
" />
<path d="M43762234 12692300
L44067562 12386971
" />
<path d="M41122038 16841178
L40367697 16086837
" />
<path d="M46204863 7304146
L46528153 7627436
" />
<path d="M33219413 10123947
L33524742 10429276
" />
<path d="M38302238 3855728
L37547896 3101387
" />
<path d="M38427962 2221322
L39182303 2975663
" />
<path d="M45773811 10680723
L46528153 11435064
" />
<path d="M36613950 5544016
L35859608 4789675
" />
<path d="M35787766 6370200
L35482438 6675529
" />
<path d="M41247762 15206772
L42002104 15961113
" />
<path d="M35284872 5364411
L35608161 5041122
" />
<path d="M33219413 8938553
L32465072 8184212
" />
<path d="M47084928 8184212
L46330587 8938553
" />
<path d="M44642299 7250265
L44319010 6926976
" />
<path d="M34350925 7807041
L33596584 7052699
" />
<path d="M35608161 14021378
L35284872 13698089
" />
<path d="M45450522 11004012
L45773811 10680723
" />
<path d="M35482438 6675529
L34728096 5921187
" />
<path d="M36362503 5795463
L36039213 6118753
" />
<path d="M39775000 16679534
L32626716 9531250
" />
<path d="M43762234 6370200
L44516575 5615858
" />
<path d="M42936050 5544016
L42630721 5238688
" />
<path d="M41427367 16535850
L41122038 16841178
" />
<path d="M45396640 12566577
L45073351 12889866
" />
<path d="M38050791 14955325
L37296449 15709666
" />
<path d="M45396640 6495923
L44642299 7250265
" />
<path d="M33596584 12009801
L34350925 11255459
" />
<path d="M34099478 8058488
L33776189 8381777
" />
<path d="M37296449 15709666
L36991121 15404338
" />
<path d="M35284872 13698089
L36039213 12943747
" />
<path d="M42379274 4987240
L42055985 4663951
" />
<path d="M38427962 16841178
L38122633 16535850
" />
<path d="M36919279 5238688
L36613950 5544016
" />
<path d="M46923284 9531250
L39775000 16679534
" />
<path d="M42630721 5238688
L43385063 4484346
" />
<path d="M36416384 4232899
L36739673 3909610
" />
<path d="M33345137 11758354
L33021847 11435064
" />
<path d="M33524742 8633224
L33219413 8938553
" />
<path d="M39775000 2382966
L46923284 9531250
" />
<path d="M41678814 2778097
L42002104 3101387
" />
<path d="M38876974 3280992
L38122633 2526650
" />
<path d="M37494015 14398549
L36739673 15152890
" />
<path d="M36919279 13823812
L36164937 14578154
" />
<path d="M38876974 15781508
L39182303 16086837
" />
<path d="M46779600 7878883
L47084928 8184212
" />
<path d="M44893746 11560788
L45199075 11255459
" />
<path d="M36039213 12943747
L36362503 13267037
" />
<path d="M36739673 15152890
L36416384 14829601
" />
<path d="M34099478 11004012
L33345137 11758354
" />
<path d="M46025258 10429276
L46330587 10123947
" />
<path d="M46330587 10123947
L47084928 10878288
" />
<path d="M33345137 7304146
L34099478 8058488
" />
<path d="M47084928 10878288
L46779600 11183617
" />
<path d="M42002104 3101387
L41247762 3855728
" />
<path d="M39182303 2975663
L38876974 3280992
" />
<path d="M34350925 11255459
L34656254 11560788
" />
<path d="M37296449 3352834
L38050791 4107175
" />
<path d="M45199075 7807041
L44893746 7501712
" />
<path d="M44821904 5921187
L44067562 6675529
" />
<path d="M33021847 11435064
L33776189 10680723
" />
<path d="M32770400 11183617
L32465072 10878288
" />
<path d="M35787766 12692300
L35033425 13446642
" />
<path d="M41122038 2221322
L41427367 2526650
" />
<path d="M36039213 6118753
L35284872 5364411
" />
<path d="M35608161 5041122
L36362503 5795463
" />
<path d="M36416384 14829601
L37170726 14075260
" />
<path d="M41678814 16284403
L40924473 15530061
" />
<path d="M34907701 11812235
L35230990 12135524
" />
<path d="M43187497 5795463
L43941839 5041122
" />
<path d="M35482438 12386971
L35787766 12692300
" />
<path d="M43690392 4789675
L42936050 5544016
" />
<path d="M45073351 6172634
L45396640 6495923
" />
<path d="M44642299 11812235
L45396640 12566577
" />
<path d="M33021847 7627436
L33345137 7304146
" />
<path d="M43187497 13267037
L43510787 12943747
" />
<path d="M44265128 13698089
L43941839 14021378
" />
<path d="M44067562 12386971
L44821904 13141313
" />
<path d="M38625527 15530061
L37871186 16284403
" />
<path d="M43510787 12943747
L44265128 13698089
" />
<path d="M45953416 7052699
L45199075 7807041
" />
<path d="M45773811 8381777
L45450522 8058488
" />
<path d="M44319010 6926976
L45073351 6172634
" />
<path d="M38302238 15206772
L38625527 15530061
" />
<path d="M43385063 14578154
L42630721 13823812
" />
<path d="M33901912 6747371
L34656254 7501712
" />
<path d="M40367697 16086837
L40673026 15781508
" />
<path d="M35859608 14272825
L36613950 13518484
" />
<path d="M41804538 4412504
L41499209 4107175
" />
<path d="M42936050 13518484
L43690392 14272825
" />
<path d="M43510787 6118753
L43187497 5795463
" />
<path d="M45648088 12315129
L44893746 11560788
" />
<path d="M35230990 6926976
L34907701 7250265
" />
<path d="M37170726 14075260
L37494015 14398549
" />
<path d="M43133616 14829601
L42810327 15152890
" />
<path d="M39182303 16086837
L38427962 16841178
" />
<path d="M41804538 14649996
L42558879 15404338
" />
<path d="M37871186 16284403
L37547896 15961113
" />
<path d="M36991121 3658162
L37296449 3352834
" />
<path d="M34476649 6172634
L35230990 6926976
" />
<path d="M46528153 7627436
L45773811 8381777
" />
<g >
</g>
<g >
</g>
<g >
</g>
<g >
</g>
<g >
</g>
<g >
</g>
<g >
</g>
<g >
</g>
<g >
</g>
<g >
</g>
<g >
</g>
<g >
</g>
<g >
</g>
<g >
</g>
<g >
</g>
<g >
</g>
<g >
</g>
<g >
</g>
<g >
</g>
<g >
</g>
<g >
</g>
<g >
</g>
<g >
</g>
<g >
</g>
<g >
</g>
<g >
</g>
<g >
</g>
<g >
</g>
<g >
</g>
<g >
</g>
<g >
</g>
<g >
</g>
<g >
</g>
<g >
</g>
<g >
</g>
<g >
</g>
<g >
</g>
<g >
</g>
<g >
</g>
<g >
</g>
<g >
</g>
<g >
</g>
<g >
</g>
<g >
</g>
<g >
</g>
<g >
</g>
<g >
</g>
<g >
</g>
<g >
</g>
<g >
</g>
<g >
</g>
<g >
</g>
<g >
</g>
<g >
</g>
<g >
</g>
<g >
</g>
<g >
</g>
<g >
</g>
<g >
</g>
<g >
</g>
<g >
</g>
<g >
</g>
<g >
</g>
<g >
</g>
<g >
</g>
<g >
</g>
<g >
</g>
<g >
</g>
<g >
</g>
<g >
</g>
<g >
</g>
<g >
</g>
<g >
</g>
<g >
</g>
<g >
</g>
<g >
</g>
<g >
</g>
<g >
</g>
<g >
</g>
<g >
</g>
<g >
</g>
<g >
</g>
<g >
</g>
<g >
</g>
<g >
</g>
<g >
</g>
<g >
</g>
<g >
</g>
<g >
</g>
<g >
</g>
<g >
</g>
<g >
</g>
<g >
</g>
<g >
</g>
<g >
</g>
<g >
</g>
<g >
</g>
<g >
</g>
<g >
</g>
<g >
</g>
<g >
</g>
<g >
</g>
<g >
</g>
<g >
</g>
<g >
</g>
<g >
</g>
<g >
</g>
<g >
</g>
<g >
</g>
<g >
</g>
<g >
</g>
<g >
</g>
<g >
</g>
<g >
</g>
<g >
</g>
<g >
</g>
<g >
</g>
<g >
</g>
<g >
</g>
<g >
</g>
<g >
</g>
<g >
</g>
<g >
</g>
<g >
</g>
<g >
</g>
<g >
</g>
<g >
</g>
<g >
</g>
<g >
</g>
<g >
</g>
<g >
</g>
<g >
</g>
<g >
</g>
<g >
</g>
<g >
</g>
<g >
</g>
<g >
</g>
<g >
</g>
<g >
</g>
<g >
</g>
<g >
</g>
<g >
</g>
<g >
</g>
<g >
</g>
<g >
</g>
<g >
</g>
<g >
</g>
<g >
</g>
<g >
</g>
<g >
</g>
<g >
</g>
<g >
</g>
<g >
</g>
<g >
</g>
<g >
</g>
<g >
</g>
<g >
</g>
<g >
</g>
<g >
</g>
<g >
</g>
<g >
</g>
<g >
</g>
<g >
</g>
<g >
</g>
<g >
</g>
<g >
</g>
<g >
</g>
<g >
</g>
<g >
</g>
<g >
</g>
<g >
</g>
<g >
</g>
<g >
</g>
<g >
</g>
<g >
</g>
<g >
</g>
<g >
</g>
<g >
</g>
<g >
</g>
<g >
</g>
<g >
</g>
<g >
</g>
<g >
</g>
<g >
</g>
<g >
</g>
<g >
</g>
<g >
</g>
<g >
</g>
<g >
</g>
<g >
</g>
<g >
</g>
<g >
</g>
<g >
</g>
<g >
</g>
<g >
</g>
<g >
</g>
<g >
</g>
<g >
</g>
<g >
</g>
<g >
</g>
<g >
</g>
<g >
</g>
<g >
</g>
<g >
</g>
<g >
</g>
<g >
</g>
<g >
</g>
<g >
</g>
<g >
</g>
<g >
</g>
<g >
</g>
<g >
</g>
<g >
</g>
<g >
</g>
<g >
</g>
<g >
</g>
<g >
</g>
<g >
</g>
<g >
</g>
<g >
</g>
<g >
</g>
<g >
</g>
<g >
</g>
<g >
</g>
<g >
</g>
<g >
</g>
<g >
</g>
<g >
</g>
<g >
</g>
<g >
</g>
<g >
</g>
<g >
</g>
<g >
</g>
<g >
</g>
<g >
</g>
<g >
</g>
<g >
</g>
<g >
</g>
<g >
</g>
<g >
</g>
<g >
</g>
<g >
</g>
<g >
</g>
<g >
</g>
<g >
</g>
<g >
</g>
<g >
</g>
<g >
</g>
<g >
</g>
<g >
</g>
<g >
</g>
<g >
</g>
<g >
</g>
<g >
</g>
<g >
</g>
<g >
</g>
<g >
</g>
<g >
</g>
<g >
</g>
<g >
</g>
<g >
</g>
<g >
</g>
<g >
</g>
<g >
</g>
<g >
</g>
<g >
</g>
<g >
</g>
<g >
</g>
<g >
</g>
<g >
</g>
<g >
</g>
<g >
</g>
<g >
</g>
<g >
</g>
<g >
</g>
<g >
</g>
<g >
</g>
<g >
</g>
<g >
</g>
<g >
</g>
<g >
</g>
<g >
</g>
<g >
</g>
<g >
</g>
<g >
</g>
<g >
</g>
<g >
</g>
<g >
</g>
<g >
</g>
<g >
</g>
<g >
</g>
<g >
</g>
<g >
</g>
<g >
</g>
<g >
</g>
<g >
</g>
<g >
</g>
<g >
</g>
<g >
</g>
<g >
</g>
<g >
</g>
<g >
</g>
<g >
</g>
<g >
</g>
<g >
</g>
<g >
</g>
<g >
</g>
<g >
</g>
<g >
</g>
<g >
</g>
<g >
</g>
<g >
</g>
<g >
</g>
<g >
</g>
<g >
</g>
<g >
</g>
<g >
</g>
<g >
</g>
<g >
</g>
<g >
</g>
<g >
</g>
<g >
</g>
<g >
</g>
<g >
</g>
<g >
</g>
<g >
</g>
<g >
</g>
<g >
</g>
<g >
</g>
<g >
</g>
<g >
</g>
<g >
</g>
<g >
</g>
<g >
</g>
<g >
</g>
<g >
</g>
<g >
</g>
<g >
</g>
<g >
</g>
<g >
</g>
<g >
</g>
<g >
</g>
<g >
</g>
<g >
</g>
<g >
</g>
<g >
</g>
<g >
</g>
<g >
</g>
<g >
</g>
<g >
</g>
<g >
</g>
<g >
</g>
<g >
</g>
<g >
</g>
<g >
</g>
<g >
</g>
<g >
</g>
<g >
</g>
<g >
</g>
<g >
</g>
<g >
</g>
<g >
</g>
<g >
</g>
<g >
</g>
<g >
</g>
<g >
</g>
<g >
</g>
<g >
</g>
<g >
</g>
<g >
</g>
<g >
</g>
<g >
</g>
<g >
</g>
<g >
</g>
<g >
</g>
<g >
</g>
<g >
</g>
<g >
</g>
<g >
</g>
<g >
</g>
<g >
</g>
<g >
</g>
<g >
</g>
<g >
</g>
<g >
</g>
<g >
</g>
<g >
</g>
<g >
</g>
<g >
</g>
<g >
</g>
<g >
</g>
<g >
</g>
<g >
</g>
<g >
</g>
<g >
</g>
<g >
</g>
<g >
</g>
<g >
</g>
<g >
</g>
<g >
</g>
<g >
</g>
<g >
</g>
</g>
<g style="fill:#000000; fill-opacity:0.0; 
stroke:#000000; stroke-width:100000.000000; stroke-opacity:1; 
stroke-linecap:round; stroke-linejoin:round;">
</g>
<g style="fill:#D0D2CD; fill-opacity:0.0; 
stroke:#D0D2CD; stroke-width:100000.000000; stroke-opacity:1; 
stroke-linecap:round; stroke-linejoin:round;">
</g>
<g style="fill:#D0D2CD; fill-opacity:0.0; 
stroke:#D0D2CD; stroke-width:50000.000000; stroke-opacity:1; 
stroke-linecap:round; stroke-linejoin:round;">
<path d="M174525000.000000 27031250.000000 A2000000.000000 2000000.000000 0.0 0 0 172525000.000000 29031250.000000" />
<path d="M15025875 6656250
L24025875 6656250
" />
<path d="M25000.000000 96031250.000000 A4000000.000000 4000000.000000 0.0 0 0 4025000.000000 100031250.000000" />
<path d="M172525000 63031250
L172525000 96031250
" />
<path d="M345025000 96031250
L345025000 4031250
" />
<path d="M185525000.000000 31250.000000 A4000000.000000 4000000.000000 0.0 0 0 181525000.000000 4031250.000000" />
<path d="M179025000 61031250
L184025000 61031250
" />
<path d="M172525000 29031250
L172525000 42031250
" />
<path d="M166025000 27031250
L161025000 27031250
" />
<path d="M168025000.000000 4031250.000000 A4000000.000000 4000000.000000 0.0 0 0 164025000.000000 31250.000000" />
<path d="M161025000 44031250
L161525000 44031250
" />
<path d="M172525000.000000 42031250.000000 A2000000.000000 2000000.000000 0.0 0 0 174525000.000000 44031250.000000" />
<path d="M159025000.000000 42031250.000000 A2000000.000000 2000000.000000 0.0 0 0 161025000.000000 44031250.000000" />
<path d="M24025875 6656250
L24025875 37500
" />
<path d="M163525000.000000 59031250.000000 A2000000.000000 2000000.000000 0.0 0 0 165525000.000000 61031250.000000" />
<path d="M321024125 25000
L321025000 6650000
" />
<path d="M321025000 31250
L185525000 31250
" />
<path d="M161025000.000000 27031250.000000 A2000000.000000 2000000.000000 0.0 0 0 159025000.000000 29031250.000000" />
<path d="M25000 96031250
L25000 4031250
" />
<path d="M15025000 31250
L4025000 31250
" />
<path d="M168525000 100031250
L4025000 100031250
" />
<path d="M165525000 61031250
L170525000 61031250
" />
<path d="M177025000 46031250
L177025000 59031250
" />
<path d="M15025000 31250
L15025875 6656250
" />
<path d="M163525000 46031250
L163525000 59031250
" />
<path d="M186025000.000000 63031250.000000 A2000000.000000 2000000.000000 0.0 0 0 184025000.000000 61031250.000000" />
<path d="M330025000 31250
L341025000 31250
" />
<path d="M321025000 6650000
L330025000 6650000
" />
<path d="M179525000 27031250
L174525000 27031250
" />
<path d="M174525000 44031250
L175025000 44031250
" />
<path d="M177025000.000000 59031250.000000 A2000000.000000 2000000.000000 0.0 0 0 179025000.000000 61031250.000000" />
<path d="M24025875 37500
L164025000 31250
" />
<path d="M345025000.000000 4031250.000000 A4000000.000000 4000000.000000 0.0 0 0 341025000.000000 31250.000000" />
<path d="M186025000.000000 96031250.000000 A4000000.000000 4000000.000000 0.0 0 0 190025000.000000 100031250.000000" />
<path d="M341025000.000000 100031250.000000 A4000000.000000 4000000.000000 0.0 0 0 345025000.000000 96031250.000000" />
<path d="M181525000 4031250
L181525000 25031250
" />
<path d="M186025000 63031250
L186025000 96031250
" />
<path d="M168525000.000000 100031250.000000 A4000000.000000 4000000.000000 0.0 0 0 172525000.000000 96031250.000000" />
<path d="M163525000.000000 46031250.000000 A2000000.000000 2000000.000000 0.0 0 0 161525000.000000 44031250.000000" />
<path d="M168025000 4031250
L168025000 25031250
" />
<path d="M179525000.000000 27031250.000000 A2000000.000000 2000000.000000 0.0 0 0 181525000.000000 25031250.000000" />
<path d="M177025000.000000 46031250.000000 A2000000.000000 2000000.000000 0.0 0 0 175025000.000000 44031250.000000" />
<path d="M4025000.000000 31250.000000 A4000000.000000 4000000.000000 0.0 0 0 25000.000000 4031250.000000" />
<path d="M190025000 100031250
L341025000 100031250
" />
<path d="M330025000 6650000
L330025000 31250
" />
<path d="M159025000 29031250
L159025000 42031250
" />
<path d="M166025000.000000 27031250.000000 A2000000.000000 2000000.000000 0.0 0 0 168025000.000000 25031250.000000" />
<path d="M172525000.000000 63031250.000000 A2000000.000000 2000000.000000 0.0 0 0 170525000.000000 61031250.000000" />
</g>
<g style="fill:#D0D2CD; fill-opacity:0.0; 
stroke:#D0D2CD; stroke-width:120000.000000; stroke-opacity:1; 
stroke-linecap:round; stroke-linejoin:round;">
<path d="M6525000 11531250
L15525000 11531250
" />
<path d="M15525000 11531250
L15525000 25531250
" />
<path d="M15525000 25531250
L6525000 25531250
" />
<path d="M6525000 25531250
L6525000 11531250
" />
<g >
</g>
<g >
</g>
<g >
</g>
<g >
</g>
<g >
</g>
<g >
</g>
<g >
</g>
<g >
</g>
<g >
</g>
<g >
</g>
<g >
</g>
<g >
</g>
<g >
</g>
<g >
</g>
<g >
</g>
<g >
</g>
<g >
</g>
<g >
</g>
<g >
</g>
<g >
</g>
<g >
</g>
<g >
</g>
<g >
</g>
<g >
</g>
<g >
</g>
<g >
</g>
<g >
</g>
<g >
</g>
<g >
</g>
<g >
</g>
<g >
</g>
<g >
</g>
<g >
</g>
<g >
</g>
<g >
</g>
<g >
</g>
<g >
</g>
<g >
</g>
<g >
</g>
<g >
</g>
<g >
</g>
<g >
</g>
<g >
</g>
<g >
</g>
<g >
</g>
<g >
</g>
<g >
</g>
<g >
</g>
<g >
</g>
<g >
</g>
<g >
</g>
<g >
</g>
<g >
</g>
<g >
</g>
<g >
</g>
<g >
</g>
<g >
</g>
<g >
</g>
<g >
</g>
<g >
</g>
<g >
</g>
<g >
</g>
<g >
</g>
<g >
</g>
<g >
</g>
<g >
</g>
<g >
</g>
<g >
</g>
<g >
</g>
<g >
</g>
<g >
</g>
<g >
</g>
<g >
</g>
<g >
</g>
<g >
</g>
<g >
</g>
<g >
</g>
<g >
</g>
<g >
</g>
<g >
</g>
<g >
</g>
<g >
</g>
<g >
</g>
<g >
</g>
<g >
</g>
<g >
</g>
<g >
</g>
<g >
</g>
<g >
</g>
<g >
</g>
<g >
</g>
<g >
</g>
<g >
</g>
<g >
</g>
<g >
</g>
<g >
</g>
<g >
</g>
<g >
</g>
<g >
</g>
<g >
</g>
<g >
</g>
<g >
</g>
<g >
</g>
<g >
</g>
<g >
</g>
<g >
</g>
<g >
</g>
<g >
</g>
<g >
</g>
<g >
</g>
<g >
</g>
<g >
</g>
<g >
</g>
<g >
</g>
<g >
</g>
<g >
</g>
<g >
</g>
<g >
</g>
<g >
</g>
<g >
</g>
<g >
</g>
<g >
</g>
<g >
</g>
<g >
</g>
<g >
</g>
<g >
</g>
<g >
</g>
<g >
</g>
<g >
</g>
<g >
</g>
<g >
</g>
<g >
</g>
<g >
</g>
<g >
</g>
<g >
</g>
<g >
</g>
<g >
</g>
<g >
</g>
<g >
</g>
<g >
</g>
<g >
</g>
<g >
</g>
<g >
</g>
<g >
</g>
<g >
</g>
<g >
</g>
<g >
</g>
<g >
</g>
<g >
</g>
<g >
</g>
<g >
</g>
<g >
</g>
<g >
</g>
<g >
</g>
<g >
</g>
<g >
</g>
<g >
</g>
<g >
</g>
<g >
</g>
<g >
</g>
<g >
</g>
<g >
</g>
<g >
</g>
<g >
</g>
<g >
</g>
<g >
</g>
<g >
</g>
<g >
</g>
<g >
</g>
<g >
</g>
<g >
</g>
<g >
</g>
<g >
</g>
<g >
</g>
<g >
</g>
<g >
</g>
<g >
</g>
<g >
</g>
<g >
</g>
<g >
</g>
<g >
</g>
<g >
</g>
<g >
</g>
<g >
</g>
<g >
</g>
<g >
</g>
<g >
</g>
<g >
</g>
<g >
</g>
<g >
</g>
<g >
</g>
<g >
</g>
<g >
</g>
<g >
</g>
<g >
</g>
<g >
</g>
<g >
</g>
<g >
</g>
<g >
</g>
<g >
</g>
<g >
</g>
<g >
</g>
<g >
</g>
<g >
</g>
<g >
</g>
<g >
</g>
<g >
</g>
<g >
</g>
<g >
</g>
<g >
</g>
<g >
</g>
<g >
</g>
<g >
</g>
<g >
</g>
<g >
</g>
<g >
</g>
<g >
</g>
<g >
</g>
<g >
</g>
<g >
</g>
<g >
</g>
<g >
</g>
<g >
</g>
<g >
</g>
<g >
</g>
<g >
</g>
<g >
</g>
<g >
</g>
<g >
</g>
<g >
</g>
<g >
</g>
<g >
</g>
<g >
</g>
<g >
</g>
<g >
</g>
<g >
</g>
<g >
</g>
<g >
</g>
<g >
</g>
<g >
</g>
<g >
</g>
<g >
</g>
<g >
</g>
<g >
</g>
<g >
</g>
<g >
</g>
<g >
</g>
<g >
</g>
<g >
</g>
<g >
</g>
<g >
</g>
<g >
</g>
<g >
</g>
<g >
</g>
<g >
</g>
<g >
</g>
<g >
</g>
<g >
</g>
<g >
</g>
<g >
</g>
<g >
</g>
<g >
</g>
<g >
</g>
<g >
</g>
<g >
</g>
<g >
</g>
<g >
</g>
<g >
</g>
<g >
</g>
<g >
</g>
<g >
</g>
<g >
</g>
<g >
</g>
<g >
</g>
<g >
</g>
<g >
</g>
<g >
</g>
<g >
</g>
<g >
</g>
<g >
</g>
<g >
</g>
<g >
</g>
<g >
</g>
<g >
</g>
<g >
</g>
<g >
</g>
<g >
</g>
<g >
</g>
<g >
</g>
<g >
</g>
<g >
</g>
<g >
</g>
<g >
</g>
<g >
</g>
<g >
</g>
<g >
</g>
<g >
</g>
<g >
</g>
<g >
</g>
<g >
</g>
<g >
</g>
<g >
</g>
<g >
</g>
<g >
</g>
<g >
</g>
<g >
</g>
<g >
</g>
<g >
</g>
<g >
</g>
<g >
</g>
<g >
</g>
<g >
</g>
<g >
</g>
<g >
</g>
<g >
</g>
<g >
</g>
<g >
</g>
<g >
</g>
<g >
</g>
<g >
</g>
<g >
</g>
<g >
</g>
<g >
</g>
<g >
</g>
<g >
</g>
<g >
</g>
<g >
</g>
<g >
</g>
<g >
</g>
<g >
</g>
<g >
</g>
<g >
</g>
<g >
</g>
<g >
</g>
<g >
</g>
<g >
</g>
<g >
</g>
<g >
</g>
<g >
</g>
<g >
</g>
<g >
</g>
<g >
</g>
<g >
</g>
<g >
</g>
<g >
</g>
<g >
</g>
<g >
</g>
<g >
</g>
<g >
</g>
<g >
</g>
<g >
</g>
<g >
</g>
<g >
</g>
<g >
</g>
<g >
</g>
<g >
</g>
<g >
</g>
<g >
</g>
<g >
</g>
<g >
</g>
<g >
</g>
<g >
</g>
<g >
</g>
<g >
</g>
<g >
</g>
<g >
</g>
<g >
</g>
<g >
</g>
<g >
</g>
<g >
</g>
<g >
</g>
<g >
</g>
<g >
</g>
<g >
</g>
<g >
</g>
<g >
</g>
<g >
</g>
<g >
</g>
<g >
</g>
<g >
</g>
<g >
</g>
<g >
</g>
<g >
</g>
<g >
</g>
<g >
</g>
<g >
</g>
<g >
</g>
<g >
</g>
<g >
</g>
<g >
</g>
<g >
</g>
<g >
</g>
<g >
</g>
<g >
</g>
<g >
</g>
<g >
</g>
<g >
</g>
<g >
</g>
<g >
</g>
<g >
</g>
<g >
</g>
<g >
</g>
</g> 
</svg>
