<?xml version="1.0" standalone="no"?>
 <!DOCTYPE svg PUBLIC "-//W3C//DTD SVG 1.1//EN" 
 "http://www.w3.org/Graphics/SVG/1.1/DTD/svg11.dtd"> 
<svg
  xmlns:svg="http://www.w3.org/2000/svg"
  xmlns="http://www.w3.org/2000/svg"
  xmlns:xlink="http://www.w3.org/1999/xlink"
  version="1.1"
  width="34.503360cm" height="10.005060cm" viewBox="0 0 345033600 100050600">
<title>SVG Picture created as halfjunk-F_Silkscreen.svg date 2022/08/22 12:09:22 </title>
  <desc>Picture generated by PCBNEW </desc>
<g style="fill:#000000; fill-opacity:1.000000;stroke:#000000; stroke-opacity:1.000000;
stroke-linecap:round; stroke-linejoin:round;"
 transform="translate(0 0) scale(1 1)">
</g>
<g style="fill:#000000; fill-opacity:0.0; 
stroke:#000000; stroke-width:0.000000; stroke-opacity:1; 
stroke-linecap:round; stroke-linejoin:round;">
</g>
<g style="fill:#F2EDA1; fill-opacity:0.0; 
stroke:#F2EDA1; stroke-width:0.000000; stroke-opacity:1; 
stroke-linecap:round; stroke-linejoin:round;">
</g>
<g style="fill:#F2EDA1; fill-opacity:0.0; 
stroke:#F2EDA1; stroke-width:120000.000000; stroke-opacity:1; 
stroke-linecap:round; stroke-linejoin:round;">
<path d="M174525000 44031250
L175025000 44031250
" />
<path d="M186025000 63031250
L186025000 95531250
" />
<path d="M177025000.000000 46031250.000000 A2000000.000000 2000000.000000 0.0 0 0 175025000.000000 44031250.000000" />
<path d="M172525000.000000 63031250.000000 A2000000.000000 2000000.000000 0.0 0 0 170525000.000000 61031250.000000" />
<path d="M179525000 27031250
L174525000 27031250
" />
<path d="M181525000 4031250
L181525000 25031250
" />
<path d="M287275000 78031250
L287275000 95031250
" />
<path d="M165525000 61031250
L170525000 61031250
" />
<path d="M172525000 29031250
L172525000 42031250
" />
<path d="M39775000 95031250
L39775000 10031250
" />
<path d="M161025000.000000 27031250.000000 A2000000.000000 2000000.000000 0.0 0 0 159025000.000000 29031250.000000" />
<path d="M163525000.000000 46031250.000000 A2000000.000000 2000000.000000 0.0 0 0 161525000.000000 44031250.000000" />
<path d="M177025000.000000 59031250.000000 A2000000.000000 2000000.000000 0.0 0 0 179025000.000000 61031250.000000" />
<path d="M172525000.000000 42031250.000000 A2000000.000000 2000000.000000 0.0 0 0 174525000.000000 44031250.000000" />
<path d="M159025000 29031250
L159025000 42031250
" />
<path d="M168025000 4031250
L168025000 25031250
" />
<path d="M163525000.000000 59031250.000000 A2000000.000000 2000000.000000 0.0 0 0 165525000.000000 61031250.000000" />
<path d="M179025000 61031250
L184025000 61031250
" />
<path d="M179525000.000000 27031250.000000 A2000000.000000 2000000.000000 0.0 0 0 181525000.000000 25031250.000000" />
<path d="M161025000 44031250
L161525000 44031250
" />
<path d="M174525000.000000 27031250.000000 A2000000.000000 2000000.000000 0.0 0 0 172525000.000000 29031250.000000" />
<path d="M186025000.000000 63031250.000000 A2000000.000000 2000000.000000 0.0 0 0 184025000.000000 61031250.000000" />
<path d="M177025000 46031250
L177025000 59031250
" />
<path d="M166025000.000000 27031250.000000 A2000000.000000 2000000.000000 0.0 0 0 168025000.000000 25031250.000000" />
<path d="M166025000 27031250
L161025000 27031250
" />
<path d="M172525000 63031250
L172525000 95531250
" />
<path d="M159025000.000000 42031250.000000 A2000000.000000 2000000.000000 0.0 0 0 161025000.000000 44031250.000000" />
<path d="M163525000 46031250
L163525000 59031250
" />
</g>
<g style="fill:#F2EDA1; fill-opacity:0.0; 
stroke:#F2EDA1; stroke-width:150000.000000; stroke-opacity:1; 
stroke-linecap:round; stroke-linejoin:round;">
<text x="160025000.000000" y="6031250.000000"
textLength="4164762.000000" font-size="1333333.000000" lengthAdjust="spacingAndGlyphs"
text-anchor="middle" opacity="0">H203</text>
<g class="stroked-text"><desc>H203</desc>
<path d="M158310714 5983630
L158310714 4983630
" />
<path d="M158310714 5459821
L158882142 5459821
" />
<path d="M158882142 5983630
L158882142 4983630
" />
<path d="M159310714 5078869
L159358333 5031250
L159453571 4983630
L159691666 4983630
L159786904 5031250
L159834523 5078869
L159882142 5174107
L159882142 5269345
L159834523 5412202
L159263095 5983630
L159882142 5983630
" />
<path d="M160501190 4983630
L160596428 4983630
L160691666 5031250
L160739285 5078869
L160786904 5174107
L160834523 5364583
L160834523 5602678
L160786904 5793154
L160739285 5888392
L160691666 5936011
L160596428 5983630
L160501190 5983630
L160405952 5936011
L160358333 5888392
L160310714 5793154
L160263095 5602678
L160263095 5364583
L160310714 5174107
L160358333 5078869
L160405952 5031250
L160501190 4983630
" />
<path d="M161167857 4983630
L161786904 4983630
L161453571 5364583
L161596428 5364583
L161691666 5412202
L161739285 5459821
L161786904 5555059
L161786904 5793154
L161739285 5888392
L161691666 5936011
L161596428 5983630
L161310714 5983630
L161215476 5936011
L161167857 5888392
" />
</g><text x="8025000.000000" y="6031250.000000"
textLength="4099762.000000" font-size="1333333.000000" lengthAdjust="spacingAndGlyphs"
text-anchor="middle" opacity="0">H201</text>
<g class="stroked-text"><desc>H201</desc>
<path d="M6310714 5983630
L6310714 4983630
" />
<path d="M6310714 5459821
L6882142 5459821
" />
<path d="M6882142 5983630
L6882142 4983630
" />
<path d="M7310714 5078869
L7358333 5031250
L7453571 4983630
L7691666 4983630
L7786904 5031250
L7834523 5078869
L7882142 5174107
L7882142 5269345
L7834523 5412202
L7263095 5983630
L7882142 5983630
" />
<path d="M8501190 4983630
L8596428 4983630
L8691666 5031250
L8739285 5078869
L8786904 5174107
L8834523 5364583
L8834523 5602678
L8786904 5793154
L8739285 5888392
L8691666 5936011
L8596428 5983630
L8501190 5983630
L8405952 5936011
L8358333 5888392
L8310714 5793154
L8263095 5602678
L8263095 5364583
L8310714 5174107
L8358333 5078869
L8405952 5031250
L8501190 4983630
" />
<path d="M9786904 5983630
L9215476 5983630
" />
<path d="M9501190 5983630
L9501190 4983630
L9405952 5126488
L9310714 5221726
L9215476 5269345
" />
</g><text x="267225000.000000" y="6031250.000000"
textLength="4099762.000000" font-size="1333333.000000" lengthAdjust="spacingAndGlyphs"
text-anchor="middle" opacity="0">H302</text>
<g class="stroked-text"><desc>H302</desc>
<path d="M265510714 5983630
L265510714 4983630
" />
<path d="M265510714 5459821
L266082142 5459821
" />
<path d="M266082142 5983630
L266082142 4983630
" />
<path d="M266463095 4983630
L267082142 4983630
L266748809 5364583
L266891666 5364583
L266986904 5412202
L267034523 5459821
L267082142 5555059
L267082142 5793154
L267034523 5888392
L266986904 5936011
L266891666 5983630
L266605952 5983630
L266510714 5936011
L266463095 5888392
" />
<path d="M267701190 4983630
L267796428 4983630
L267891666 5031250
L267939285 5078869
L267986904 5174107
L268034523 5364583
L268034523 5602678
L267986904 5793154
L267939285 5888392
L267891666 5936011
L267796428 5983630
L267701190 5983630
L267605952 5936011
L267558333 5888392
L267510714 5793154
L267463095 5602678
L267463095 5364583
L267510714 5174107
L267558333 5078869
L267605952 5031250
L267701190 4983630
" />
<path d="M268415476 5078869
L268463095 5031250
L268558333 4983630
L268796428 4983630
L268891666 5031250
L268939285 5078869
L268986904 5174107
L268986904 5269345
L268939285 5412202
L268367857 5983630
L268986904 5983630
" />
</g><text x="336925000.000000" y="6031250.000000"
textLength="4099762.000000" font-size="1333333.000000" lengthAdjust="spacingAndGlyphs"
text-anchor="middle" opacity="0">H303</text>
<g class="stroked-text"><desc>H303</desc>
<path d="M335210714 5983630
L335210714 4983630
" />
<path d="M335210714 5459821
L335782142 5459821
" />
<path d="M335782142 5983630
L335782142 4983630
" />
<path d="M336163095 4983630
L336782142 4983630
L336448809 5364583
L336591666 5364583
L336686904 5412202
L336734523 5459821
L336782142 5555059
L336782142 5793154
L336734523 5888392
L336686904 5936011
L336591666 5983630
L336305952 5983630
L336210714 5936011
L336163095 5888392
" />
<path d="M337401190 4983630
L337496428 4983630
L337591666 5031250
L337639285 5078869
L337686904 5174107
L337734523 5364583
L337734523 5602678
L337686904 5793154
L337639285 5888392
L337591666 5936011
L337496428 5983630
L337401190 5983630
L337305952 5936011
L337258333 5888392
L337210714 5793154
L337163095 5602678
L337163095 5364583
L337210714 5174107
L337258333 5078869
L337305952 5031250
L337401190 4983630
" />
<path d="M338067857 4983630
L338686904 4983630
L338353571 5364583
L338496428 5364583
L338591666 5412202
L338639285 5459821
L338686904 5555059
L338686904 5793154
L338639285 5888392
L338591666 5936011
L338496428 5983630
L338210714 5983630
L338115476 5936011
L338067857 5888392
" />
</g><text x="88025000.000000" y="6031250.000000"
textLength="4099762.000000" font-size="1333333.000000" lengthAdjust="spacingAndGlyphs"
text-anchor="middle" opacity="0">H202</text>
<g class="stroked-text"><desc>H202</desc>
<path d="M86310714 5983630
L86310714 4983630
" />
<path d="M86310714 5459821
L86882142 5459821
" />
<path d="M86882142 5983630
L86882142 4983630
" />
<path d="M87310714 5078869
L87358333 5031250
L87453571 4983630
L87691666 4983630
L87786904 5031250
L87834523 5078869
L87882142 5174107
L87882142 5269345
L87834523 5412202
L87263095 5983630
L87882142 5983630
" />
<path d="M88501190 4983630
L88596428 4983630
L88691666 5031250
L88739285 5078869
L88786904 5174107
L88834523 5364583
L88834523 5602678
L88786904 5793154
L88739285 5888392
L88691666 5936011
L88596428 5983630
L88501190 5983630
L88405952 5936011
L88358333 5888392
L88310714 5793154
L88263095 5602678
L88263095 5364583
L88310714 5174107
L88358333 5078869
L88405952 5031250
L88501190 4983630
" />
<path d="M89215476 5078869
L89263095 5031250
L89358333 4983630
L89596428 4983630
L89691666 5031250
L89739285 5078869
L89786904 5174107
L89786904 5269345
L89739285 5412202
L89167857 5983630
L89786904 5983630
" />
</g><g transform="rotate(-270.000000 11175000.000000 18681250.000000)">
<text x="11175000.000000" y="19181250.000000"
textLength="5147381.000000" font-size="1333333.000000" lengthAdjust="spacingAndGlyphs"
text-anchor="middle" opacity="0">SW202</text>
</g>
<g class="stroked-text"><desc>SW202</desc>
<path d="M10770238 16395535
L10722619 16538392
L10722619 16776488
L10770238 16871726
L10817857 16919345
L10913095 16966964
L11008333 16966964
L11103571 16919345
L11151190 16871726
L11198809 16776488
L11246428 16586011
L11294047 16490773
L11341666 16443154
L11436904 16395535
L11532142 16395535
L11627380 16443154
L11675000 16490773
L11722619 16586011
L11722619 16824107
L11675000 16966964
" />
<path d="M11722619 17300297
L10722619 17538392
L11436904 17728869
L10722619 17919345
L11722619 18157440
" />
<path d="M11627380 18490773
L11675000 18538392
L11722619 18633630
L11722619 18871726
L11675000 18966964
L11627380 19014583
L11532142 19062202
L11436904 19062202
L11294047 19014583
L10722619 18443154
L10722619 19062202
" />
<path d="M11722619 19681250
L11722619 19776488
L11675000 19871726
L11627380 19919345
L11532142 19966964
L11341666 20014583
L11103571 20014583
L10913095 19966964
L10817857 19919345
L10770238 19871726
L10722619 19776488
L10722619 19681250
L10770238 19586011
L10817857 19538392
L10913095 19490773
L11103571 19443154
L11341666 19443154
L11532142 19490773
L11627380 19538392
L11675000 19586011
L11722619 19681250
" />
<path d="M11627380 20395535
L11675000 20443154
L11722619 20538392
L11722619 20776488
L11675000 20871726
L11627380 20919345
L11532142 20966964
L11436904 20966964
L11294047 20919345
L10722619 20347916
L10722619 20966964
" />
</g><text x="269525000.000000" y="98031250.000000"
textLength="4099762.000000" font-size="1333333.000000" lengthAdjust="spacingAndGlyphs"
text-anchor="middle" opacity="0">H305</text>
<g class="stroked-text"><desc>H305</desc>
<path d="M267810714 97983630
L267810714 96983630
" />
<path d="M267810714 97459821
L268382142 97459821
" />
<path d="M268382142 97983630
L268382142 96983630
" />
<path d="M268763095 96983630
L269382142 96983630
L269048809 97364583
L269191666 97364583
L269286904 97412202
L269334523 97459821
L269382142 97555059
L269382142 97793154
L269334523 97888392
L269286904 97936011
L269191666 97983630
L268905952 97983630
L268810714 97936011
L268763095 97888392
" />
<path d="M270001190 96983630
L270096428 96983630
L270191666 97031250
L270239285 97078869
L270286904 97174107
L270334523 97364583
L270334523 97602678
L270286904 97793154
L270239285 97888392
L270191666 97936011
L270096428 97983630
L270001190 97983630
L269905952 97936011
L269858333 97888392
L269810714 97793154
L269763095 97602678
L269763095 97364583
L269810714 97174107
L269858333 97078869
L269905952 97031250
L270001190 96983630
" />
<path d="M271239285 96983630
L270763095 96983630
L270715476 97459821
L270763095 97412202
L270858333 97364583
L271096428 97364583
L271191666 97412202
L271239285 97459821
L271286904 97555059
L271286904 97793154
L271239285 97888392
L271191666 97936011
L271096428 97983630
L270858333 97983630
L270763095 97936011
L270715476 97888392
" />
</g><text x="164525000.000000" y="98031250.000000"
textLength="4099762.000000" font-size="1333333.000000" lengthAdjust="spacingAndGlyphs"
text-anchor="middle" opacity="0">H206</text>
<g class="stroked-text"><desc>H206</desc>
<path d="M162810714 97983630
L162810714 96983630
" />
<path d="M162810714 97459821
L163382142 97459821
" />
<path d="M163382142 97983630
L163382142 96983630
" />
<path d="M163810714 97078869
L163858333 97031250
L163953571 96983630
L164191666 96983630
L164286904 97031250
L164334523 97078869
L164382142 97174107
L164382142 97269345
L164334523 97412202
L163763095 97983630
L164382142 97983630
" />
<path d="M165001190 96983630
L165096428 96983630
L165191666 97031250
L165239285 97078869
L165286904 97174107
L165334523 97364583
L165334523 97602678
L165286904 97793154
L165239285 97888392
L165191666 97936011
L165096428 97983630
L165001190 97983630
L164905952 97936011
L164858333 97888392
L164810714 97793154
L164763095 97602678
L164763095 97364583
L164810714 97174107
L164858333 97078869
L164905952 97031250
L165001190 96983630
" />
<path d="M166191666 96983630
L166001190 96983630
L165905952 97031250
L165858333 97078869
L165763095 97221726
L165715476 97412202
L165715476 97793154
L165763095 97888392
L165810714 97936011
L165905952 97983630
L166096428 97983630
L166191666 97936011
L166239285 97888392
L166286904 97793154
L166286904 97555059
L166239285 97459821
L166191666 97412202
L166096428 97364583
L165905952 97364583
L165810714 97412202
L165763095 97459821
L165715476 97555059
" />
</g><text x="337025000.000000" y="98031250.000000"
textLength="4099762.000000" font-size="1333333.000000" lengthAdjust="spacingAndGlyphs"
text-anchor="middle" opacity="0">H306</text>
<g class="stroked-text"><desc>H306</desc>
<path d="M335310714 97983630
L335310714 96983630
" />
<path d="M335310714 97459821
L335882142 97459821
" />
<path d="M335882142 97983630
L335882142 96983630
" />
<path d="M336263095 96983630
L336882142 96983630
L336548809 97364583
L336691666 97364583
L336786904 97412202
L336834523 97459821
L336882142 97555059
L336882142 97793154
L336834523 97888392
L336786904 97936011
L336691666 97983630
L336405952 97983630
L336310714 97936011
L336263095 97888392
" />
<path d="M337501190 96983630
L337596428 96983630
L337691666 97031250
L337739285 97078869
L337786904 97174107
L337834523 97364583
L337834523 97602678
L337786904 97793154
L337739285 97888392
L337691666 97936011
L337596428 97983630
L337501190 97983630
L337405952 97936011
L337358333 97888392
L337310714 97793154
L337263095 97602678
L337263095 97364583
L337310714 97174107
L337358333 97078869
L337405952 97031250
L337501190 96983630
" />
<path d="M338691666 96983630
L338501190 96983630
L338405952 97031250
L338358333 97078869
L338263095 97221726
L338215476 97412202
L338215476 97793154
L338263095 97888392
L338310714 97936011
L338405952 97983630
L338596428 97983630
L338691666 97936011
L338739285 97888392
L338786904 97793154
L338786904 97555059
L338739285 97459821
L338691666 97412202
L338596428 97364583
L338405952 97364583
L338310714 97412202
L338263095 97459821
L338215476 97555059
" />
</g><text x="194025000.000000" y="98031250.000000"
textLength="4099762.000000" font-size="1333333.000000" lengthAdjust="spacingAndGlyphs"
text-anchor="middle" opacity="0">H304</text>
<g class="stroked-text"><desc>H304</desc>
<path d="M192310714 97983630
L192310714 96983630
" />
<path d="M192310714 97459821
L192882142 97459821
" />
<path d="M192882142 97983630
L192882142 96983630
" />
<path d="M193263095 96983630
L193882142 96983630
L193548809 97364583
L193691666 97364583
L193786904 97412202
L193834523 97459821
L193882142 97555059
L193882142 97793154
L193834523 97888392
L193786904 97936011
L193691666 97983630
L193405952 97983630
L193310714 97936011
L193263095 97888392
" />
<path d="M194501190 96983630
L194596428 96983630
L194691666 97031250
L194739285 97078869
L194786904 97174107
L194834523 97364583
L194834523 97602678
L194786904 97793154
L194739285 97888392
L194691666 97936011
L194596428 97983630
L194501190 97983630
L194405952 97936011
L194358333 97888392
L194310714 97793154
L194263095 97602678
L194263095 97364583
L194310714 97174107
L194358333 97078869
L194405952 97031250
L194501190 96983630
" />
<path d="M195691666 97316964
L195691666 97983630
" />
<path d="M195453571 96936011
L195215476 97650297
L195834523 97650297
" />
</g><text x="90275000.000000" y="98031250.000000"
textLength="4099762.000000" font-size="1333333.000000" lengthAdjust="spacingAndGlyphs"
text-anchor="middle" opacity="0">H205</text>
<g class="stroked-text"><desc>H205</desc>
<path d="M88560714 97983630
L88560714 96983630
" />
<path d="M88560714 97459821
L89132142 97459821
" />
<path d="M89132142 97983630
L89132142 96983630
" />
<path d="M89560714 97078869
L89608333 97031250
L89703571 96983630
L89941666 96983630
L90036904 97031250
L90084523 97078869
L90132142 97174107
L90132142 97269345
L90084523 97412202
L89513095 97983630
L90132142 97983630
" />
<path d="M90751190 96983630
L90846428 96983630
L90941666 97031250
L90989285 97078869
L91036904 97174107
L91084523 97364583
L91084523 97602678
L91036904 97793154
L90989285 97888392
L90941666 97936011
L90846428 97983630
L90751190 97983630
L90655952 97936011
L90608333 97888392
L90560714 97793154
L90513095 97602678
L90513095 97364583
L90560714 97174107
L90608333 97078869
L90655952 97031250
L90751190 96983630
" />
<path d="M91989285 96983630
L91513095 96983630
L91465476 97459821
L91513095 97412202
L91608333 97364583
L91846428 97364583
L91941666 97412202
L91989285 97459821
L92036904 97555059
L92036904 97793154
L91989285 97888392
L91941666 97936011
L91846428 97983630
L91608333 97983630
L91513095 97936011
L91465476 97888392
" />
</g><text x="189525000.000000" y="6031250.000000"
textLength="4099762.000000" font-size="1333333.000000" lengthAdjust="spacingAndGlyphs"
text-anchor="middle" opacity="0">H301</text>
<g class="stroked-text"><desc>H301</desc>
<path d="M187810714 5983630
L187810714 4983630
" />
<path d="M187810714 5459821
L188382142 5459821
" />
<path d="M188382142 5983630
L188382142 4983630
" />
<path d="M188763095 4983630
L189382142 4983630
L189048809 5364583
L189191666 5364583
L189286904 5412202
L189334523 5459821
L189382142 5555059
L189382142 5793154
L189334523 5888392
L189286904 5936011
L189191666 5983630
L188905952 5983630
L188810714 5936011
L188763095 5888392
" />
<path d="M190001190 4983630
L190096428 4983630
L190191666 5031250
L190239285 5078869
L190286904 5174107
L190334523 5364583
L190334523 5602678
L190286904 5793154
L190239285 5888392
L190191666 5936011
L190096428 5983630
L190001190 5983630
L189905952 5936011
L189858333 5888392
L189810714 5793154
L189763095 5602678
L189763095 5364583
L189810714 5174107
L189858333 5078869
L189905952 5031250
L190001190 4983630
" />
<path d="M191286904 5983630
L190715476 5983630
" />
<path d="M191001190 5983630
L191001190 4983630
L190905952 5126488
L190810714 5221726
L190715476 5269345
" />
</g><text x="8025000.000000" y="98031250.000000"
textLength="4099762.000000" font-size="1333333.000000" lengthAdjust="spacingAndGlyphs"
text-anchor="middle" opacity="0">H204</text>
<g class="stroked-text"><desc>H204</desc>
<path d="M6310714 97983630
L6310714 96983630
" />
<path d="M6310714 97459821
L6882142 97459821
" />
<path d="M6882142 97983630
L6882142 96983630
" />
<path d="M7310714 97078869
L7358333 97031250
L7453571 96983630
L7691666 96983630
L7786904 97031250
L7834523 97078869
L7882142 97174107
L7882142 97269345
L7834523 97412202
L7263095 97983630
L7882142 97983630
" />
<path d="M8501190 96983630
L8596428 96983630
L8691666 97031250
L8739285 97078869
L8786904 97174107
L8834523 97364583
L8834523 97602678
L8786904 97793154
L8739285 97888392
L8691666 97936011
L8596428 97983630
L8501190 97983630
L8405952 97936011
L8358333 97888392
L8310714 97793154
L8263095 97602678
L8263095 97364583
L8310714 97174107
L8358333 97078869
L8405952 97031250
L8501190 96983630
" />
<path d="M9691666 97316964
L9691666 97983630
" />
<path d="M9453571 96936011
L9215476 97650297
L9834523 97650297
" />
</g><text x="236795000.000000" y="3349250.000000"
textLength="2261667.000000" font-size="933333.000000" lengthAdjust="spacingAndGlyphs"
text-anchor="middle" opacity="0">SCK</text>
<g class="stroked-text"><desc>SCK</desc>
<path d="M235895000 3282583
L235995000 3315916
L236161666 3315916
L236228333 3282583
L236261666 3249250
L236295000 3182583
L236295000 3115916
L236261666 3049250
L236228333 3015916
L236161666 2982583
L236028333 2949250
L235961666 2915916
L235928333 2882583
L235895000 2815916
L235895000 2749250
L235928333 2682583
L235961666 2649250
L236028333 2615916
L236195000 2615916
L236295000 2649250
" />
<path d="M236995000 3249250
L236961666 3282583
L236861666 3315916
L236795000 3315916
L236695000 3282583
L236628333 3215916
L236595000 3149250
L236561666 3015916
L236561666 2915916
L236595000 2782583
L236628333 2715916
L236695000 2649250
L236795000 2615916
L236861666 2615916
L236961666 2649250
L236995000 2682583
" />
<path d="M237295000 3315916
L237295000 2615916
" />
<path d="M237695000 3315916
L237395000 2915916
" />
<path d="M237695000 2615916
L237295000 3015916
" />
</g><text x="241875000.000000" y="3349250.000000"
textLength="2728333.000000" font-size="933333.000000" lengthAdjust="spacingAndGlyphs"
text-anchor="middle" opacity="0">MISO</text>
<g class="stroked-text"><desc>MISO</desc>
<path d="M240775000 3315916
L240775000 2615916
L241008333 3115916
L241241666 2615916
L241241666 3315916
" />
<path d="M241575000 3315916
L241575000 2615916
" />
<path d="M241875000 3282583
L241975000 3315916
L242141666 3315916
L242208333 3282583
L242241666 3249250
L242275000 3182583
L242275000 3115916
L242241666 3049250
L242208333 3015916
L242141666 2982583
L242008333 2949250
L241941666 2915916
L241908333 2882583
L241875000 2815916
L241875000 2749250
L241908333 2682583
L241941666 2649250
L242008333 2615916
L242175000 2615916
L242275000 2649250
" />
<path d="M242708333 2615916
L242841666 2615916
L242908333 2649250
L242975000 2715916
L243008333 2849250
L243008333 3082583
L242975000 3215916
L242908333 3282583
L242841666 3315916
L242708333 3315916
L242641666 3282583
L242575000 3215916
L242541666 3082583
L242541666 2849250
L242575000 2715916
L242641666 2649250
L242708333 2615916
" />
</g><text x="239335000.000000" y="3349250.000000"
textLength="2195000.000000" font-size="933333.000000" lengthAdjust="spacingAndGlyphs"
text-anchor="middle" opacity="0">VCC</text>
<g class="stroked-text"><desc>VCC</desc>
<path d="M238401666 2615916
L238635000 3315916
L238868333 2615916
" />
<path d="M239501666 3249250
L239468333 3282583
L239368333 3315916
L239301666 3315916
L239201666 3282583
L239135000 3215916
L239101666 3149250
L239068333 3015916
L239068333 2915916
L239101666 2782583
L239135000 2715916
L239201666 2649250
L239301666 2615916
L239368333 2615916
L239468333 2649250
L239501666 2682583
" />
<path d="M240201666 3249250
L240168333 3282583
L240068333 3315916
L240001666 3315916
L239901666 3282583
L239835000 3215916
L239801666 3149250
L239768333 3015916
L239768333 2915916
L239801666 2782583
L239835000 2715916
L239901666 2649250
L240001666 2615916
L240068333 2615916
L240168333 2649250
L240201666 2682583
" />
</g><text x="231715000.000000" y="3349250.000000"
textLength="2095000.000000" font-size="933333.000000" lengthAdjust="spacingAndGlyphs"
text-anchor="middle" opacity="0">RST</text>
<g class="stroked-text"><desc>RST</desc>
<path d="M231331666 3315916
L231098333 2982583
" />
<path d="M230931666 3315916
L230931666 2615916
L231198333 2615916
L231265000 2649250
L231298333 2682583
L231331666 2749250
L231331666 2849250
L231298333 2915916
L231265000 2949250
L231198333 2982583
L230931666 2982583
" />
<path d="M231598333 3282583
L231698333 3315916
L231865000 3315916
L231931666 3282583
L231965000 3249250
L231998333 3182583
L231998333 3115916
L231965000 3049250
L231931666 3015916
L231865000 2982583
L231731666 2949250
L231665000 2915916
L231631666 2882583
L231598333 2815916
L231598333 2749250
L231631666 2682583
L231665000 2649250
L231731666 2615916
L231898333 2615916
L231998333 2649250
" />
<path d="M232198333 2615916
L232598333 2615916
" />
<path d="M232398333 3315916
L232398333 2615916
" />
</g><text x="229175000.000000" y="3349250.000000"
textLength="2328333.000000" font-size="933333.000000" lengthAdjust="spacingAndGlyphs"
text-anchor="middle" opacity="0">GND</text>
<g class="stroked-text"><desc>GND</desc>
<path d="M228641666 2649250
L228575000 2615916
L228475000 2615916
L228375000 2649250
L228308333 2715916
L228275000 2782583
L228241666 2915916
L228241666 3015916
L228275000 3149250
L228308333 3215916
L228375000 3282583
L228475000 3315916
L228541666 3315916
L228641666 3282583
L228675000 3249250
L228675000 3015916
L228541666 3015916
" />
<path d="M228975000 3315916
L228975000 2615916
L229375000 3315916
L229375000 2615916
" />
<path d="M229708333 3315916
L229708333 2615916
L229875000 2615916
L229975000 2649250
L230041666 2715916
L230075000 2782583
L230108333 2915916
L230108333 3015916
L230075000 3149250
L230041666 3215916
L229975000 3282583
L229875000 3315916
L229708333 3315916
" />
</g><text x="234255000.000000" y="3349250.000000"
textLength="2728333.000000" font-size="933333.000000" lengthAdjust="spacingAndGlyphs"
text-anchor="middle" opacity="0">MOSI</text>
<g class="stroked-text"><desc>MOSI</desc>
<path d="M233155000 3315916
L233155000 2615916
L233388333 3115916
L233621666 2615916
L233621666 3315916
" />
<path d="M234088333 2615916
L234221666 2615916
L234288333 2649250
L234355000 2715916
L234388333 2849250
L234388333 3082583
L234355000 3215916
L234288333 3282583
L234221666 3315916
L234088333 3315916
L234021666 3282583
L233955000 3215916
L233921666 3082583
L233921666 2849250
L233955000 2715916
L234021666 2649250
L234088333 2615916
" />
<path d="M234655000 3282583
L234755000 3315916
L234921666 3315916
L234988333 3282583
L235021666 3249250
L235055000 3182583
L235055000 3115916
L235021666 3049250
L234988333 3015916
L234921666 2982583
L234788333 2949250
L234721666 2915916
L234688333 2882583
L234655000 2815916
L234655000 2749250
L234688333 2682583
L234721666 2649250
L234788333 2615916
L234955000 2615916
L235055000 2649250
" />
<path d="M235355000 3315916
L235355000 2615916
" />
</g><text x="112755000.000000" y="7413250.000000"
textLength="2261667.000000" font-size="933333.000000" lengthAdjust="spacingAndGlyphs"
text-anchor="middle" opacity="0">SCK</text>
<g class="stroked-text"><desc>SCK</desc>
<path d="M111855000 7346583
L111955000 7379916
L112121666 7379916
L112188333 7346583
L112221666 7313250
L112255000 7246583
L112255000 7179916
L112221666 7113250
L112188333 7079916
L112121666 7046583
L111988333 7013250
L111921666 6979916
L111888333 6946583
L111855000 6879916
L111855000 6813250
L111888333 6746583
L111921666 6713250
L111988333 6679916
L112155000 6679916
L112255000 6713250
" />
<path d="M112955000 7313250
L112921666 7346583
L112821666 7379916
L112755000 7379916
L112655000 7346583
L112588333 7279916
L112555000 7213250
L112521666 7079916
L112521666 6979916
L112555000 6846583
L112588333 6779916
L112655000 6713250
L112755000 6679916
L112821666 6679916
L112921666 6713250
L112955000 6746583
" />
<path d="M113255000 7379916
L113255000 6679916
" />
<path d="M113655000 7379916
L113355000 6979916
" />
<path d="M113655000 6679916
L113255000 7079916
" />
</g><text x="115295000.000000" y="7413250.000000"
textLength="2728333.000000" font-size="933333.000000" lengthAdjust="spacingAndGlyphs"
text-anchor="middle" opacity="0">MOSI</text>
<g class="stroked-text"><desc>MOSI</desc>
<path d="M114195000 7379916
L114195000 6679916
L114428333 7179916
L114661666 6679916
L114661666 7379916
" />
<path d="M115128333 6679916
L115261666 6679916
L115328333 6713250
L115395000 6779916
L115428333 6913250
L115428333 7146583
L115395000 7279916
L115328333 7346583
L115261666 7379916
L115128333 7379916
L115061666 7346583
L114995000 7279916
L114961666 7146583
L114961666 6913250
L114995000 6779916
L115061666 6713250
L115128333 6679916
" />
<path d="M115695000 7346583
L115795000 7379916
L115961666 7379916
L116028333 7346583
L116061666 7313250
L116095000 7246583
L116095000 7179916
L116061666 7113250
L116028333 7079916
L115961666 7046583
L115828333 7013250
L115761666 6979916
L115728333 6946583
L115695000 6879916
L115695000 6813250
L115728333 6746583
L115761666 6713250
L115828333 6679916
L115995000 6679916
L116095000 6713250
" />
<path d="M116395000 7379916
L116395000 6679916
" />
</g><text x="107675000.000000" y="7413250.000000"
textLength="2728333.000000" font-size="933333.000000" lengthAdjust="spacingAndGlyphs"
text-anchor="middle" opacity="0">MISO</text>
<g class="stroked-text"><desc>MISO</desc>
<path d="M106575000 7379916
L106575000 6679916
L106808333 7179916
L107041666 6679916
L107041666 7379916
" />
<path d="M107375000 7379916
L107375000 6679916
" />
<path d="M107675000 7346583
L107775000 7379916
L107941666 7379916
L108008333 7346583
L108041666 7313250
L108075000 7246583
L108075000 7179916
L108041666 7113250
L108008333 7079916
L107941666 7046583
L107808333 7013250
L107741666 6979916
L107708333 6946583
L107675000 6879916
L107675000 6813250
L107708333 6746583
L107741666 6713250
L107808333 6679916
L107975000 6679916
L108075000 6713250
" />
<path d="M108508333 6679916
L108641666 6679916
L108708333 6713250
L108775000 6779916
L108808333 6913250
L108808333 7146583
L108775000 7279916
L108708333 7346583
L108641666 7379916
L108508333 7379916
L108441666 7346583
L108375000 7279916
L108341666 7146583
L108341666 6913250
L108375000 6779916
L108441666 6713250
L108508333 6679916
" />
</g><text x="120375000.000000" y="7413250.000000"
textLength="2328333.000000" font-size="933333.000000" lengthAdjust="spacingAndGlyphs"
text-anchor="middle" opacity="0">GND</text>
<g class="stroked-text"><desc>GND</desc>
<path d="M119841666 6713250
L119775000 6679916
L119675000 6679916
L119575000 6713250
L119508333 6779916
L119475000 6846583
L119441666 6979916
L119441666 7079916
L119475000 7213250
L119508333 7279916
L119575000 7346583
L119675000 7379916
L119741666 7379916
L119841666 7346583
L119875000 7313250
L119875000 7079916
L119741666 7079916
" />
<path d="M120175000 7379916
L120175000 6679916
L120575000 7379916
L120575000 6679916
" />
<path d="M120908333 7379916
L120908333 6679916
L121075000 6679916
L121175000 6713250
L121241666 6779916
L121275000 6846583
L121308333 6979916
L121308333 7079916
L121275000 7213250
L121241666 7279916
L121175000 7346583
L121075000 7379916
L120908333 7379916
" />
</g><text x="110215000.000000" y="7413250.000000"
textLength="2195000.000000" font-size="933333.000000" lengthAdjust="spacingAndGlyphs"
text-anchor="middle" opacity="0">VCC</text>
<g class="stroked-text"><desc>VCC</desc>
<path d="M109281666 6679916
L109515000 7379916
L109748333 6679916
" />
<path d="M110381666 7313250
L110348333 7346583
L110248333 7379916
L110181666 7379916
L110081666 7346583
L110015000 7279916
L109981666 7213250
L109948333 7079916
L109948333 6979916
L109981666 6846583
L110015000 6779916
L110081666 6713250
L110181666 6679916
L110248333 6679916
L110348333 6713250
L110381666 6746583
" />
<path d="M111081666 7313250
L111048333 7346583
L110948333 7379916
L110881666 7379916
L110781666 7346583
L110715000 7279916
L110681666 7213250
L110648333 7079916
L110648333 6979916
L110681666 6846583
L110715000 6779916
L110781666 6713250
L110881666 6679916
L110948333 6679916
L111048333 6713250
L111081666 6746583
" />
</g><text x="117835000.000000" y="7413250.000000"
textLength="2095000.000000" font-size="933333.000000" lengthAdjust="spacingAndGlyphs"
text-anchor="middle" opacity="0">RST</text>
<g class="stroked-text"><desc>RST</desc>
<path d="M117451666 7379916
L117218333 7046583
" />
<path d="M117051666 7379916
L117051666 6679916
L117318333 6679916
L117385000 6713250
L117418333 6746583
L117451666 6813250
L117451666 6913250
L117418333 6979916
L117385000 7013250
L117318333 7046583
L117051666 7046583
" />
<path d="M117718333 7346583
L117818333 7379916
L117985000 7379916
L118051666 7346583
L118085000 7313250
L118118333 7246583
L118118333 7179916
L118085000 7113250
L118051666 7079916
L117985000 7046583
L117851666 7013250
L117785000 6979916
L117751666 6946583
L117718333 6879916
L117718333 6813250
L117751666 6746583
L117785000 6713250
L117851666 6679916
L118018333 6679916
L118118333 6713250
" />
<path d="M118318333 6679916
L118718333 6679916
" />
<path d="M118518333 7379916
L118518333 6679916
" />
</g><path d="M89025000 29531250
L89025000 28531250
" />
<path d="M89025000 42531250
L89025000 41531250
" />
<path d="M89025000 42531250
L90025000 42531250
" />
<path d="M103025000 42531250
L102025000 42531250
" />
<path d="M103025000 28531250
L102025000 28531250
" />
<path d="M90025000 28531250
L89025000 28531250
" />
<path d="M103025000 28531250
L103025000 29531250
" />
<path d="M103025000 41531250
L103025000 42531250
" />
<path d="M102025000 42531250
L103025000 42531250
" />
<path d="M215525000 11531250
L214525000 11531250
" />
<path d="M215525000 11531250
L215525000 12531250
" />
<path d="M202525000 11531250
L201525000 11531250
" />
<path d="M201525000 25531250
L202525000 25531250
" />
<path d="M215525000 24531250
L215525000 25531250
" />
<path d="M201525000 12531250
L201525000 11531250
" />
<path d="M214525000 25531250
L215525000 25531250
" />
<path d="M201525000 25531250
L201525000 24531250
" />
<path d="M215525000 25531250
L214525000 25531250
" />
<path d="M98025000 12531250
L98025000 11531250
" />
<path d="M98025000 25531250
L98025000 24531250
" />
<path d="M112025000 24531250
L112025000 25531250
" />
<path d="M99025000 11531250
L98025000 11531250
" />
<path d="M112025000 11531250
L111025000 11531250
" />
<path d="M111025000 25531250
L112025000 25531250
" />
<path d="M112025000 11531250
L112025000 12531250
" />
<path d="M112025000 25531250
L111025000 25531250
" />
<path d="M98025000 25531250
L99025000 25531250
" />
<path d="M71025000 29531250
L71025000 28531250
" />
<path d="M71025000 42531250
L71025000 41531250
" />
<path d="M71025000 42531250
L72025000 42531250
" />
<path d="M85025000 28531250
L85025000 29531250
" />
<path d="M85025000 28531250
L84025000 28531250
" />
<path d="M84025000 42531250
L85025000 42531250
" />
<path d="M85025000 42531250
L84025000 42531250
" />
<path d="M72025000 28531250
L71025000 28531250
" />
<path d="M85025000 41531250
L85025000 42531250
" />
<path d="M62025000 25531250
L63025000 25531250
" />
<path d="M76025000 11531250
L75025000 11531250
" />
<path d="M62025000 12531250
L62025000 11531250
" />
<path d="M76025000 24531250
L76025000 25531250
" />
<path d="M63025000 11531250
L62025000 11531250
" />
<path d="M76025000 25531250
L75025000 25531250
" />
<path d="M75025000 25531250
L76025000 25531250
" />
<path d="M76025000 11531250
L76025000 12531250
" />
<path d="M62025000 25531250
L62025000 24531250
" />
<path d="M269525000 11531250
L269525000 12531250
" />
<path d="M255525000 25531250
L255525000 24531250
" />
<path d="M268525000 25531250
L269525000 25531250
" />
<path d="M269525000 24531250
L269525000 25531250
" />
<path d="M256525000 11531250
L255525000 11531250
" />
<path d="M269525000 25531250
L268525000 25531250
" />
<path d="M255525000 25531250
L256525000 25531250
" />
<path d="M269525000 11531250
L268525000 11531250
" />
<path d="M255525000 12531250
L255525000 11531250
" />
<path d="M134525000 62531250
L134525000 63531250
" />
<path d="M134525000 76531250
L133525000 76531250
" />
<path d="M134525000 75531250
L134525000 76531250
" />
<path d="M121525000 62531250
L120525000 62531250
" />
<path d="M120525000 63531250
L120525000 62531250
" />
<path d="M133525000 76531250
L134525000 76531250
" />
<path d="M134525000 62531250
L133525000 62531250
" />
<path d="M120525000 76531250
L121525000 76531250
" />
<path d="M120525000 76531250
L120525000 75531250
" />
<path d="M93525000 59531250
L94525000 59531250
" />
<path d="M94525000 45531250
L93525000 45531250
" />
<path d="M107525000 45531250
L106525000 45531250
" />
<path d="M93525000 59531250
L93525000 58531250
" />
<path d="M107525000 45531250
L107525000 46531250
" />
<path d="M107525000 59531250
L106525000 59531250
" />
<path d="M93525000 46531250
L93525000 45531250
" />
<path d="M106525000 59531250
L107525000 59531250
" />
<path d="M107525000 58531250
L107525000 59531250
" />
<path d="M143525000 45531250
L143525000 46531250
" />
<path d="M142525000 59531250
L143525000 59531250
" />
<path d="M129525000 59531250
L129525000 58531250
" />
<path d="M130525000 45531250
L129525000 45531250
" />
<path d="M129525000 59531250
L130525000 59531250
" />
<path d="M143525000 59531250
L142525000 59531250
" />
<path d="M143525000 45531250
L142525000 45531250
" />
<path d="M129525000 46531250
L129525000 45531250
" />
<path d="M143525000 58531250
L143525000 59531250
" />
<path d="M125525000 59531250
L124525000 59531250
" />
<path d="M124525000 59531250
L125525000 59531250
" />
<path d="M125525000 45531250
L124525000 45531250
" />
<path d="M125525000 45531250
L125525000 46531250
" />
<path d="M111525000 59531250
L112525000 59531250
" />
<path d="M125525000 58531250
L125525000 59531250
" />
<path d="M111525000 59531250
L111525000 58531250
" />
<path d="M111525000 46531250
L111525000 45531250
" />
<path d="M112525000 45531250
L111525000 45531250
" />
<path d="M166025000 11531250
L166025000 12531250
" />
<path d="M153025000 11531250
L152025000 11531250
" />
<path d="M152025000 25531250
L153025000 25531250
" />
<path d="M152025000 12531250
L152025000 11531250
" />
<path d="M166025000 25531250
L165025000 25531250
" />
<path d="M165025000 25531250
L166025000 25531250
" />
<path d="M166025000 11531250
L165025000 11531250
" />
<path d="M152025000 25531250
L152025000 24531250
" />
<path d="M166025000 24531250
L166025000 25531250
" />
<path d="M323525000 75531250
L323525000 76531250
" />
<path d="M310525000 62531250
L309525000 62531250
" />
<path d="M309525000 63531250
L309525000 62531250
" />
<path d="M309525000 76531250
L309525000 75531250
" />
<path d="M309525000 76531250
L310525000 76531250
" />
<path d="M322525000 76531250
L323525000 76531250
" />
<path d="M323525000 62531250
L322525000 62531250
" />
<path d="M323525000 76531250
L322525000 76531250
" />
<path d="M323525000 62531250
L323525000 63531250
" />
<path d="M199275000 80531250
L199275000 79531250
" />
<path d="M213275000 79531250
L213275000 80531250
" />
<path d="M213275000 79531250
L212275000 79531250
" />
<path d="M213275000 93531250
L212275000 93531250
" />
<path d="M199275000 93531250
L200275000 93531250
" />
<path d="M199275000 93531250
L199275000 92531250
" />
<path d="M200275000 79531250
L199275000 79531250
" />
<path d="M213275000 92531250
L213275000 93531250
" />
<path d="M212275000 93531250
L213275000 93531250
" />
<path d="M298775000 62531250
L297775000 62531250
" />
<path d="M298775000 75531250
L298775000 76531250
" />
<path d="M298775000 62531250
L298775000 63531250
" />
<path d="M285775000 62531250
L284775000 62531250
" />
<path d="M298775000 76531250
L297775000 76531250
" />
<path d="M284775000 76531250
L285775000 76531250
" />
<path d="M297775000 76531250
L298775000 76531250
" />
<path d="M284775000 63531250
L284775000 62531250
" />
<path d="M284775000 76531250
L284775000 75531250
" />
<path d="M211025000 59531250
L210025000 59531250
" />
<path d="M198025000 45531250
L197025000 45531250
" />
<path d="M211025000 45531250
L210025000 45531250
" />
<path d="M197025000 59531250
L198025000 59531250
" />
<path d="M210025000 59531250
L211025000 59531250
" />
<path d="M211025000 45531250
L211025000 46531250
" />
<path d="M197025000 59531250
L197025000 58531250
" />
<path d="M211025000 58531250
L211025000 59531250
" />
<path d="M197025000 46531250
L197025000 45531250
" />
<path d="M138025000 42531250
L139025000 42531250
" />
<path d="M139025000 28531250
L138025000 28531250
" />
<path d="M139025000 41531250
L139025000 42531250
" />
<path d="M125025000 29531250
L125025000 28531250
" />
<path d="M139025000 28531250
L139025000 29531250
" />
<path d="M125025000 42531250
L125025000 41531250
" />
<path d="M126025000 28531250
L125025000 28531250
" />
<path d="M139025000 42531250
L138025000 42531250
" />
<path d="M125025000 42531250
L126025000 42531250
" />
<path d="M147525000 59531250
L147525000 58531250
" />
<path d="M161525000 59531250
L160525000 59531250
" />
<path d="M147525000 46531250
L147525000 45531250
" />
<path d="M148525000 45531250
L147525000 45531250
" />
<path d="M161525000 58531250
L161525000 59531250
" />
<path d="M161525000 45531250
L160525000 45531250
" />
<path d="M147525000 59531250
L148525000 59531250
" />
<path d="M161525000 45531250
L161525000 46531250
" />
<path d="M160525000 59531250
L161525000 59531250
" />
<path d="M17525000 28531250
L17525000 29531250
" />
<path d="M17525000 42531250
L16525000 42531250
" />
<path d="M3525000 29531250
L3525000 28531250
" />
<path d="M3525000 42531250
L4525000 42531250
" />
<path d="M17525000 41531250
L17525000 42531250
" />
<path d="M16525000 42531250
L17525000 42531250
" />
<path d="M3525000 42531250
L3525000 41531250
" />
<path d="M4525000 28531250
L3525000 28531250
" />
<path d="M17525000 28531250
L16525000 28531250
" />
<path d="M60275000 93531250
L59275000 93531250
" />
<path d="M59275000 93531250
L60275000 93531250
" />
<path d="M46275000 93531250
L46275000 92531250
" />
<path d="M60275000 92531250
L60275000 93531250
" />
<path d="M46275000 80531250
L46275000 79531250
" />
<path d="M60275000 79531250
L59275000 79531250
" />
<path d="M46275000 93531250
L47275000 93531250
" />
<path d="M60275000 79531250
L60275000 80531250
" />
<path d="M47275000 79531250
L46275000 79531250
" />
<path d="M327525000 93531250
L328525000 93531250
" />
<path d="M341525000 92531250
L341525000 93531250
" />
<path d="M327525000 93531250
L327525000 92531250
" />
<path d="M341525000 93531250
L340525000 93531250
" />
<path d="M340525000 93531250
L341525000 93531250
" />
<path d="M328525000 79531250
L327525000 79531250
" />
<path d="M341525000 79531250
L340525000 79531250
" />
<path d="M341525000 79531250
L341525000 80531250
" />
<path d="M327525000 80531250
L327525000 79531250
" />
<path d="M220025000 75531250
L220025000 76531250
" />
<path d="M206025000 76531250
L207025000 76531250
" />
<path d="M206025000 76531250
L206025000 75531250
" />
<path d="M219025000 76531250
L220025000 76531250
" />
<path d="M220025000 62531250
L219025000 62531250
" />
<path d="M220025000 76531250
L219025000 76531250
" />
<path d="M207025000 62531250
L206025000 62531250
" />
<path d="M220025000 62531250
L220025000 63531250
" />
<path d="M206025000 63531250
L206025000 62531250
" />
<path d="M238025000 75531250
L238025000 76531250
" />
<path d="M237025000 76531250
L238025000 76531250
" />
<path d="M224025000 63531250
L224025000 62531250
" />
<path d="M238025000 62531250
L237025000 62531250
" />
<path d="M238025000 76531250
L237025000 76531250
" />
<path d="M225025000 62531250
L224025000 62531250
" />
<path d="M238025000 62531250
L238025000 63531250
" />
<path d="M224025000 76531250
L225025000 76531250
" />
<path d="M224025000 76531250
L224025000 75531250
" />
<path d="M75525000 59531250
L75525000 58531250
" />
<path d="M75525000 59531250
L76525000 59531250
" />
<path d="M88525000 59531250
L89525000 59531250
" />
<path d="M76525000 45531250
L75525000 45531250
" />
<path d="M89525000 45531250
L89525000 46531250
" />
<path d="M89525000 45531250
L88525000 45531250
" />
<path d="M89525000 59531250
L88525000 59531250
" />
<path d="M89525000 58531250
L89525000 59531250
" />
<path d="M75525000 46531250
L75525000 45531250
" />
<path d="M16525000 76531250
L17525000 76531250
" />
<path d="M17525000 76531250
L16525000 76531250
" />
<path d="M17525000 75531250
L17525000 76531250
" />
<path d="M3525000 63531250
L3525000 62531250
" />
<path d="M17525000 62531250
L16525000 62531250
" />
<path d="M3525000 76531250
L4525000 76531250
" />
<path d="M3525000 76531250
L3525000 75531250
" />
<path d="M17525000 62531250
L17525000 63531250
" />
<path d="M4525000 62531250
L3525000 62531250
" />
<path d="M237525000 25531250
L238525000 25531250
" />
<path d="M237525000 12531250
L237525000 11531250
" />
<path d="M250525000 25531250
L251525000 25531250
" />
<path d="M251525000 24531250
L251525000 25531250
" />
<path d="M251525000 11531250
L250525000 11531250
" />
<path d="M238525000 11531250
L237525000 11531250
" />
<path d="M251525000 25531250
L250525000 25531250
" />
<path d="M251525000 11531250
L251525000 12531250
" />
<path d="M237525000 25531250
L237525000 24531250
" />
<path d="M341525000 11531250
L341525000 12531250
" />
<path d="M327525000 25531250
L327525000 24531250
" />
<path d="M341525000 24531250
L341525000 25531250
" />
<path d="M327525000 25531250
L328525000 25531250
" />
<path d="M341525000 11531250
L340525000 11531250
" />
<path d="M327525000 12531250
L327525000 11531250
" />
<path d="M340525000 25531250
L341525000 25531250
" />
<path d="M341525000 25531250
L340525000 25531250
" />
<path d="M328525000 11531250
L327525000 11531250
" />
<path d="M219525000 25531250
L219525000 24531250
" />
<path d="M233525000 11531250
L233525000 12531250
" />
<path d="M219525000 25531250
L220525000 25531250
" />
<path d="M232525000 25531250
L233525000 25531250
" />
<path d="M233525000 11531250
L232525000 11531250
" />
<path d="M233525000 24531250
L233525000 25531250
" />
<path d="M233525000 25531250
L232525000 25531250
" />
<path d="M220525000 11531250
L219525000 11531250
" />
<path d="M219525000 12531250
L219525000 11531250
" />
<path d="M318025000 42531250
L319025000 42531250
" />
<path d="M305025000 42531250
L305025000 41531250
" />
<path d="M319025000 42531250
L318025000 42531250
" />
<path d="M319025000 28531250
L319025000 29531250
" />
<path d="M319025000 41531250
L319025000 42531250
" />
<path d="M305025000 29531250
L305025000 28531250
" />
<path d="M319025000 28531250
L318025000 28531250
" />
<path d="M306025000 28531250
L305025000 28531250
" />
<path d="M305025000 42531250
L306025000 42531250
" />
<path d="M35525000 11531250
L34525000 11531250
" />
<path d="M35525000 25531250
L34525000 25531250
" />
<path d="M21525000 25531250
L21525000 24531250
" />
<path d="M34525000 25531250
L35525000 25531250
" />
<path d="M35525000 11531250
L35525000 12531250
" />
<path d="M21525000 12531250
L21525000 11531250
" />
<path d="M35525000 24531250
L35525000 25531250
" />
<path d="M22525000 11531250
L21525000 11531250
" />
<path d="M21525000 25531250
L22525000 25531250
" />
<path d="M206525000 28531250
L206525000 29531250
" />
<path d="M192525000 42531250
L193525000 42531250
" />
<path d="M205525000 42531250
L206525000 42531250
" />
<path d="M193525000 28531250
L192525000 28531250
" />
<path d="M206525000 42531250
L205525000 42531250
" />
<path d="M192525000 29531250
L192525000 28531250
" />
<path d="M206525000 41531250
L206525000 42531250
" />
<path d="M192525000 42531250
L192525000 41531250
" />
<path d="M206525000 28531250
L205525000 28531250
" />
<path d="M116025000 25531250
L116025000 24531250
" />
<path d="M130025000 24531250
L130025000 25531250
" />
<path d="M130025000 25531250
L129025000 25531250
" />
<path d="M129025000 25531250
L130025000 25531250
" />
<path d="M116025000 25531250
L117025000 25531250
" />
<path d="M117025000 11531250
L116025000 11531250
" />
<path d="M130025000 11531250
L129025000 11531250
" />
<path d="M130025000 11531250
L130025000 12531250
" />
<path d="M116025000 12531250
L116025000 11531250
" />
<path d="M3525000 59531250
L4525000 59531250
" />
<path d="M4525000 45531250
L3525000 45531250
" />
<path d="M17525000 58531250
L17525000 59531250
" />
<path d="M3525000 59531250
L3525000 58531250
" />
<path d="M17525000 45531250
L17525000 46531250
" />
<path d="M17525000 45531250
L16525000 45531250
" />
<path d="M3525000 46531250
L3525000 45531250
" />
<path d="M16525000 59531250
L17525000 59531250
" />
<path d="M17525000 59531250
L16525000 59531250
" />
<path d="M269025000 93531250
L269025000 92531250
" />
<path d="M270025000 79531250
L269025000 79531250
" />
<path d="M282025000 93531250
L283025000 93531250
" />
<path d="M269025000 93531250
L270025000 93531250
" />
<path d="M283025000 79531250
L283025000 80531250
" />
<path d="M269025000 80531250
L269025000 79531250
" />
<path d="M283025000 93531250
L282025000 93531250
" />
<path d="M283025000 92531250
L283025000 93531250
" />
<path d="M283025000 79531250
L282025000 79531250
" />
<path d="M121025000 41531250
L121025000 42531250
" />
<path d="M121025000 28531250
L120025000 28531250
" />
<path d="M107025000 42531250
L108025000 42531250
" />
<path d="M121025000 28531250
L121025000 29531250
" />
<path d="M121025000 42531250
L120025000 42531250
" />
<path d="M108025000 28531250
L107025000 28531250
" />
<path d="M107025000 29531250
L107025000 28531250
" />
<path d="M107025000 42531250
L107025000 41531250
" />
<path d="M120025000 42531250
L121025000 42531250
" />
</g>
<g style="fill:#F2EDA1; fill-opacity:0.0; 
stroke:#F2EDA1; stroke-width:120000.000000; stroke-opacity:1; 
stroke-linecap:round; stroke-linejoin:round;">
<path d="M16525000 25531250
L17525000 25531250
" />
<path d="M3525000 25531250
L4525000 25531250
" />
<path d="M3525000 24531250
L3525000 25531250
" />
<path d="M4525000 11531250
L3525000 11531250
" />
<path d="M3525000 11531250
L3525000 12531250
" />
<path d="M17525000 12531250
L17525000 11531250
" />
<path d="M17525000 11531250
L16525000 11531250
" />
<path d="M3525000 11531250
L4525000 11531250
" />
<path d="M17525000 25531250
L17525000 24531250
" />
<path d="M4925000 15406250
L1775000 15406250
" />
<path d="M1775000 15406250
L1775000 21656250
" />
<path d="M1775000 21656250
L4925000 21656250
" />
<path d="M4925000 21656250
L4925000 15406250
" />
<path d="M19275000 15406250
L16775000 15406250
" />
<path d="M16775000 15406250
L16775000 21656250
" />
<path d="M16775000 21656250
L19275000 21656250
" />
<path d="M19275000 21656250
L19275000 15406250
" />
</g>
<g style="fill:#F2EDA1; fill-opacity:0.0; 
stroke:#F2EDA1; stroke-width:150000.000000; stroke-opacity:1; 
stroke-linecap:round; stroke-linejoin:round;">
<path d="M82775000 92531250
L82775000 93531250
" />
<path d="M68775000 93531250
L69775000 93531250
" />
<path d="M69775000 79531250
L68775000 79531250
" />
<path d="M82775000 79531250
L81775000 79531250
" />
<path d="M68775000 80531250
L68775000 79531250
" />
<path d="M68775000 93531250
L68775000 92531250
" />
<path d="M82775000 79531250
L82775000 80531250
" />
<path d="M82775000 93531250
L81775000 93531250
" />
<path d="M81775000 93531250
L82775000 93531250
" />
<path d="M269025000 59531250
L270025000 59531250
" />
<path d="M283025000 45531250
L283025000 46531250
" />
<path d="M283025000 45531250
L282025000 45531250
" />
<path d="M270025000 45531250
L269025000 45531250
" />
<path d="M283025000 59531250
L282025000 59531250
" />
<path d="M283025000 58531250
L283025000 59531250
" />
<path d="M282025000 59531250
L283025000 59531250
" />
<path d="M269025000 59531250
L269025000 58531250
" />
<path d="M269025000 46531250
L269025000 45531250
" />
<path d="M192025000 59531250
L193025000 59531250
" />
<path d="M193025000 45531250
L193025000 46531250
" />
<path d="M179025000 59531250
L179025000 58531250
" />
<path d="M180025000 45531250
L179025000 45531250
" />
<path d="M193025000 58531250
L193025000 59531250
" />
<path d="M179025000 59531250
L180025000 59531250
" />
<path d="M179025000 46531250
L179025000 45531250
" />
<path d="M179025000 45531250
L180025000 45531250
" />
<path d="M193025000 45531250
L192025000 45531250
" />
<path d="M256025000 62531250
L255025000 62531250
" />
<path d="M256025000 75531250
L256025000 76531250
" />
<path d="M242025000 63531250
L242025000 62531250
" />
<path d="M255025000 76531250
L256025000 76531250
" />
<path d="M256025000 76531250
L255025000 76531250
" />
<path d="M256025000 62531250
L256025000 63531250
" />
<path d="M242025000 76531250
L243025000 76531250
" />
<path d="M243025000 62531250
L242025000 62531250
" />
<path d="M242025000 76531250
L242025000 75531250
" />
<path d="M84525000 76531250
L85525000 76531250
" />
<path d="M98525000 76531250
L97525000 76531250
" />
<path d="M85525000 62531250
L84525000 62531250
" />
<path d="M84525000 63531250
L84525000 62531250
" />
<path d="M97525000 76531250
L98525000 76531250
" />
<path d="M84525000 76531250
L84525000 75531250
" />
<path d="M98525000 62531250
L98525000 63531250
" />
<path d="M98525000 75531250
L98525000 76531250
" />
<path d="M98525000 62531250
L97525000 62531250
" />
<path d="M291525000 93531250
L291525000 92531250
" />
<path d="M291525000 93531250
L292525000 93531250
" />
<path d="M305525000 92531250
L305525000 93531250
" />
<path d="M305525000 79531250
L304525000 79531250
" />
<path d="M305525000 93531250
L304525000 93531250
" />
<path d="M292525000 79531250
L291525000 79531250
" />
<path d="M305525000 79531250
L305525000 80531250
" />
<path d="M291525000 80531250
L291525000 79531250
" />
<path d="M304525000 93531250
L305525000 93531250
" />
<path d="M188025000 76531250
L188025000 75531250
" />
<path d="M189025000 62531250
L188025000 62531250
" />
<path d="M202025000 62531250
L202025000 63531250
" />
<path d="M188025000 76531250
L189025000 76531250
" />
<path d="M202025000 75531250
L202025000 76531250
" />
<path d="M202025000 62531250
L201025000 62531250
" />
<path d="M188025000 63531250
L188025000 62531250
" />
<path d="M188025000 62531250
L189025000 62531250
" />
<path d="M201025000 76531250
L202025000 76531250
" />
<path d="M323525000 79531250
L323525000 80531250
" />
<path d="M323525000 92531250
L323525000 93531250
" />
<path d="M323525000 79531250
L322525000 79531250
" />
<path d="M310525000 79531250
L309525000 79531250
" />
<path d="M323525000 93531250
L322525000 93531250
" />
<path d="M309525000 80531250
L309525000 79531250
" />
<path d="M309525000 93531250
L309525000 92531250
" />
<path d="M322525000 93531250
L323525000 93531250
" />
<path d="M309525000 93531250
L310525000 93531250
" />
<path d="M21525000 59531250
L21525000 58531250
" />
<path d="M35525000 45531250
L34525000 45531250
" />
<path d="M22525000 45531250
L21525000 45531250
" />
<path d="M35525000 45531250
L35525000 46531250
" />
<path d="M21525000 46531250
L21525000 45531250
" />
<path d="M34525000 59531250
L35525000 59531250
" />
<path d="M35525000 59531250
L34525000 59531250
" />
<path d="M35525000 58531250
L35525000 59531250
" />
<path d="M21525000 59531250
L22525000 59531250
" />
<path d="M215025000 59531250
L216025000 59531250
" />
<path d="M229025000 45531250
L229025000 46531250
" />
<path d="M229025000 58531250
L229025000 59531250
" />
<path d="M216025000 45531250
L215025000 45531250
" />
<path d="M228025000 59531250
L229025000 59531250
" />
<path d="M229025000 59531250
L228025000 59531250
" />
<path d="M229025000 45531250
L228025000 45531250
" />
<path d="M215025000 59531250
L215025000 58531250
" />
<path d="M215025000 46531250
L215025000 45531250
" />
<path d="M260025000 76531250
L260025000 75531250
" />
<path d="M274025000 76531250
L273025000 76531250
" />
<path d="M274025000 75531250
L274025000 76531250
" />
<path d="M260025000 63531250
L260025000 62531250
" />
<path d="M274025000 62531250
L273025000 62531250
" />
<path d="M260025000 76531250
L261025000 76531250
" />
<path d="M261025000 62531250
L260025000 62531250
" />
<path d="M273025000 76531250
L274025000 76531250
" />
<path d="M274025000 62531250
L274025000 63531250
" />
<path d="M21525000 80531250
L21525000 79531250
" />
<path d="M35525000 79531250
L34525000 79531250
" />
<path d="M22525000 79531250
L21525000 79531250
" />
<path d="M34525000 93531250
L35525000 93531250
" />
<path d="M35525000 93531250
L34525000 93531250
" />
<path d="M35525000 79531250
L35525000 80531250
" />
<path d="M21525000 93531250
L22525000 93531250
" />
<path d="M21525000 93531250
L21525000 92531250
" />
<path d="M35525000 92531250
L35525000 93531250
" />
<path d="M159275000 93531250
L158275000 93531250
" />
<path d="M145275000 80531250
L145275000 79531250
" />
<path d="M145275000 93531250
L145275000 92531250
" />
<path d="M158275000 93531250
L159275000 93531250
" />
<path d="M159275000 79531250
L158275000 79531250
" />
<path d="M145275000 93531250
L146275000 93531250
" />
<path d="M159275000 79531250
L159275000 80531250
" />
<path d="M146275000 79531250
L145275000 79531250
" />
<path d="M159275000 92531250
L159275000 93531250
" />
<path d="M341525000 45531250
L340525000 45531250
" />
<path d="M328525000 45531250
L327525000 45531250
" />
<path d="M341525000 59531250
L340525000 59531250
" />
<path d="M340525000 59531250
L341525000 59531250
" />
<path d="M327525000 46531250
L327525000 45531250
" />
<path d="M341525000 58531250
L341525000 59531250
" />
<path d="M327525000 59531250
L327525000 58531250
" />
<path d="M341525000 45531250
L341525000 46531250
" />
<path d="M327525000 59531250
L328525000 59531250
" />
<path d="M61525000 42531250
L62525000 42531250
" />
<path d="M48525000 42531250
L49525000 42531250
" />
<path d="M48525000 29531250
L48525000 28531250
" />
<path d="M48525000 42531250
L48525000 41531250
" />
<path d="M49525000 28531250
L48525000 28531250
" />
<path d="M62525000 42531250
L61525000 42531250
" />
<path d="M62525000 41531250
L62525000 42531250
" />
<path d="M62525000 28531250
L62525000 29531250
" />
<path d="M62525000 28531250
L61525000 28531250
" />
<path d="M64775000 45531250
L64775000 46531250
" />
<path d="M64775000 59531250
L63775000 59531250
" />
<path d="M50775000 59531250
L51775000 59531250
" />
<path d="M64775000 45531250
L63775000 45531250
" />
<path d="M51775000 45531250
L50775000 45531250
" />
<path d="M63775000 59531250
L64775000 59531250
" />
<path d="M50775000 46531250
L50775000 45531250
" />
<path d="M50775000 59531250
L50775000 58531250
" />
<path d="M64775000 58531250
L64775000 59531250
" />
<path d="M55275000 76531250
L55275000 75531250
" />
<path d="M68275000 76531250
L69275000 76531250
" />
<path d="M69275000 76531250
L68275000 76531250
" />
<path d="M69275000 75531250
L69275000 76531250
" />
<path d="M55275000 76531250
L56275000 76531250
" />
<path d="M69275000 62531250
L68275000 62531250
" />
<path d="M69275000 62531250
L69275000 63531250
" />
<path d="M55275000 63531250
L55275000 62531250
" />
<path d="M56275000 62531250
L55275000 62531250
" />
<path d="M151525000 76531250
L152525000 76531250
" />
<path d="M138525000 76531250
L138525000 75531250
" />
<path d="M152525000 76531250
L151525000 76531250
" />
<path d="M152525000 75531250
L152525000 76531250
" />
<path d="M152525000 62531250
L151525000 62531250
" />
<path d="M138525000 63531250
L138525000 62531250
" />
<path d="M152525000 62531250
L152525000 63531250
" />
<path d="M138525000 76531250
L139525000 76531250
" />
<path d="M139525000 62531250
L138525000 62531250
" />
<path d="M246025000 59531250
L247025000 59531250
" />
<path d="M233025000 59531250
L234025000 59531250
" />
<path d="M247025000 45531250
L246025000 45531250
" />
<path d="M247025000 45531250
L247025000 46531250
" />
<path d="M247025000 59531250
L246025000 59531250
" />
<path d="M233025000 46531250
L233025000 45531250
" />
<path d="M233025000 59531250
L233025000 58531250
" />
<path d="M234025000 45531250
L233025000 45531250
" />
<path d="M247025000 58531250
L247025000 59531250
" />
<path d="M309525000 12531250
L309525000 11531250
" />
<path d="M323525000 25531250
L322525000 25531250
" />
<path d="M309525000 25531250
L309525000 24531250
" />
<path d="M322525000 25531250
L323525000 25531250
" />
<path d="M323525000 11531250
L323525000 12531250
" />
<path d="M309525000 25531250
L310525000 25531250
" />
<path d="M323525000 24531250
L323525000 25531250
" />
<path d="M310525000 11531250
L309525000 11531250
" />
<path d="M323525000 11531250
L322525000 11531250
" />
<path d="M260525000 42531250
L259525000 42531250
" />
<path d="M246525000 29531250
L246525000 28531250
" />
<path d="M259525000 42531250
L260525000 42531250
" />
<path d="M260525000 41531250
L260525000 42531250
" />
<path d="M246525000 42531250
L246525000 41531250
" />
<path d="M247525000 28531250
L246525000 28531250
" />
<path d="M246525000 42531250
L247525000 42531250
" />
<path d="M260525000 28531250
L260525000 29531250
" />
<path d="M260525000 28531250
L259525000 28531250
" />
<path d="M231775000 79531250
L230775000 79531250
" />
<path d="M230775000 93531250
L231775000 93531250
" />
<path d="M230775000 80531250
L230775000 79531250
" />
<path d="M243775000 93531250
L244775000 93531250
" />
<path d="M230775000 93531250
L230775000 92531250
" />
<path d="M244775000 79531250
L243775000 79531250
" />
<path d="M244775000 93531250
L243775000 93531250
" />
<path d="M244775000 79531250
L244775000 80531250
" />
<path d="M244775000 92531250
L244775000 93531250
" />
<path d="M197525000 11531250
L197525000 12531250
" />
<path d="M197525000 11531250
L196525000 11531250
" />
<path d="M183525000 11531250
L184525000 11531250
" />
<path d="M183525000 12531250
L183525000 11531250
" />
<path d="M183525000 25531250
L184525000 25531250
" />
<path d="M184525000 11531250
L183525000 11531250
" />
<path d="M196525000 25531250
L197525000 25531250
" />
<path d="M197525000 24531250
L197525000 25531250
" />
<path d="M183525000 25531250
L183525000 24531250
" />
<path d="M170525000 76531250
L169525000 76531250
" />
<path d="M156525000 76531250
L157525000 76531250
" />
<path d="M170525000 62531250
L169525000 62531250
" />
<path d="M156525000 63531250
L156525000 62531250
" />
<path d="M157525000 62531250
L156525000 62531250
" />
<path d="M169525000 76531250
L170525000 76531250
" />
<path d="M156525000 76531250
L156525000 75531250
" />
<path d="M170525000 75531250
L170525000 76531250
" />
<path d="M170525000 62531250
L170525000 63531250
" />
<path d="M291525000 25531250
L292525000 25531250
" />
<path d="M291525000 12531250
L291525000 11531250
" />
<path d="M305525000 11531250
L304525000 11531250
" />
<path d="M292525000 11531250
L291525000 11531250
" />
<path d="M291525000 25531250
L291525000 24531250
" />
<path d="M305525000 25531250
L304525000 25531250
" />
<path d="M305525000 11531250
L305525000 12531250
" />
<path d="M305525000 24531250
L305525000 25531250
" />
<path d="M304525000 25531250
L305525000 25531250
" />
<path d="M265025000 45531250
L265025000 46531250
" />
<path d="M265025000 58531250
L265025000 59531250
" />
<path d="M264025000 59531250
L265025000 59531250
" />
<path d="M265025000 45531250
L264025000 45531250
" />
<path d="M251025000 59531250
L251025000 58531250
" />
<path d="M251025000 46531250
L251025000 45531250
" />
<path d="M252025000 45531250
L251025000 45531250
" />
<path d="M265025000 59531250
L264025000 59531250
" />
<path d="M251025000 59531250
L252025000 59531250
" />
<path d="M187525000 42531250
L188525000 42531250
" />
<path d="M174525000 42531250
L175525000 42531250
" />
<path d="M188525000 41531250
L188525000 42531250
" />
<path d="M174525000 29531250
L174525000 28531250
" />
<path d="M174525000 28531250
L175525000 28531250
" />
<path d="M188525000 28531250
L187525000 28531250
" />
<path d="M175525000 28531250
L174525000 28531250
" />
<path d="M188525000 28531250
L188525000 29531250
" />
<path d="M174525000 42531250
L174525000 41531250
" />
<path d="M113775000 80531250
L113775000 79531250
" />
<path d="M113775000 93531250
L113775000 92531250
" />
<path d="M126775000 93531250
L127775000 93531250
" />
<path d="M113775000 93531250
L114775000 93531250
" />
<path d="M114775000 79531250
L113775000 79531250
" />
<path d="M127775000 79531250
L126775000 79531250
" />
<path d="M127775000 93531250
L126775000 93531250
" />
<path d="M127775000 92531250
L127775000 93531250
" />
<path d="M127775000 79531250
L127775000 80531250
" />
<path d="M58025000 11531250
L58025000 12531250
" />
<path d="M44025000 25531250
L44025000 24531250
" />
<path d="M58025000 25531250
L57025000 25531250
" />
<path d="M44025000 25531250
L45025000 25531250
" />
<path d="M57025000 25531250
L58025000 25531250
" />
<path d="M58025000 11531250
L57025000 11531250
" />
<path d="M45025000 11531250
L44025000 11531250
" />
<path d="M44025000 12531250
L44025000 11531250
" />
<path d="M58025000 24531250
L58025000 25531250
" />
<path d="M287525000 25531250
L286525000 25531250
" />
<path d="M287525000 11531250
L286525000 11531250
" />
<path d="M274525000 11531250
L273525000 11531250
" />
<path d="M273525000 25531250
L274525000 25531250
" />
<path d="M287525000 24531250
L287525000 25531250
" />
<path d="M287525000 11531250
L287525000 12531250
" />
<path d="M273525000 12531250
L273525000 11531250
" />
<path d="M286525000 25531250
L287525000 25531250
" />
<path d="M273525000 25531250
L273525000 24531250
" />
<path d="M157025000 41531250
L157025000 42531250
" />
<path d="M157025000 42531250
L156025000 42531250
" />
<path d="M143025000 42531250
L144025000 42531250
" />
<path d="M144025000 28531250
L143025000 28531250
" />
<path d="M143025000 29531250
L143025000 28531250
" />
<path d="M156025000 42531250
L157025000 42531250
" />
<path d="M143025000 42531250
L143025000 41531250
" />
<path d="M157025000 28531250
L157025000 29531250
" />
<path d="M157025000 28531250
L156025000 28531250
" />
<path d="M251025000 93531250
L251025000 92531250
" />
<path d="M265025000 92531250
L265025000 93531250
" />
<path d="M252025000 79531250
L251025000 79531250
" />
<path d="M265025000 79531250
L264025000 79531250
" />
<path d="M265025000 93531250
L264025000 93531250
" />
<path d="M265025000 79531250
L265025000 80531250
" />
<path d="M264025000 93531250
L265025000 93531250
" />
<path d="M251025000 80531250
L251025000 79531250
" />
<path d="M251025000 93531250
L252025000 93531250
" />
<path d="M147025000 25531250
L148025000 25531250
" />
<path d="M148025000 11531250
L147025000 11531250
" />
<path d="M134025000 12531250
L134025000 11531250
" />
<path d="M148025000 25531250
L147025000 25531250
" />
<path d="M134025000 25531250
L134025000 24531250
" />
<path d="M148025000 24531250
L148025000 25531250
" />
<path d="M134025000 25531250
L135025000 25531250
" />
<path d="M148025000 11531250
L148025000 12531250
" />
<path d="M135025000 11531250
L134025000 11531250
" />
<path d="M298275000 46531250
L298275000 45531250
" />
<path d="M298275000 59531250
L299275000 59531250
" />
<path d="M312275000 58531250
L312275000 59531250
" />
<path d="M299275000 45531250
L298275000 45531250
" />
<path d="M311275000 59531250
L312275000 59531250
" />
<path d="M312275000 59531250
L311275000 59531250
" />
<path d="M298275000 59531250
L298275000 58531250
" />
<path d="M312275000 45531250
L312275000 46531250
" />
<path d="M312275000 45531250
L311275000 45531250
" />
<path d="M278525000 28531250
L277525000 28531250
" />
<path d="M265525000 28531250
L264525000 28531250
" />
<path d="M264525000 29531250
L264525000 28531250
" />
<path d="M278525000 28531250
L278525000 29531250
" />
<path d="M278525000 42531250
L277525000 42531250
" />
<path d="M264525000 42531250
L264525000 41531250
" />
<path d="M264525000 42531250
L265525000 42531250
" />
<path d="M278525000 41531250
L278525000 42531250
" />
<path d="M277525000 42531250
L278525000 42531250
" />
<path d="M34525000 42531250
L35525000 42531250
" />
<path d="M35525000 28531250
L34525000 28531250
" />
<path d="M21525000 42531250
L21525000 41531250
" />
<path d="M21525000 29531250
L21525000 28531250
" />
<path d="M35525000 42531250
L34525000 42531250
" />
<path d="M35525000 28531250
L35525000 29531250
" />
<path d="M22525000 28531250
L21525000 28531250
" />
<path d="M35525000 41531250
L35525000 42531250
" />
<path d="M21525000 42531250
L22525000 42531250
" />
<path d="M341525000 62531250
L341525000 63531250
" />
<path d="M340525000 76531250
L341525000 76531250
" />
<path d="M328525000 62531250
L327525000 62531250
" />
<path d="M327525000 76531250
L327525000 75531250
" />
<path d="M341525000 62531250
L340525000 62531250
" />
<path d="M327525000 63531250
L327525000 62531250
" />
<path d="M341525000 76531250
L340525000 76531250
" />
<path d="M327525000 76531250
L328525000 76531250
" />
<path d="M341525000 75531250
L341525000 76531250
" />
<path d="M105275000 92531250
L105275000 93531250
" />
<path d="M105275000 93531250
L104275000 93531250
" />
<path d="M91275000 80531250
L91275000 79531250
" />
<path d="M91275000 93531250
L92275000 93531250
" />
<path d="M91275000 93531250
L91275000 92531250
" />
<path d="M92275000 79531250
L91275000 79531250
" />
<path d="M105275000 79531250
L104275000 79531250
" />
<path d="M105275000 79531250
L105275000 80531250
" />
<path d="M104275000 93531250
L105275000 93531250
" />
<path d="M80025000 12531250
L80025000 11531250
" />
<path d="M94025000 11531250
L94025000 12531250
" />
<path d="M94025000 24531250
L94025000 25531250
" />
<path d="M80025000 25531250
L80025000 24531250
" />
<path d="M81025000 11531250
L80025000 11531250
" />
<path d="M80025000 25531250
L81025000 25531250
" />
<path d="M94025000 25531250
L93025000 25531250
" />
<path d="M93025000 25531250
L94025000 25531250
" />
<path d="M94025000 11531250
L93025000 11531250
" />
<path d="M327525000 29531250
L327525000 28531250
" />
<path d="M327525000 42531250
L327525000 41531250
" />
<path d="M341525000 42531250
L340525000 42531250
" />
<path d="M341525000 41531250
L341525000 42531250
" />
<path d="M341525000 28531250
L340525000 28531250
" />
<path d="M340525000 42531250
L341525000 42531250
" />
<path d="M341525000 28531250
L341525000 29531250
" />
<path d="M328525000 28531250
L327525000 28531250
" />
<path d="M327525000 42531250
L328525000 42531250
" />
<path d="M242525000 42531250
L241525000 42531250
" />
<path d="M228525000 42531250
L229525000 42531250
" />
<path d="M229525000 28531250
L228525000 28531250
" />
<path d="M242525000 28531250
L241525000 28531250
" />
<path d="M242525000 28531250
L242525000 29531250
" />
<path d="M242525000 41531250
L242525000 42531250
" />
<path d="M241525000 42531250
L242525000 42531250
" />
<path d="M228525000 29531250
L228525000 28531250
" />
<path d="M228525000 42531250
L228525000 41531250
" />
<path d="M210525000 29531250
L210525000 28531250
" />
<path d="M224525000 28531250
L224525000 29531250
" />
<path d="M210525000 42531250
L210525000 41531250
" />
<path d="M224525000 42531250
L223525000 42531250
" />
<path d="M211525000 28531250
L210525000 28531250
" />
<path d="M223525000 42531250
L224525000 42531250
" />
<path d="M210525000 42531250
L211525000 42531250
" />
<path d="M224525000 41531250
L224525000 42531250
" />
<path d="M224525000 28531250
L223525000 28531250
" />
<path d="M17525000 79531250
L16525000 79531250
" />
<path d="M17525000 93531250
L16525000 93531250
" />
<path d="M17525000 92531250
L17525000 93531250
" />
<path d="M3525000 93531250
L4525000 93531250
" />
<path d="M3525000 80531250
L3525000 79531250
" />
<path d="M3525000 93531250
L3525000 92531250
" />
<path d="M16525000 93531250
L17525000 93531250
" />
<path d="M17525000 79531250
L17525000 80531250
" />
<path d="M4525000 79531250
L3525000 79531250
" />
<path d="M282525000 42531250
L282525000 41531250
" />
<path d="M296525000 41531250
L296525000 42531250
" />
<path d="M296525000 28531250
L295525000 28531250
" />
<path d="M282525000 42531250
L283525000 42531250
" />
<path d="M283525000 28531250
L282525000 28531250
" />
<path d="M282525000 29531250
L282525000 28531250
" />
<path d="M295525000 42531250
L296525000 42531250
" />
<path d="M296525000 42531250
L295525000 42531250
" />
<path d="M296525000 28531250
L296525000 29531250
" />
<path d="M116525000 75531250
L116525000 76531250
" />
<path d="M115525000 76531250
L116525000 76531250
" />
<path d="M116525000 76531250
L115525000 76531250
" />
<path d="M102525000 63531250
L102525000 62531250
" />
<path d="M102525000 76531250
L103525000 76531250
" />
<path d="M103525000 62531250
L102525000 62531250
" />
<path d="M116525000 62531250
L115525000 62531250
" />
<path d="M116525000 62531250
L116525000 63531250
" />
<path d="M102525000 76531250
L102525000 75531250
" />
<path d="M21525000 76531250
L21525000 75531250
" />
<path d="M34525000 76531250
L35525000 76531250
" />
<path d="M35525000 75531250
L35525000 76531250
" />
<path d="M21525000 76531250
L22525000 76531250
" />
<path d="M35525000 62531250
L35525000 63531250
" />
<path d="M35525000 62531250
L34525000 62531250
" />
<path d="M21525000 63531250
L21525000 62531250
" />
<path d="M22525000 62531250
L21525000 62531250
" />
<path d="M35525000 76531250
L34525000 76531250
" />
</g>
<g style="fill:#F2EDA1; fill-opacity:0.0; 
stroke:#F2EDA1; stroke-width:120000.000000; stroke-opacity:1; 
stroke-linecap:round; stroke-linejoin:round;">
<path d="M240605000 3701250
L240605000 6361250
" />
<path d="M240605000 6361250
L227845000 6361250
" />
<path d="M227845000 3701250
L240605000 3701250
" />
<path d="M227845000 6361250
L227845000 3701250
" />
<path d="M121705000 6361250
L108945000 6361250
" />
<path d="M108945000 3701250
L121705000 3701250
" />
<path d="M121705000 3701250
L121705000 6361250
" />
<path d="M108945000 6361250
L108945000 3701250
" />
<g >
</g>
<g >
</g>
<g >
</g>
<g >
</g>
<g >
</g>
<g >
</g>
<g >
</g>
<g >
</g>
<g >
</g>
<g >
</g>
<g >
</g>
<g >
</g>
<g >
</g>
<g >
</g>
<g >
</g>
<g >
</g>
<g >
</g>
<g >
</g>
<g >
</g>
<g >
</g>
<g >
</g>
<g >
</g>
<g >
</g>
<g >
</g>
<g >
</g>
<g >
</g>
<g >
</g>
<g >
</g>
<g >
</g>
<g >
</g>
<g >
</g>
<g >
</g>
<g >
</g>
<g >
</g>
<g >
</g>
<g >
</g>
<g >
</g>
<g >
</g>
<g >
</g>
<g >
</g>
<g >
</g>
<g >
</g>
<g >
</g>
<g >
</g>
<g >
</g>
<g >
</g>
<g >
</g>
<g >
</g>
<g >
</g>
<g >
</g>
<g >
</g>
<g >
</g>
<g >
</g>
<g >
</g>
<g >
</g>
<g >
</g>
<g >
</g>
<g >
</g>
<g >
</g>
<g >
</g>
<g >
</g>
<g >
</g>
<g >
</g>
<g >
</g>
<g >
</g>
<g >
</g>
<g >
</g>
<g >
</g>
<g >
</g>
<g >
</g>
<g >
</g>
<g >
</g>
<g >
</g>
<g >
</g>
<g >
</g>
<g >
</g>
<g >
</g>
<g >
</g>
<g >
</g>
<g >
</g>
<g >
</g>
<g >
</g>
<g >
</g>
<g >
</g>
<g >
</g>
<g >
</g>
<g >
</g>
<g >
</g>
<g >
</g>
<g >
</g>
<g >
</g>
<g >
</g>
<g >
</g>
<g >
</g>
<g >
</g>
<g >
</g>
<g >
</g>
<g >
</g>
<g >
</g>
<g >
</g>
<g >
</g>
<g >
</g>
<g >
</g>
<g >
</g>
<g >
</g>
<g >
</g>
<g >
</g>
<g >
</g>
<g >
</g>
<g >
</g>
<g >
</g>
<g >
</g>
<g >
</g>
<g >
</g>
<g >
</g>
<g >
</g>
<g >
</g>
<g >
</g>
<g >
</g>
<g >
</g>
<g >
</g>
<g >
</g>
<g >
</g>
<g >
</g>
<g >
</g>
<g >
</g>
<g >
</g>
<g >
</g>
<g >
</g>
<g >
</g>
<g >
</g>
<g >
</g>
<g >
</g>
<g >
</g>
<g >
</g>
<g >
</g>
<g >
</g>
<g >
</g>
<g >
</g>
<g >
</g>
<g >
</g>
<g >
</g>
<g >
</g>
<g >
</g>
<g >
</g>
<g >
</g>
<g >
</g>
<g >
</g>
<g >
</g>
<g >
</g>
<g >
</g>
<g >
</g>
<g >
</g>
<g >
</g>
<g >
</g>
<g >
</g>
<g >
</g>
<g >
</g>
<g >
</g>
<g >
</g>
<g >
</g>
<g >
</g>
<g >
</g>
<g >
</g>
<g >
</g>
<g >
</g>
<g >
</g>
<g >
</g>
<g >
</g>
<g >
</g>
<g >
</g>
<g >
</g>
<g >
</g>
<g >
</g>
<g >
</g>
<g >
</g>
<g >
</g>
<g >
</g>
<g >
</g>
<g >
</g>
<g >
</g>
<g >
</g>
<g >
</g>
<g >
</g>
<g >
</g>
<g >
</g>
<g >
</g>
<g >
</g>
<g >
</g>
<g >
</g>
<g >
</g>
<g >
</g>
<g >
</g>
<g >
</g>
<g >
</g>
<g >
</g>
<g >
</g>
<g >
</g>
<g >
</g>
<g >
</g>
<g >
</g>
<g >
</g>
<g >
</g>
<g >
</g>
<g >
</g>
<g >
</g>
<g >
</g>
<g >
</g>
<g >
</g>
<g >
</g>
<g >
</g>
<g >
</g>
<g >
</g>
<g >
</g>
<g >
</g>
<g >
</g>
<g >
</g>
<g >
</g>
<g >
</g>
<g >
</g>
<g >
</g>
<g >
</g>
<g >
</g>
<g >
</g>
<g >
</g>
<g >
</g>
<g >
</g>
<g >
</g>
<g >
</g>
<g >
</g>
<g >
</g>
<g >
</g>
<g >
</g>
<g >
</g>
<g >
</g>
<g >
</g>
<g >
</g>
<g >
</g>
<g >
</g>
<g >
</g>
<g >
</g>
<g >
</g>
<g >
</g>
<g >
</g>
<g >
</g>
<g >
</g>
<g >
</g>
<g >
</g>
<g >
</g>
<g >
</g>
<g >
</g>
<g >
</g>
<g >
</g>
<g >
</g>
<g >
</g>
<g >
</g>
<g >
</g>
<g >
</g>
<g >
</g>
<g >
</g>
<g >
</g>
<g >
</g>
<g >
</g>
<g >
</g>
<g >
</g>
<g >
</g>
<g >
</g>
<g >
</g>
<g >
</g>
<g >
</g>
<g >
</g>
<g >
</g>
<g >
</g>
<g >
</g>
<g >
</g>
<g >
</g>
<g >
</g>
<g >
</g>
<g >
</g>
<g >
</g>
<g >
</g>
<g >
</g>
<g >
</g>
<g >
</g>
<g >
</g>
<g >
</g>
<g >
</g>
<g >
</g>
<g >
</g>
<g >
</g>
<g >
</g>
<g >
</g>
<g >
</g>
<g >
</g>
<g >
</g>
<g >
</g>
<g >
</g>
<g >
</g>
<g >
</g>
<g >
</g>
<g >
</g>
<g >
</g>
<g >
</g>
<g >
</g>
<g >
</g>
<g >
</g>
<g >
</g>
<g >
</g>
<g >
</g>
<g >
</g>
<g >
</g>
<g >
</g>
<g >
</g>
<g >
</g>
<g >
</g>
<g >
</g>
<g >
</g>
<g >
</g>
<g >
</g>
<g >
</g>
<g >
</g>
<g >
</g>
<g >
</g>
<g >
</g>
<g >
</g>
<g >
</g>
<g >
</g>
<g >
</g>
<g >
</g>
<g >
</g>
<g >
</g>
<g >
</g>
<g >
</g>
<g >
</g>
<g >
</g>
<g >
</g>
<g >
</g>
<g >
</g>
<g >
</g>
<g >
</g>
<g >
</g>
<g >
</g>
<g >
</g>
<g >
</g>
<g >
</g>
<g >
</g>
<g >
</g>
<g >
</g>
<g >
</g>
<g >
</g>
<g >
</g>
<g >
</g>
<g >
</g>
<g >
</g>
<g >
</g>
<g >
</g>
<g >
</g>
<g >
</g>
<g >
</g>
<g >
</g>
<g >
</g>
<g >
</g>
<g >
</g>
<g >
</g>
<g >
</g>
<g >
</g>
<g >
</g>
<g >
</g>
<g >
</g>
<g >
</g>
<g >
</g>
<g >
</g>
<g >
</g>
<g >
</g>
<g >
</g>
<g >
</g>
<g >
</g>
<g >
</g>
<g >
</g>
<g >
</g>
<g >
</g>
<g >
</g>
<g >
</g>
<g >
</g>
<g >
</g>
<g >
</g>
<g >
</g>
<g >
</g>
<g >
</g>
<g >
</g>
<g >
</g>
<g >
</g>
<g >
</g>
<g >
</g>
<g >
</g>
<g >
</g>
<g >
</g>
<g >
</g>
<g >
</g>
<g >
</g>
<g >
</g>
<g >
</g>
</g>
<g style="fill:#000000; fill-opacity:0.0; 
stroke:#000000; stroke-width:120000.000000; stroke-opacity:1; 
stroke-linecap:round; stroke-linejoin:round;">
</g>
<g style="fill:#D0D2CD; fill-opacity:0.0; 
stroke:#D0D2CD; stroke-width:120000.000000; stroke-opacity:1; 
stroke-linecap:round; stroke-linejoin:round;">
</g>
<g style="fill:#D0D2CD; fill-opacity:0.0; 
stroke:#D0D2CD; stroke-width:50000.000000; stroke-opacity:1; 
stroke-linecap:round; stroke-linejoin:round;">
<path d="M174525000.000000 27031250.000000 A2000000.000000 2000000.000000 0.0 0 0 172525000.000000 29031250.000000" />
<path d="M15025875 6656250
L24025875 6656250
" />
<path d="M25000.000000 96031250.000000 A4000000.000000 4000000.000000 0.0 0 0 4025000.000000 100031250.000000" />
<path d="M172525000 63031250
L172525000 96031250
" />
<path d="M345025000 96031250
L345025000 4031250
" />
<path d="M185525000.000000 31250.000000 A4000000.000000 4000000.000000 0.0 0 0 181525000.000000 4031250.000000" />
<path d="M179025000 61031250
L184025000 61031250
" />
<path d="M172525000 29031250
L172525000 42031250
" />
<path d="M166025000 27031250
L161025000 27031250
" />
<path d="M168025000.000000 4031250.000000 A4000000.000000 4000000.000000 0.0 0 0 164025000.000000 31250.000000" />
<path d="M161025000 44031250
L161525000 44031250
" />
<path d="M172525000.000000 42031250.000000 A2000000.000000 2000000.000000 0.0 0 0 174525000.000000 44031250.000000" />
<path d="M159025000.000000 42031250.000000 A2000000.000000 2000000.000000 0.0 0 0 161025000.000000 44031250.000000" />
<path d="M24025875 6656250
L24025875 37500
" />
<path d="M163525000.000000 59031250.000000 A2000000.000000 2000000.000000 0.0 0 0 165525000.000000 61031250.000000" />
<path d="M321024125 25000
L321025000 6650000
" />
<path d="M321025000 31250
L185525000 31250
" />
<path d="M161025000.000000 27031250.000000 A2000000.000000 2000000.000000 0.0 0 0 159025000.000000 29031250.000000" />
<path d="M25000 96031250
L25000 4031250
" />
<path d="M15025000 31250
L4025000 31250
" />
<path d="M168525000 100031250
L4025000 100031250
" />
<path d="M165525000 61031250
L170525000 61031250
" />
<path d="M177025000 46031250
L177025000 59031250
" />
<path d="M15025000 31250
L15025875 6656250
" />
<path d="M163525000 46031250
L163525000 59031250
" />
<path d="M186025000.000000 63031250.000000 A2000000.000000 2000000.000000 0.0 0 0 184025000.000000 61031250.000000" />
<path d="M330025000 31250
L341025000 31250
" />
<path d="M321025000 6650000
L330025000 6650000
" />
<path d="M179525000 27031250
L174525000 27031250
" />
<path d="M174525000 44031250
L175025000 44031250
" />
<path d="M177025000.000000 59031250.000000 A2000000.000000 2000000.000000 0.0 0 0 179025000.000000 61031250.000000" />
<path d="M24025875 37500
L164025000 31250
" />
<path d="M345025000.000000 4031250.000000 A4000000.000000 4000000.000000 0.0 0 0 341025000.000000 31250.000000" />
<path d="M186025000.000000 96031250.000000 A4000000.000000 4000000.000000 0.0 0 0 190025000.000000 100031250.000000" />
<path d="M341025000.000000 100031250.000000 A4000000.000000 4000000.000000 0.0 0 0 345025000.000000 96031250.000000" />
<path d="M181525000 4031250
L181525000 25031250
" />
<path d="M186025000 63031250
L186025000 96031250
" />
<path d="M168525000.000000 100031250.000000 A4000000.000000 4000000.000000 0.0 0 0 172525000.000000 96031250.000000" />
<path d="M163525000.000000 46031250.000000 A2000000.000000 2000000.000000 0.0 0 0 161525000.000000 44031250.000000" />
<path d="M168025000 4031250
L168025000 25031250
" />
<path d="M179525000.000000 27031250.000000 A2000000.000000 2000000.000000 0.0 0 0 181525000.000000 25031250.000000" />
<path d="M177025000.000000 46031250.000000 A2000000.000000 2000000.000000 0.0 0 0 175025000.000000 44031250.000000" />
<path d="M4025000.000000 31250.000000 A4000000.000000 4000000.000000 0.0 0 0 25000.000000 4031250.000000" />
<path d="M190025000 100031250
L341025000 100031250
" />
<path d="M330025000 6650000
L330025000 31250
" />
<path d="M159025000 29031250
L159025000 42031250
" />
<path d="M166025000.000000 27031250.000000 A2000000.000000 2000000.000000 0.0 0 0 168025000.000000 25031250.000000" />
<path d="M172525000.000000 63031250.000000 A2000000.000000 2000000.000000 0.0 0 0 170525000.000000 61031250.000000" />
</g>
<g style="fill:#D0D2CD; fill-opacity:0.0; 
stroke:#D0D2CD; stroke-width:120000.000000; stroke-opacity:1; 
stroke-linecap:round; stroke-linejoin:round;">
<path d="M6525000 11531250
L15525000 11531250
" />
<path d="M15525000 11531250
L15525000 25531250
" />
<path d="M15525000 25531250
L6525000 25531250
" />
<path d="M6525000 25531250
L6525000 11531250
" />
<g >
</g>
<g >
</g>
<g >
</g>
<g >
</g>
<g >
</g>
<g >
</g>
<g >
</g>
<g >
</g>
<g >
</g>
<g >
</g>
<g >
</g>
<g >
</g>
<g >
</g>
<g >
</g>
<g >
</g>
<g >
</g>
<g >
</g>
<g >
</g>
<g >
</g>
<g >
</g>
<g >
</g>
<g >
</g>
<g >
</g>
<g >
</g>
<g >
</g>
<g >
</g>
<g >
</g>
<g >
</g>
<g >
</g>
<g >
</g>
<g >
</g>
<g >
</g>
<g >
</g>
<g >
</g>
<g >
</g>
<g >
</g>
<g >
</g>
<g >
</g>
<g >
</g>
<g >
</g>
<g >
</g>
<g >
</g>
<g >
</g>
<g >
</g>
<g >
</g>
<g >
</g>
<g >
</g>
<g >
</g>
<g >
</g>
<g >
</g>
<g >
</g>
<g >
</g>
<g >
</g>
<g >
</g>
<g >
</g>
<g >
</g>
<g >
</g>
<g >
</g>
<g >
</g>
<g >
</g>
<g >
</g>
<g >
</g>
<g >
</g>
<g >
</g>
<g >
</g>
<g >
</g>
<g >
</g>
<g >
</g>
<g >
</g>
<g >
</g>
<g >
</g>
<g >
</g>
<g >
</g>
<g >
</g>
<g >
</g>
<g >
</g>
<g >
</g>
<g >
</g>
<g >
</g>
<g >
</g>
<g >
</g>
<g >
</g>
<g >
</g>
<g >
</g>
<g >
</g>
<g >
</g>
<g >
</g>
<g >
</g>
<g >
</g>
<g >
</g>
<g >
</g>
<g >
</g>
<g >
</g>
<g >
</g>
<g >
</g>
<g >
</g>
<g >
</g>
<g >
</g>
<g >
</g>
<g >
</g>
<g >
</g>
<g >
</g>
<g >
</g>
<g >
</g>
<g >
</g>
<g >
</g>
<g >
</g>
<g >
</g>
<g >
</g>
<g >
</g>
<g >
</g>
<g >
</g>
<g >
</g>
<g >
</g>
<g >
</g>
<g >
</g>
<g >
</g>
<g >
</g>
<g >
</g>
<g >
</g>
<g >
</g>
<g >
</g>
<g >
</g>
<g >
</g>
<g >
</g>
<g >
</g>
<g >
</g>
<g >
</g>
<g >
</g>
<g >
</g>
<g >
</g>
<g >
</g>
<g >
</g>
<g >
</g>
<g >
</g>
<g >
</g>
<g >
</g>
<g >
</g>
<g >
</g>
<g >
</g>
<g >
</g>
<g >
</g>
<g >
</g>
<g >
</g>
<g >
</g>
<g >
</g>
<g >
</g>
<g >
</g>
<g >
</g>
<g >
</g>
<g >
</g>
<g >
</g>
<g >
</g>
<g >
</g>
<g >
</g>
<g >
</g>
<g >
</g>
<g >
</g>
<g >
</g>
<g >
</g>
<g >
</g>
<g >
</g>
<g >
</g>
<g >
</g>
<g >
</g>
<g >
</g>
<g >
</g>
<g >
</g>
<g >
</g>
<g >
</g>
<g >
</g>
<g >
</g>
<g >
</g>
<g >
</g>
<g >
</g>
<g >
</g>
<g >
</g>
<g >
</g>
<g >
</g>
<g >
</g>
<g >
</g>
<g >
</g>
<g >
</g>
<g >
</g>
<g >
</g>
<g >
</g>
<g >
</g>
<g >
</g>
<g >
</g>
<g >
</g>
<g >
</g>
<g >
</g>
<g >
</g>
<g >
</g>
<g >
</g>
<g >
</g>
<g >
</g>
<g >
</g>
<g >
</g>
<g >
</g>
<g >
</g>
<g >
</g>
<g >
</g>
<g >
</g>
<g >
</g>
<g >
</g>
<g >
</g>
<g >
</g>
<g >
</g>
<g >
</g>
<g >
</g>
<g >
</g>
<g >
</g>
<g >
</g>
<g >
</g>
<g >
</g>
<g >
</g>
<g >
</g>
<g >
</g>
<g >
</g>
<g >
</g>
<g >
</g>
<g >
</g>
<g >
</g>
<g >
</g>
<g >
</g>
<g >
</g>
<g >
</g>
<g >
</g>
<g >
</g>
<g >
</g>
<g >
</g>
<g >
</g>
<g >
</g>
<g >
</g>
<g >
</g>
<g >
</g>
<g >
</g>
<g >
</g>
<g >
</g>
<g >
</g>
<g >
</g>
<g >
</g>
<g >
</g>
<g >
</g>
<g >
</g>
<g >
</g>
<g >
</g>
<g >
</g>
<g >
</g>
<g >
</g>
<g >
</g>
<g >
</g>
<g >
</g>
<g >
</g>
<g >
</g>
<g >
</g>
<g >
</g>
<g >
</g>
<g >
</g>
<g >
</g>
<g >
</g>
<g >
</g>
<g >
</g>
<g >
</g>
<g >
</g>
<g >
</g>
<g >
</g>
<g >
</g>
<g >
</g>
<g >
</g>
<g >
</g>
<g >
</g>
<g >
</g>
<g >
</g>
<g >
</g>
<g >
</g>
<g >
</g>
<g >
</g>
<g >
</g>
<g >
</g>
<g >
</g>
<g >
</g>
<g >
</g>
<g >
</g>
<g >
</g>
<g >
</g>
<g >
</g>
<g >
</g>
<g >
</g>
<g >
</g>
<g >
</g>
<g >
</g>
<g >
</g>
<g >
</g>
<g >
</g>
<g >
</g>
<g >
</g>
<g >
</g>
<g >
</g>
<g >
</g>
<g >
</g>
<g >
</g>
<g >
</g>
<g >
</g>
<g >
</g>
<g >
</g>
<g >
</g>
<g >
</g>
<g >
</g>
<g >
</g>
<g >
</g>
<g >
</g>
<g >
</g>
<g >
</g>
<g >
</g>
<g >
</g>
<g >
</g>
<g >
</g>
<g >
</g>
<g >
</g>
<g >
</g>
<g >
</g>
<g >
</g>
<g >
</g>
<g >
</g>
<g >
</g>
<g >
</g>
<g >
</g>
<g >
</g>
<g >
</g>
<g >
</g>
<g >
</g>
<g >
</g>
<g >
</g>
<g >
</g>
<g >
</g>
<g >
</g>
<g >
</g>
<g >
</g>
<g >
</g>
<g >
</g>
<g >
</g>
<g >
</g>
<g >
</g>
<g >
</g>
<g >
</g>
<g >
</g>
<g >
</g>
<g >
</g>
<g >
</g>
<g >
</g>
<g >
</g>
<g >
</g>
<g >
</g>
<g >
</g>
<g >
</g>
<g >
</g>
<g >
</g>
<g >
</g>
<g >
</g>
<g >
</g>
<g >
</g>
<g >
</g>
<g >
</g>
<g >
</g>
<g >
</g>
<g >
</g>
<g >
</g>
<g >
</g>
<g >
</g>
<g >
</g>
<g >
</g>
<g >
</g>
<g >
</g>
<g >
</g>
<g >
</g>
<g >
</g>
<g >
</g>
<g >
</g>
<g >
</g>
<g >
</g>
<g >
</g>
<g >
</g>
<g >
</g>
<g >
</g>
<g >
</g>
<g >
</g>
<g >
</g>
<g >
</g>
<g >
</g>
<g >
</g>
<g >
</g>
<g >
</g>
<g >
</g>
<g >
</g>
<g >
</g>
<g >
</g>
<g >
</g>
<g >
</g>
<g >
</g>
<g >
</g>
</g> 
</svg>
